STARTFONT 2.1
COMMENT
COMMENT Converted from OpenType font "JF-Dot-Izumi16B.ttf" by "otf2bdf 3.0".
COMMENT
FONT -FreeType-JF Dot Izumi Gothic 16-Bold-R-Normal--17-120-100-100-P-167-ISO10646-1
SIZE 12 100 100
FONTBOUNDINGBOX 17 17 0 -2
STARTPROPERTIES 19
FOUNDRY "FreeType"
FAMILY_NAME "JF Dot Izumi Gothic 16"
WEIGHT_NAME "Bold"
SLANT "R"
SETWIDTH_NAME "Normal"
ADD_STYLE_NAME ""
PIXEL_SIZE 17
POINT_SIZE 120
RESOLUTION_X 100
RESOLUTION_Y 100
SPACING "P"
AVERAGE_WIDTH 167
CHARSET_REGISTRY "ISO10646"
CHARSET_ENCODING "1"
FONT_ASCENT 14
FONT_DESCENT 2
COPYRIGHT "-FreeType-JF Dot Izumi Gothic 16-Bold-R-Normal--17-120-100-100-P-167-ISO10646-1"
_OTF_FONTFILE "JF-Dot-Izumi16B.ttf"
_OTF_PSNAME "JF-Dot-Izumi-16-Bold"
ENDPROPERTIES
CHARS 11081
STARTCHAR 0020
ENCODING 32
SWIDTH 540 0
DWIDTH 9 0
BBX 0 0 0 0
BITMAP
ENDCHAR
STARTCHAR 0021
ENCODING 33
SWIDTH 540 0
DWIDTH 9 0
BBX 2 12 2 0
BITMAP
C0
C0
C0
C0
C0
C0
C0
C0
00
00
C0
C0
ENDCHAR
STARTCHAR 0022
ENCODING 34
SWIDTH 540 0
DWIDTH 9 0
BBX 6 4 1 8
BITMAP
6C
6C
D8
D8
ENDCHAR
STARTCHAR 0023
ENCODING 35
SWIDTH 540 0
DWIDTH 9 0
BBX 7 12 0 0
BITMAP
6C
6C
FE
6C
6C
6C
6C
6C
FE
6C
6C
6C
ENDCHAR
STARTCHAR 0024
ENCODING 36
SWIDTH 540 0
DWIDTH 9 0
BBX 9 16 0 -1
BITMAP
3400
3C00
3C00
7600
D400
D400
7400
3C00
3400
3600
3580
D580
D580
7600
3C00
3400
ENDCHAR
STARTCHAR 0025
ENCODING 37
SWIDTH 540 0
DWIDTH 9 0
BBX 9 14 0 0
BITMAP
7380
7380
DB80
DA00
7600
0C00
0C00
1800
1800
3000
3600
6B80
6B80
CE00
ENDCHAR
STARTCHAR 0026
ENCODING 38
SWIDTH 540 0
DWIDTH 9 0
BBX 9 12 0 0
BITMAP
3800
6C00
6C00
6C00
6800
3000
6B80
DA00
CC00
CE00
6D80
3B80
ENDCHAR
STARTCHAR 0027
ENCODING 39
SWIDTH 540 0
DWIDTH 9 0
BBX 3 4 2 8
BITMAP
60
60
C0
C0
ENDCHAR
STARTCHAR 0028
ENCODING 40
SWIDTH 540 0
DWIDTH 9 0
BBX 4 15 1 -1
BITMAP
30
30
60
60
60
C0
C0
C0
C0
C0
C0
60
60
60
30
ENDCHAR
STARTCHAR 0029
ENCODING 41
SWIDTH 540 0
DWIDTH 9 0
BBX 4 15 2 -1
BITMAP
C0
C0
60
60
60
30
30
30
30
30
30
60
60
60
C0
ENDCHAR
STARTCHAR 002A
ENCODING 42
SWIDTH 540 0
DWIDTH 9 0
BBX 7 7 0 2
BITMAP
C6
6C
38
FE
38
6C
C6
ENDCHAR
STARTCHAR 002B
ENCODING 43
SWIDTH 540 0
DWIDTH 9 0
BBX 9 9 0 2
BITMAP
1800
1800
1800
1800
FF80
1800
1800
1800
1800
ENDCHAR
STARTCHAR 002C
ENCODING 44
SWIDTH 540 0
DWIDTH 9 0
BBX 3 4 2 -2
BITMAP
E0
E0
60
C0
ENDCHAR
STARTCHAR 002D
ENCODING 45
SWIDTH 540 0
DWIDTH 9 0
BBX 7 1 0 6
BITMAP
FE
ENDCHAR
STARTCHAR 002E
ENCODING 46
SWIDTH 540 0
DWIDTH 9 0
BBX 3 2 2 0
BITMAP
E0
E0
ENDCHAR
STARTCHAR 002F
ENCODING 47
SWIDTH 540 0
DWIDTH 9 0
BBX 9 12 0 0
BITMAP
0380
0600
0600
0C00
0C00
1800
1800
3000
3000
6000
6000
C000
ENDCHAR
STARTCHAR 0030
ENCODING 48
SWIDTH 540 0
DWIDTH 9 0
BBX 7 14 0 0
BITMAP
38
38
6C
6C
C6
C6
C6
C6
C6
C6
C6
6C
6C
38
ENDCHAR
STARTCHAR 0031
ENCODING 49
SWIDTH 540 0
DWIDTH 9 0
BBX 3 14 2 0
BITMAP
E0
E0
60
60
60
60
60
60
60
60
60
60
60
60
ENDCHAR
STARTCHAR 0032
ENCODING 50
SWIDTH 540 0
DWIDTH 9 0
BBX 7 14 0 0
BITMAP
38
38
6C
C6
C6
06
0C
0C
18
30
60
C0
C0
FE
ENDCHAR
STARTCHAR 0033
ENCODING 51
SWIDTH 540 0
DWIDTH 9 0
BBX 7 14 0 0
BITMAP
38
38
6C
C6
C6
06
0C
3C
0C
06
C6
C6
6C
38
ENDCHAR
STARTCHAR 0034
ENCODING 52
SWIDTH 540 0
DWIDTH 9 0
BBX 9 14 0 0
BITMAP
0600
0600
0E00
0E00
1A00
1A00
3600
3600
6600
6600
FF80
0600
0600
0600
ENDCHAR
STARTCHAR 0035
ENCODING 53
SWIDTH 540 0
DWIDTH 9 0
BBX 7 14 0 0
BITMAP
7C
7C
60
60
60
C0
F8
CC
06
06
C6
C6
6C
38
ENDCHAR
STARTCHAR 0036
ENCODING 54
SWIDTH 540 0
DWIDTH 9 0
BBX 7 14 0 0
BITMAP
18
18
18
30
30
60
78
6C
C6
C6
C6
C6
6C
38
ENDCHAR
STARTCHAR 0037
ENCODING 55
SWIDTH 540 0
DWIDTH 9 0
BBX 7 14 0 0
BITMAP
FE
FE
06
06
06
0C
0C
0C
18
18
18
30
30
30
ENDCHAR
STARTCHAR 0038
ENCODING 56
SWIDTH 540 0
DWIDTH 9 0
BBX 7 14 0 0
BITMAP
38
38
6C
C6
C6
C6
6C
38
6C
C6
C6
C6
6C
38
ENDCHAR
STARTCHAR 0039
ENCODING 57
SWIDTH 540 0
DWIDTH 9 0
BBX 7 14 0 0
BITMAP
38
38
6C
C6
C6
C6
C6
6C
3C
0C
18
18
30
30
ENDCHAR
STARTCHAR 003A
ENCODING 58
SWIDTH 540 0
DWIDTH 9 0
BBX 3 8 2 2
BITMAP
E0
E0
00
00
00
00
E0
E0
ENDCHAR
STARTCHAR 003B
ENCODING 59
SWIDTH 540 0
DWIDTH 9 0
BBX 3 10 2 0
BITMAP
E0
E0
00
00
00
00
E0
E0
60
C0
ENDCHAR
STARTCHAR 003C
ENCODING 60
SWIDTH 540 0
DWIDTH 9 0
BBX 7 11 0 1
BITMAP
06
0C
18
30
60
C0
60
30
18
0C
06
ENDCHAR
STARTCHAR 003D
ENCODING 61
SWIDTH 540 0
DWIDTH 9 0
BBX 7 3 0 5
BITMAP
FE
00
FE
ENDCHAR
STARTCHAR 003E
ENCODING 62
SWIDTH 540 0
DWIDTH 9 0
BBX 7 11 0 1
BITMAP
C0
60
30
18
0C
06
0C
18
30
60
C0
ENDCHAR
STARTCHAR 003F
ENCODING 63
SWIDTH 540 0
DWIDTH 9 0
BBX 7 14 0 0
BITMAP
7C
7C
C6
C6
C6
C6
06
0C
18
18
00
00
18
18
ENDCHAR
STARTCHAR 0040
ENCODING 64
SWIDTH 540 0
DWIDTH 9 0
BBX 9 14 0 0
BITMAP
3C00
3C00
6600
C380
DB80
D580
D580
D580
D580
D580
D580
DA00
6000
3F80
ENDCHAR
STARTCHAR 0041
ENCODING 65
SWIDTH 540 0
DWIDTH 9 0
BBX 9 14 0 0
BITMAP
1800
1800
1800
3400
3400
3400
6600
6600
7E00
6600
C380
C380
C380
C380
ENDCHAR
STARTCHAR 0042
ENCODING 66
SWIDTH 540 0
DWIDTH 9 0
BBX 7 14 0 0
BITMAP
F8
F8
CC
C6
C6
CC
F8
CC
C6
C6
C6
C6
CC
F8
ENDCHAR
STARTCHAR 0043
ENCODING 67
SWIDTH 540 0
DWIDTH 9 0
BBX 9 14 0 0
BITMAP
3C00
3C00
6600
6000
C000
C000
C000
C000
C000
C000
C380
6380
6600
3C00
ENDCHAR
STARTCHAR 0044
ENCODING 68
SWIDTH 540 0
DWIDTH 9 0
BBX 7 14 0 0
BITMAP
F8
F8
CC
CC
C6
C6
C6
C6
C6
C6
C6
CC
CC
F8
ENDCHAR
STARTCHAR 0045
ENCODING 69
SWIDTH 540 0
DWIDTH 9 0
BBX 7 14 0 0
BITMAP
FE
FE
C0
C0
C0
C0
C0
FC
C0
C0
C0
C0
C0
FE
ENDCHAR
STARTCHAR 0046
ENCODING 70
SWIDTH 540 0
DWIDTH 9 0
BBX 7 14 0 0
BITMAP
FE
FE
C0
C0
C0
C0
C0
FC
C0
C0
C0
C0
C0
C0
ENDCHAR
STARTCHAR 0047
ENCODING 71
SWIDTH 540 0
DWIDTH 9 0
BBX 9 14 0 0
BITMAP
3C00
3C00
6600
6000
C000
C000
C000
C000
CF80
C380
C380
6380
6600
3C00
ENDCHAR
STARTCHAR 0048
ENCODING 72
SWIDTH 540 0
DWIDTH 9 0
BBX 7 14 0 0
BITMAP
C6
C6
C6
C6
C6
C6
C6
FE
C6
C6
C6
C6
C6
C6
ENDCHAR
STARTCHAR 0049
ENCODING 73
SWIDTH 540 0
DWIDTH 9 0
BBX 2 14 3 0
BITMAP
C0
C0
C0
C0
C0
C0
C0
C0
C0
C0
C0
C0
C0
C0
ENDCHAR
STARTCHAR 004A
ENCODING 74
SWIDTH 540 0
DWIDTH 9 0
BBX 7 14 0 0
BITMAP
06
06
06
06
06
06
06
06
06
06
C6
C6
6C
38
ENDCHAR
STARTCHAR 004B
ENCODING 75
SWIDTH 540 0
DWIDTH 9 0
BBX 9 14 0 0
BITMAP
C380
C380
C600
CC00
D800
D000
F800
D800
CC00
CC00
C600
C600
C380
C380
ENDCHAR
STARTCHAR 004C
ENCODING 76
SWIDTH 540 0
DWIDTH 9 0
BBX 8 14 1 0
BITMAP
C0
C0
C0
C0
C0
C0
C0
C0
C0
C0
C0
C0
C0
FF
ENDCHAR
STARTCHAR 004D
ENCODING 77
SWIDTH 540 0
DWIDTH 9 0
BBX 6 14 1 0
BITMAP
CC
CC
CC
CC
EC
EC
EC
D4
D4
D4
CC
CC
CC
CC
ENDCHAR
STARTCHAR 004E
ENCODING 78
SWIDTH 540 0
DWIDTH 9 0
BBX 7 14 0 0
BITMAP
C6
C6
E6
E6
E6
D6
D6
D6
DA
DA
DA
CE
CE
C6
ENDCHAR
STARTCHAR 004F
ENCODING 79
SWIDTH 540 0
DWIDTH 9 0
BBX 7 14 0 0
BITMAP
7C
7C
C6
C6
C6
C6
C6
C6
C6
C6
C6
C6
C6
7C
ENDCHAR
STARTCHAR 0050
ENCODING 80
SWIDTH 540 0
DWIDTH 9 0
BBX 8 14 1 0
BITMAP
F8
F8
CC
C7
C7
C7
CC
F8
C0
C0
C0
C0
C0
C0
ENDCHAR
STARTCHAR 0051
ENCODING 81
SWIDTH 540 0
DWIDTH 9 0
BBX 9 14 0 0
BITMAP
3800
3800
6C00
C600
C600
C600
C600
C600
C600
C600
C600
C600
6C00
3B80
ENDCHAR
STARTCHAR 0052
ENCODING 82
SWIDTH 540 0
DWIDTH 9 0
BBX 8 14 1 0
BITMAP
FC
FC
C7
C7
C7
C7
CC
F8
D8
D8
CC
CC
C7
C7
ENDCHAR
STARTCHAR 0053
ENCODING 83
SWIDTH 540 0
DWIDTH 9 0
BBX 9 14 0 0
BITMAP
3800
3800
6C00
C600
C000
6000
3800
0C00
0600
0380
C380
C380
6600
3C00
ENDCHAR
STARTCHAR 0054
ENCODING 84
SWIDTH 540 0
DWIDTH 9 0
BBX 9 14 0 0
BITMAP
FF80
FF80
1800
1800
1800
1800
1800
1800
1800
1800
1800
1800
1800
1800
ENDCHAR
STARTCHAR 0055
ENCODING 85
SWIDTH 540 0
DWIDTH 9 0
BBX 7 14 0 0
BITMAP
C6
C6
C6
C6
C6
C6
C6
C6
C6
C6
C6
C6
C6
7C
ENDCHAR
STARTCHAR 0056
ENCODING 86
SWIDTH 540 0
DWIDTH 9 0
BBX 9 14 0 0
BITMAP
C380
C380
C380
C380
C380
6600
6600
6600
3400
3400
3400
1800
1800
1800
ENDCHAR
STARTCHAR 0057
ENCODING 87
SWIDTH 540 0
DWIDTH 9 0
BBX 9 14 0 0
BITMAP
D380
D380
D380
D380
D380
6A00
6A00
6A00
6A00
6A00
3400
3400
3400
3400
ENDCHAR
STARTCHAR 0058
ENCODING 88
SWIDTH 540 0
DWIDTH 9 0
BBX 9 14 0 0
BITMAP
C380
C380
C380
6600
6600
3400
3400
1800
3400
3400
6600
6600
C380
C380
ENDCHAR
STARTCHAR 0059
ENCODING 89
SWIDTH 540 0
DWIDTH 9 0
BBX 9 14 0 0
BITMAP
C380
C380
C380
6600
6600
3400
3400
1800
1800
1800
1800
1800
1800
1800
ENDCHAR
STARTCHAR 005A
ENCODING 90
SWIDTH 540 0
DWIDTH 9 0
BBX 9 14 0 0
BITMAP
FF80
FF80
0380
0600
0600
0C00
1800
1800
3000
6000
6000
C000
C000
FF80
ENDCHAR
STARTCHAR 005B
ENCODING 91
SWIDTH 540 0
DWIDTH 9 0
BBX 4 14 2 0
BITMAP
F0
F0
C0
C0
C0
C0
C0
C0
C0
C0
C0
C0
C0
F0
ENDCHAR
STARTCHAR 005C
ENCODING 92
SWIDTH 540 0
DWIDTH 9 0
BBX 9 14 0 0
BITMAP
C380
C380
C380
6600
6600
FF80
3400
1800
1800
FF80
1800
1800
1800
1800
ENDCHAR
STARTCHAR 005D
ENCODING 93
SWIDTH 540 0
DWIDTH 9 0
BBX 4 14 1 0
BITMAP
F0
F0
30
30
30
30
30
30
30
30
30
30
30
F0
ENDCHAR
STARTCHAR 005E
ENCODING 94
SWIDTH 540 0
DWIDTH 9 0
BBX 6 3 0 9
BITMAP
30
68
CC
ENDCHAR
STARTCHAR 005F
ENCODING 95
SWIDTH 540 0
DWIDTH 9 0
BBX 9 1 0 -1
BITMAP
FF80
ENDCHAR
STARTCHAR 0060
ENCODING 96
SWIDTH 540 0
DWIDTH 9 0
BBX 3 4 1 8
BITMAP
E0
E0
C0
60
ENDCHAR
STARTCHAR 0061
ENCODING 97
SWIDTH 540 0
DWIDTH 9 0
BBX 7 9 0 0
BITMAP
3C
66
06
3E
66
C6
C6
CE
7A
ENDCHAR
STARTCHAR 0062
ENCODING 98
SWIDTH 540 0
DWIDTH 9 0
BBX 7 12 0 0
BITMAP
C0
C0
C0
D8
EC
C6
C6
C6
C6
C6
EC
D8
ENDCHAR
STARTCHAR 0063
ENCODING 99
SWIDTH 540 0
DWIDTH 9 0
BBX 7 9 0 0
BITMAP
3C
66
C0
C0
C0
C0
C0
66
3C
ENDCHAR
STARTCHAR 0064
ENCODING 100
SWIDTH 540 0
DWIDTH 9 0
BBX 7 12 0 0
BITMAP
06
06
06
3A
6E
C6
C6
C6
C6
C6
6E
3A
ENDCHAR
STARTCHAR 0065
ENCODING 101
SWIDTH 540 0
DWIDTH 9 0
BBX 7 9 0 0
BITMAP
38
6C
C6
C6
FE
C0
C0
66
3C
ENDCHAR
STARTCHAR 0066
ENCODING 102
SWIDTH 540 0
DWIDTH 9 0
BBX 5 14 1 0
BITMAP
38
38
60
60
60
F8
60
60
60
60
60
60
60
60
ENDCHAR
STARTCHAR 0067
ENCODING 103
SWIDTH 540 0
DWIDTH 9 0
BBX 7 11 0 -2
BITMAP
3A
6E
C6
C6
C6
C6
6E
3A
06
C6
7C
ENDCHAR
STARTCHAR 0068
ENCODING 104
SWIDTH 540 0
DWIDTH 9 0
BBX 7 12 0 0
BITMAP
C0
C0
C0
C0
D8
EC
C6
C6
C6
C6
C6
C6
ENDCHAR
STARTCHAR 0069
ENCODING 105
SWIDTH 540 0
DWIDTH 9 0
BBX 2 12 3 0
BITMAP
C0
C0
00
00
C0
C0
C0
C0
C0
C0
C0
C0
ENDCHAR
STARTCHAR 006A
ENCODING 106
SWIDTH 540 0
DWIDTH 9 0
BBX 5 14 1 -2
BITMAP
18
18
00
00
18
18
18
18
18
18
18
18
D8
70
ENDCHAR
STARTCHAR 006B
ENCODING 107
SWIDTH 540 0
DWIDTH 9 0
BBX 8 14 1 0
BITMAP
C0
C0
C0
C0
C0
C7
CC
D8
D0
E0
D0
D8
CC
C7
ENDCHAR
STARTCHAR 006C
ENCODING 108
SWIDTH 540 0
DWIDTH 9 0
BBX 3 14 3 0
BITMAP
C0
C0
C0
C0
C0
C0
C0
C0
C0
C0
C0
C0
C0
E0
ENDCHAR
STARTCHAR 006D
ENCODING 109
SWIDTH 540 0
DWIDTH 9 0
BBX 9 9 0 0
BITMAP
D600
EB80
DB80
DB80
DB80
DB80
DB80
DB80
DB80
ENDCHAR
STARTCHAR 006E
ENCODING 110
SWIDTH 540 0
DWIDTH 9 0
BBX 7 9 0 0
BITMAP
DC
E6
C6
C6
C6
C6
C6
C6
C6
ENDCHAR
STARTCHAR 006F
ENCODING 111
SWIDTH 540 0
DWIDTH 9 0
BBX 9 9 0 0
BITMAP
3C00
6600
C380
C380
C380
C380
C380
6600
3C00
ENDCHAR
STARTCHAR 0070
ENCODING 112
SWIDTH 540 0
DWIDTH 9 0
BBX 7 11 0 -2
BITMAP
D8
EC
C6
C6
C6
C6
C6
EC
D8
C0
C0
ENDCHAR
STARTCHAR 0071
ENCODING 113
SWIDTH 540 0
DWIDTH 9 0
BBX 7 11 0 -2
BITMAP
3A
6E
C6
C6
C6
C6
C6
6E
3A
06
06
ENDCHAR
STARTCHAR 0072
ENCODING 114
SWIDTH 540 0
DWIDTH 9 0
BBX 6 9 1 0
BITMAP
DC
E0
C0
C0
C0
C0
C0
C0
C0
ENDCHAR
STARTCHAR 0073
ENCODING 115
SWIDTH 540 0
DWIDTH 9 0
BBX 7 9 0 0
BITMAP
78
CC
C0
70
1C
06
06
C6
7C
ENDCHAR
STARTCHAR 0074
ENCODING 116
SWIDTH 540 0
DWIDTH 9 0
BBX 5 11 1 0
BITMAP
60
60
F8
60
60
60
60
60
60
60
38
ENDCHAR
STARTCHAR 0075
ENCODING 117
SWIDTH 540 0
DWIDTH 9 0
BBX 7 9 0 0
BITMAP
C6
C6
C6
C6
C6
C6
C6
CE
7A
ENDCHAR
STARTCHAR 0076
ENCODING 118
SWIDTH 540 0
DWIDTH 9 0
BBX 9 9 0 0
BITMAP
C380
C380
C380
6600
6600
3400
3400
1800
1800
ENDCHAR
STARTCHAR 0077
ENCODING 119
SWIDTH 540 0
DWIDTH 9 0
BBX 9 9 0 0
BITMAP
D380
D380
D380
6A00
6A00
6A00
3400
3400
3400
ENDCHAR
STARTCHAR 0078
ENCODING 120
SWIDTH 540 0
DWIDTH 9 0
BBX 9 8 0 0
BITMAP
C380
6600
3400
1800
1800
3400
6600
C380
ENDCHAR
STARTCHAR 0079
ENCODING 121
SWIDTH 540 0
DWIDTH 9 0
BBX 9 11 0 -2
BITMAP
C380
C380
6600
6600
3400
3400
1800
1800
3000
3000
6000
ENDCHAR
STARTCHAR 007A
ENCODING 122
SWIDTH 540 0
DWIDTH 9 0
BBX 7 8 0 0
BITMAP
FE
06
0C
18
30
60
C0
FE
ENDCHAR
STARTCHAR 007B
ENCODING 123
SWIDTH 540 0
DWIDTH 9 0
BBX 5 14 1 0
BITMAP
38
38
60
60
60
60
60
C0
60
60
60
60
60
38
ENDCHAR
STARTCHAR 007C
ENCODING 124
SWIDTH 540 0
DWIDTH 9 0
BBX 2 12 2 0
BITMAP
C0
C0
C0
C0
C0
C0
C0
C0
C0
C0
C0
C0
ENDCHAR
STARTCHAR 007D
ENCODING 125
SWIDTH 540 0
DWIDTH 9 0
BBX 5 14 1 0
BITMAP
E0
E0
30
30
30
30
30
18
30
30
30
30
30
E0
ENDCHAR
STARTCHAR 007E
ENCODING 126
SWIDTH 540 0
DWIDTH 9 0
BBX 7 1 0 11
BITMAP
FE
ENDCHAR
STARTCHAR 00A0
ENCODING 160
SWIDTH 1020 0
DWIDTH 17 0
BBX 16 1 0 -2
BITMAP
AAD5
ENDCHAR
STARTCHAR 00A1
ENCODING 161
SWIDTH 1020 0
DWIDTH 17 0
BBX 5 14 6 0
BITMAP
F8
F8
F8
00
00
70
70
70
70
70
70
70
70
70
ENDCHAR
STARTCHAR 00A4
ENCODING 164
SWIDTH 1020 0
DWIDTH 17 0
BBX 14 12 1 0
BITMAP
C00C
6018
37D0
1860
3030
3030
3030
3030
1860
37D0
6018
C00C
ENDCHAR
STARTCHAR 00A6
ENCODING 166
SWIDTH 1020 0
DWIDTH 17 0
BBX 3 15 7 -1
BITMAP
E0
E0
E0
E0
E0
E0
E0
00
00
E0
E0
E0
E0
E0
E0
ENDCHAR
STARTCHAR 00A7
ENCODING 167
SWIDTH 1020 0
DWIDTH 17 0
BBX 9 14 4 0
BITMAP
7F00
7F00
C180
C000
7C00
6F00
C180
C180
7B00
1F00
0180
C180
C180
7F00
ENDCHAR
STARTCHAR 00A8
ENCODING 168
SWIDTH 1020 0
DWIDTH 17 0
BBX 8 3 4 12
BITMAP
EF
EF
EF
ENDCHAR
STARTCHAR 00A9
ENCODING 169
SWIDTH 1020 0
DWIDTH 17 0
BBX 17 16 0 -1
BITMAP
07F000
1C1C00
1C1C00
300600
63E300
663300
CC0180
CC0180
CC0180
CC0180
CC0180
661B00
63F300
300600
1C1C00
07F000
ENDCHAR
STARTCHAR 00AA
ENCODING 170
SWIDTH 1020 0
DWIDTH 17 0
BBX 8 8 4 7
BITMAP
3E
63
63
03
7F
C3
CF
7D
ENDCHAR
STARTCHAR 00AB
ENCODING 171
SWIDTH 1020 0
DWIDTH 17 0
BBX 10 7 6 1
BITMAP
0CC0
3980
7300
E600
7300
3980
0CC0
ENDCHAR
STARTCHAR 00AD
ENCODING 173
SWIDTH 1020 0
DWIDTH 17 0
BBX 9 1 0 6
BITMAP
FF80
ENDCHAR
STARTCHAR 00AE
ENCODING 174
SWIDTH 1020 0
DWIDTH 17 0
BBX 17 16 0 -1
BITMAP
07F000
1C1C00
1C1C00
300600
67F300
661B00
C61980
C61980
C7F180
C6E180
C63180
661B00
661B00
300600
1C1C00
07F000
ENDCHAR
STARTCHAR 00AF
ENCODING 175
SWIDTH 1020 0
DWIDTH 17 0
BBX 10 1 3 11
BITMAP
FFC0
ENDCHAR
STARTCHAR 00B0
ENCODING 176
SWIDTH 1020 0
DWIDTH 17 0
BBX 5 5 0 9
BITMAP
70
70
D8
D8
70
ENDCHAR
STARTCHAR 00B1
ENCODING 177
SWIDTH 1020 0
DWIDTH 17 0
BBX 14 12 1 0
BITMAP
0700
0700
0700
0700
FFFC
0700
0700
0700
0700
0000
0000
FFFC
ENDCHAR
STARTCHAR 00B2
ENCODING 178
SWIDTH 1020 0
DWIDTH 17 0
BBX 7 8 4 7
BITMAP
7C
CE
CE
0E
1C
38
60
FE
ENDCHAR
STARTCHAR 00B3
ENCODING 179
SWIDTH 1020 0
DWIDTH 17 0
BBX 7 8 5 7
BITMAP
7C
C6
C6
06
7C
06
C6
7C
ENDCHAR
STARTCHAR 00B4
ENCODING 180
SWIDTH 1020 0
DWIDTH 17 0
BBX 6 3 5 12
BITMAP
3C
F0
F0
ENDCHAR
STARTCHAR 00B6
ENCODING 182
SWIDTH 1020 0
DWIDTH 17 0
BBX 10 15 2 -1
BITMAP
3FC0
3FC0
7EC0
FEC0
FEC0
FEC0
7EC0
3EC0
0EC0
0EC0
0EC0
0EC0
0EC0
0EC0
0EC0
ENDCHAR
STARTCHAR 00B7
ENCODING 183
SWIDTH 1020 0
DWIDTH 17 0
BBX 6 4 5 5
BITMAP
78
FC
FC
78
ENDCHAR
STARTCHAR 00B8
ENCODING 184
SWIDTH 1020 0
DWIDTH 17 0
BBX 6 5 6 -2
BITMAP
70
78
0C
EC
78
ENDCHAR
STARTCHAR 00B9
ENCODING 185
SWIDTH 1020 0
DWIDTH 17 0
BBX 4 8 6 7
BITMAP
70
F0
F0
70
70
70
70
70
ENDCHAR
STARTCHAR 00BA
ENCODING 186
SWIDTH 1020 0
DWIDTH 17 0
BBX 9 8 3 7
BITMAP
3E00
6700
6700
C180
C180
C180
6700
3E00
ENDCHAR
STARTCHAR 00BB
ENCODING 187
SWIDTH 1020 0
DWIDTH 17 0
BBX 10 7 6 1
BITMAP
E600
7300
3980
0CC0
3980
7300
E600
ENDCHAR
STARTCHAR 00BC
ENCODING 188
SWIDTH 1020 0
DWIDTH 17 0
BBX 13 16 2 -1
BITMAP
0700
0F00
0F00
0700
0700
0700
0700
0000
FFF8
0380
0780
0E80
1B80
3FE0
0380
0380
ENDCHAR
STARTCHAR 00BD
ENCODING 189
SWIDTH 1020 0
DWIDTH 17 0
BBX 13 16 2 -1
BITMAP
0700
0F00
0F00
0700
0700
0700
0700
0000
FFF8
0000
0F80
18C0
0380
0700
0E00
1FC0
ENDCHAR
STARTCHAR 00BE
ENCODING 190
SWIDTH 1020 0
DWIDTH 17 0
BBX 13 16 2 -1
BITMAP
0F80
18C0
18C0
0780
00C0
18C0
0F80
0000
FFF8
0380
0780
0E80
1B80
3FE0
0380
0380
ENDCHAR
STARTCHAR 00BF
ENCODING 191
SWIDTH 1020 0
DWIDTH 17 0
BBX 10 14 3 0
BITMAP
1F00
1F00
1F00
0000
0000
0E00
0E00
0E00
3C00
6000
C0C0
C0C0
6180
3F00
ENDCHAR
STARTCHAR 00C0
ENCODING 192
SWIDTH 1020 0
DWIDTH 17 0
BBX 13 15 2 0
BITMAP
0F00
0700
0700
0380
0700
0E80
0E80
18C0
18C0
3FE0
3060
6030
6030
C018
C018
ENDCHAR
STARTCHAR 00C1
ENCODING 193
SWIDTH 1020 0
DWIDTH 17 0
BBX 13 15 2 0
BITMAP
0780
0700
0700
0E00
0700
0E80
0E80
18C0
18C0
3FE0
3060
6030
6030
C018
C018
ENDCHAR
STARTCHAR 00C2
ENCODING 194
SWIDTH 1020 0
DWIDTH 17 0
BBX 13 15 2 0
BITMAP
0700
0E80
0E80
18C0
0700
0E80
0E80
18C0
18C0
3FE0
3060
6030
6030
C018
C018
ENDCHAR
STARTCHAR 00C3
ENCODING 195
SWIDTH 1020 0
DWIDTH 17 0
BBX 13 15 2 0
BITMAP
1F60
33C0
33C0
0000
0700
0E80
0E80
18C0
18C0
3FE0
3060
6030
6030
C018
C018
ENDCHAR
STARTCHAR 00C4
ENCODING 196
SWIDTH 1020 0
DWIDTH 17 0
BBX 13 15 2 0
BITMAP
1EC0
1EC0
1EC0
0000
0700
0E80
0E80
18C0
18C0
3FE0
3060
6030
6030
C018
C018
ENDCHAR
STARTCHAR 00C5
ENCODING 197
SWIDTH 1020 0
DWIDTH 17 0
BBX 13 15 2 0
BITMAP
0F80
18C0
18C0
0F80
0700
0E80
0E80
18C0
18C0
3FE0
3060
6030
6030
C018
C018
ENDCHAR
STARTCHAR 00C6
ENCODING 198
SWIDTH 1020 0
DWIDTH 17 0
BBX 14 14 1 0
BITMAP
07F8
07F8
0780
0D80
0D80
1B80
1B80
33F0
3380
3F80
6380
6380
C380
C3FC
ENDCHAR
STARTCHAR 00C7
ENCODING 199
SWIDTH 1020 0
DWIDTH 17 0
BBX 13 16 2 -2
BITMAP
0FC0
0FC0
3870
6018
6000
C000
C000
C000
C000
C000
6018
6018
3870
0FC0
0380
1F80
ENDCHAR
STARTCHAR 00C8
ENCODING 200
SWIDTH 1020 0
DWIDTH 17 0
BBX 11 15 3 0
BITMAP
3C00
1C00
1C00
0E00
FFC0
C000
C000
C000
C000
FF00
C000
C000
C000
C000
FFE0
ENDCHAR
STARTCHAR 00C9
ENCODING 201
SWIDTH 1020 0
DWIDTH 17 0
BBX 11 15 3 0
BITMAP
0F00
0E00
0E00
1C00
FFC0
C000
C000
C000
C000
FF00
C000
C000
C000
C000
FFE0
ENDCHAR
STARTCHAR 00CA
ENCODING 202
SWIDTH 1020 0
DWIDTH 17 0
BBX 11 15 3 0
BITMAP
1C00
3600
3600
0000
FFC0
C000
C000
C000
C000
FF00
C000
C000
C000
C000
FFE0
ENDCHAR
STARTCHAR 00CB
ENCODING 203
SWIDTH 1020 0
DWIDTH 17 0
BBX 11 15 3 0
BITMAP
7780
7780
7780
0000
FFC0
C000
C000
C000
C000
FF00
C000
C000
C000
C000
FFE0
ENDCHAR
STARTCHAR 00CC
ENCODING 204
SWIDTH 1020 0
DWIDTH 17 0
BBX 5 15 5 0
BITMAP
F0
70
70
38
70
70
70
70
70
70
70
70
70
70
70
ENDCHAR
STARTCHAR 00CD
ENCODING 205
SWIDTH 1020 0
DWIDTH 17 0
BBX 5 15 5 0
BITMAP
78
70
70
C0
70
70
70
70
70
70
70
70
70
70
70
ENDCHAR
STARTCHAR 00CE
ENCODING 206
SWIDTH 1020 0
DWIDTH 17 0
BBX 7 15 4 0
BITMAP
38
6C
6C
CE
38
38
38
38
38
38
38
38
38
38
38
ENDCHAR
STARTCHAR 00CF
ENCODING 207
SWIDTH 1020 0
DWIDTH 17 0
BBX 7 15 4 0
BITMAP
EE
EE
EE
00
38
38
38
38
38
38
38
38
38
38
38
ENDCHAR
STARTCHAR 00D0
ENCODING 208
SWIDTH 1020 0
DWIDTH 17 0
BBX 14 14 1 0
BITMAP
3FC0
3FC0
3070
3018
3018
300C
300C
FC0C
300C
300C
3018
3018
3070
3FC0
ENDCHAR
STARTCHAR 00D1
ENCODING 209
SWIDTH 1020 0
DWIDTH 17 0
BBX 12 15 2 0
BITMAP
1EC0
3780
3780
C030
E030
E030
D030
D830
CE30
C730
C3B0
C0D0
C070
C070
C030
ENDCHAR
STARTCHAR 00D2
ENCODING 210
SWIDTH 1020 0
DWIDTH 17 0
BBX 13 15 2 0
BITMAP
0F00
0700
0700
0380
0F80
38E0
6030
6030
C018
C018
C018
6030
6030
38E0
0F80
ENDCHAR
STARTCHAR 00D3
ENCODING 211
SWIDTH 1020 0
DWIDTH 17 0
BBX 13 15 2 0
BITMAP
0780
0700
0700
0E00
0F80
38E0
6030
6030
C018
C018
C018
6030
6030
38E0
0F80
ENDCHAR
STARTCHAR 00D4
ENCODING 212
SWIDTH 1020 0
DWIDTH 17 0
BBX 13 15 2 0
BITMAP
0700
0E80
0E80
18C0
0F80
38E0
6030
6030
C018
C018
C018
6030
6030
38E0
0F80
ENDCHAR
STARTCHAR 00D5
ENCODING 213
SWIDTH 1020 0
DWIDTH 17 0
BBX 13 15 2 0
BITMAP
0F60
1BC0
1BC0
0000
0F80
38E0
6030
6030
C018
C018
C018
6030
6030
38E0
0F80
ENDCHAR
STARTCHAR 00D6
ENCODING 214
SWIDTH 1020 0
DWIDTH 17 0
BBX 13 15 2 0
BITMAP
1EC0
1EC0
1EC0
0000
0F80
38E0
6030
6030
C018
C018
C018
6030
6030
38E0
0F80
ENDCHAR
STARTCHAR 00D7
ENCODING 215
SWIDTH 1020 0
DWIDTH 17 0
BBX 12 10 2 1
BITMAP
C030
6060
30C0
1B80
0F00
0F00
1B80
30C0
6060
C030
ENDCHAR
STARTCHAR 00D8
ENCODING 216
SWIDTH 1020 0
DWIDTH 17 0
BBX 15 14 1 0
BITMAP
0FC6
0FC6
3874
6018
6034
C06C
C1CC
C38C
C70C
CC0C
6818
3018
6870
CFC0
ENDCHAR
STARTCHAR 00D9
ENCODING 217
SWIDTH 1020 0
DWIDTH 17 0
BBX 11 15 3 0
BITMAP
1E00
0E00
0E00
0700
C060
C060
C060
C060
C060
C060
C060
C060
C060
60C0
3F80
ENDCHAR
STARTCHAR 00DA
ENCODING 218
SWIDTH 1020 0
DWIDTH 17 0
BBX 11 15 3 0
BITMAP
0F00
0E00
0E00
1C00
C060
C060
C060
C060
C060
C060
C060
C060
C060
60C0
3F80
ENDCHAR
STARTCHAR 00DB
ENCODING 219
SWIDTH 1020 0
DWIDTH 17 0
BBX 11 15 3 0
BITMAP
0E00
1D00
1D00
3180
C060
C060
C060
C060
C060
C060
C060
C060
C060
60C0
3F80
ENDCHAR
STARTCHAR 00DC
ENCODING 220
SWIDTH 1020 0
DWIDTH 17 0
BBX 11 15 3 0
BITMAP
3D80
3D80
3D80
0000
C060
C060
C060
C060
C060
C060
C060
C060
C060
60C0
3F80
ENDCHAR
STARTCHAR 00DD
ENCODING 221
SWIDTH 1020 0
DWIDTH 17 0
BBX 11 15 3 0
BITMAP
0F00
0E00
0E00
1C00
C060
60C0
3180
3180
1D00
1D00
0E00
0E00
0E00
0E00
0E00
ENDCHAR
STARTCHAR 00DE
ENCODING 222
SWIDTH 1020 0
DWIDTH 17 0
BBX 11 14 4 0
BITMAP
C000
C000
C000
C000
FF80
C0C0
C060
C060
C060
C0C0
FF80
C000
C000
C000
ENDCHAR
STARTCHAR 00DF
ENCODING 223
SWIDTH 1020 0
DWIDTH 17 0
BBX 10 14 3 0
BITMAP
1F00
1F00
3180
60C0
60C0
6180
6F00
6180
60C0
60C0
60C0
60C0
DD80
CF00
ENDCHAR
STARTCHAR 00E0
ENCODING 224
SWIDTH 1020 0
DWIDTH 17 0
BBX 10 14 4 0
BITMAP
3C00
3C00
1C00
0E00
0000
7F00
C180
0180
3F80
6180
C180
C180
C380
7EC0
ENDCHAR
STARTCHAR 00E1
ENCODING 225
SWIDTH 1020 0
DWIDTH 17 0
BBX 10 14 4 0
BITMAP
1E00
1E00
1C00
3800
0000
7F00
C180
0180
3F80
6180
C180
C180
C380
7EC0
ENDCHAR
STARTCHAR 00E2
ENCODING 226
SWIDTH 1020 0
DWIDTH 17 0
BBX 10 14 4 0
BITMAP
1C00
1C00
3A00
6300
0000
7F00
C180
0180
3F80
6180
C180
C180
C380
7EC0
ENDCHAR
STARTCHAR 00E3
ENCODING 227
SWIDTH 1020 0
DWIDTH 17 0
BBX 10 12 4 0
BITMAP
7CC0
CF80
0000
7F00
C180
0180
3F80
6180
C180
C180
C380
7EC0
ENDCHAR
STARTCHAR 00E4
ENCODING 228
SWIDTH 1020 0
DWIDTH 17 0
BBX 10 12 4 0
BITMAP
E380
E380
0000
7F00
C180
0180
3F80
6180
C180
C180
C380
7EC0
ENDCHAR
STARTCHAR 00E5
ENCODING 229
SWIDTH 1020 0
DWIDTH 17 0
BBX 10 14 4 0
BITMAP
3E00
3E00
6300
3E00
0000
7F00
C180
0180
3F80
6180
C180
C180
C380
7EC0
ENDCHAR
STARTCHAR 00E6
ENCODING 230
SWIDTH 1020 0
DWIDTH 17 0
BBX 15 8 1 0
BITMAP
3F78
63CC
0386
3FFE
6380
C380
C7C6
7DBC
ENDCHAR
STARTCHAR 00E7
ENCODING 231
SWIDTH 1020 0
DWIDTH 17 0
BBX 9 10 4 -2
BITMAP
3F00
6180
C000
C000
C000
C000
6180
3F00
0E00
3E00
ENDCHAR
STARTCHAR 00E8
ENCODING 232
SWIDTH 1020 0
DWIDTH 17 0
BBX 9 12 4 0
BITMAP
3C00
1C00
0E00
0000
3E00
6300
C180
FF80
C000
C000
6180
3F00
ENDCHAR
STARTCHAR 00E9
ENCODING 233
SWIDTH 1020 0
DWIDTH 17 0
BBX 9 12 4 0
BITMAP
1E00
1C00
3800
0000
3E00
6300
C180
FF80
C000
C000
6180
3F00
ENDCHAR
STARTCHAR 00EA
ENCODING 234
SWIDTH 1020 0
DWIDTH 17 0
BBX 9 12 3 0
BITMAP
1C00
3600
6700
0000
3E00
6700
C180
FF80
C000
C000
6180
3F00
ENDCHAR
STARTCHAR 00EB
ENCODING 235
SWIDTH 1020 0
DWIDTH 17 0
BBX 9 11 4 0
BITMAP
7B00
7B00
0000
3E00
6300
C180
FF80
C000
C000
6180
3F00
ENDCHAR
STARTCHAR 00EC
ENCODING 236
SWIDTH 1020 0
DWIDTH 17 0
BBX 5 12 5 0
BITMAP
F0
70
38
00
38
38
38
38
38
38
38
38
ENDCHAR
STARTCHAR 00ED
ENCODING 237
SWIDTH 1020 0
DWIDTH 17 0
BBX 5 12 6 0
BITMAP
78
70
E0
00
70
70
70
70
70
70
70
70
ENDCHAR
STARTCHAR 00EE
ENCODING 238
SWIDTH 1020 0
DWIDTH 17 0
BBX 7 12 5 0
BITMAP
38
74
C6
00
38
38
38
38
38
38
38
38
ENDCHAR
STARTCHAR 00EF
ENCODING 239
SWIDTH 1020 0
DWIDTH 17 0
BBX 7 11 5 0
BITMAP
F6
F6
00
38
38
38
38
38
38
38
38
ENDCHAR
STARTCHAR 00F0
ENCODING 240
SWIDTH 1020 0
DWIDTH 17 0
BBX 13 14 2 0
BITMAP
7878
7878
0FC0
0000
0F80
3B80
00C0
3F40
63C0
C0C0
C0C0
C0C0
6380
3F00
ENDCHAR
STARTCHAR 00F1
ENCODING 241
SWIDTH 1020 0
DWIDTH 17 0
BBX 9 11 4 0
BITMAP
7B00
DE00
0000
DE00
E300
C180
C180
C180
C180
C180
C180
ENDCHAR
STARTCHAR 00F2
ENCODING 242
SWIDTH 1020 0
DWIDTH 17 0
BBX 10 12 3 0
BITMAP
3C00
1C00
0E00
0000
3F00
6180
C0C0
C0C0
C0C0
C0C0
6180
3F00
ENDCHAR
STARTCHAR 00F3
ENCODING 243
SWIDTH 1020 0
DWIDTH 17 0
BBX 10 12 3 0
BITMAP
0F00
0E00
1C00
0000
3F00
6180
C0C0
C0C0
C0C0
C0C0
6180
3F00
ENDCHAR
STARTCHAR 00F4
ENCODING 244
SWIDTH 1020 0
DWIDTH 17 0
BBX 10 12 3 0
BITMAP
1C00
3600
6700
0000
3F00
6180
C0C0
C0C0
C0C0
C0C0
6180
3F00
ENDCHAR
STARTCHAR 00F5
ENCODING 245
SWIDTH 1020 0
DWIDTH 17 0
BBX 10 11 3 0
BITMAP
3D80
6F00
0000
3F00
6180
C0C0
C0C0
C0C0
C0C0
6180
3F00
ENDCHAR
STARTCHAR 00F6
ENCODING 246
SWIDTH 1020 0
DWIDTH 17 0
BBX 10 11 3 0
BITMAP
7780
7780
0000
3F00
6180
C0C0
C0C0
C0C0
C0C0
6180
3F00
ENDCHAR
STARTCHAR 00F7
ENCODING 247
SWIDTH 1020 0
DWIDTH 17 0
BBX 14 9 1 2
BITMAP
0780
0780
0000
0000
FFFC
0000
0000
0780
0780
ENDCHAR
STARTCHAR 00F8
ENCODING 248
SWIDTH 1020 0
DWIDTH 17 0
BBX 10 8 3 0
BITMAP
3F40
6180
C740
CEC0
DCC0
D0C0
6180
DF00
ENDCHAR
STARTCHAR 00F9
ENCODING 249
SWIDTH 1020 0
DWIDTH 17 0
BBX 9 12 4 0
BITMAP
7800
3800
1C00
0000
C180
C180
C180
C180
C180
C180
6380
3E80
ENDCHAR
STARTCHAR 00FA
ENCODING 250
SWIDTH 1020 0
DWIDTH 17 0
BBX 9 12 4 0
BITMAP
1E00
1C00
3800
0000
C180
C180
C180
C180
C180
C180
6380
3E80
ENDCHAR
STARTCHAR 00FB
ENCODING 251
SWIDTH 1020 0
DWIDTH 17 0
BBX 9 12 4 0
BITMAP
1C00
3A00
6300
0000
C180
C180
C180
C180
C180
C180
6380
3E80
ENDCHAR
STARTCHAR 00FC
ENCODING 252
SWIDTH 1020 0
DWIDTH 17 0
BBX 9 11 4 0
BITMAP
7B00
7B00
0000
C180
C180
C180
C180
C180
C180
6380
3E80
ENDCHAR
STARTCHAR 00FD
ENCODING 253
SWIDTH 1020 0
DWIDTH 17 0
BBX 9 14 4 -2
BITMAP
0F00
0E00
1C00
0000
C180
C180
6300
6300
3A00
3A00
1C00
1C00
3800
E000
ENDCHAR
STARTCHAR 00FE
ENCODING 254
SWIDTH 1020 0
DWIDTH 17 0
BBX 10 16 4 -2
BITMAP
C000
C000
C000
C000
C000
C000
DF00
E180
C0C0
C0C0
C0C0
E180
DF00
C000
C000
C000
ENDCHAR
STARTCHAR 00FF
ENCODING 255
SWIDTH 1020 0
DWIDTH 17 0
BBX 9 13 4 -2
BITMAP
7B00
7B00
0000
C180
C180
6300
6300
3A00
3A00
1C00
1C00
3800
E000
ENDCHAR
STARTCHAR 0100
ENCODING 256
SWIDTH 1020 0
DWIDTH 17 0
BBX 13 14 2 0
BITMAP
1FC0
1FC0
0000
0700
0E80
0E80
18C0
18C0
3FE0
3060
6030
6030
C018
C018
ENDCHAR
STARTCHAR 0101
ENCODING 257
SWIDTH 1020 0
DWIDTH 17 0
BBX 9 11 4 0
BITMAP
7F00
0000
3F00
6180
0180
3F80
6180
C180
C180
C380
7E80
ENDCHAR
STARTCHAR 0102
ENCODING 258
SWIDTH 1020 0
DWIDTH 17 0
BBX 13 15 2 0
BITMAP
18C0
0F80
0F80
0000
0700
0E80
0E80
18C0
18C0
3FE0
3060
6030
6030
C018
C018
ENDCHAR
STARTCHAR 0103
ENCODING 259
SWIDTH 1020 0
DWIDTH 17 0
BBX 10 12 3 0
BITMAP
6700
3E00
0000
7F00
C180
0180
3F80
6180
C180
C180
C780
7EC0
ENDCHAR
STARTCHAR 0104
ENCODING 260
SWIDTH 1020 0
DWIDTH 17 0
BBX 16 14 1 -2
BITMAP
0380
0740
0740
0C60
0C60
1830
1830
3FF8
3018
600C
600C
C00E
000C
000F
ENDCHAR
STARTCHAR 0105
ENCODING 261
SWIDTH 1020 0
DWIDTH 17 0
BBX 12 11 3 -2
BITMAP
3F00
6180
0180
3F80
6180
C180
C180
C780
7EC0
00C0
00F0
ENDCHAR
STARTCHAR 0106
ENCODING 262
SWIDTH 1020 0
DWIDTH 17 0
BBX 11 15 3 0
BITMAP
0780
0700
0700
0E00
1F80
30C0
6060
C000
C000
C000
C000
C000
6060
30C0
1F80
ENDCHAR
STARTCHAR 0107
ENCODING 263
SWIDTH 1020 0
DWIDTH 17 0
BBX 9 12 4 0
BITMAP
0F00
0E00
1C00
0000
3F00
6180
C000
C000
C000
C000
6180
3F00
ENDCHAR
STARTCHAR 0108
ENCODING 264
SWIDTH 1020 0
DWIDTH 17 0
BBX 12 15 2 0
BITMAP
0700
0E80
0E80
18C0
1F80
30C0
6060
C000
C000
C000
C000
C000
6030
30E0
1F80
ENDCHAR
STARTCHAR 0109
ENCODING 265
SWIDTH 1020 0
DWIDTH 17 0
BBX 9 12 4 0
BITMAP
1C00
3A00
6300
0000
3F00
6180
C000
C000
C000
C000
6180
3F00
ENDCHAR
STARTCHAR 010C
ENCODING 268
SWIDTH 1020 0
DWIDTH 17 0
BBX 11 15 3 0
BITMAP
3180
1D00
1D00
0E00
1F80
30C0
6060
C000
C000
C000
C000
C000
6060
30C0
1F80
ENDCHAR
STARTCHAR 010D
ENCODING 269
SWIDTH 1020 0
DWIDTH 17 0
BBX 9 12 4 0
BITMAP
6300
3A00
1C00
0000
3F00
6180
C000
C000
C000
C000
6180
3F00
ENDCHAR
STARTCHAR 010E
ENCODING 270
SWIDTH 1020 0
DWIDTH 17 0
BBX 11 15 3 0
BITMAP
6700
3600
3600
1C00
FF00
C180
C0C0
C0C0
C060
C060
C060
C0C0
C0C0
C180
FF00
ENDCHAR
STARTCHAR 010F
ENCODING 271
SWIDTH 1020 0
DWIDTH 17 0
BBX 10 15 3 0
BITMAP
3180
1D00
1D00
0EC0
00C0
00C0
00C0
3F40
61C0
C0C0
C0C0
C0C0
C0C0
61C0
3F40
ENDCHAR
STARTCHAR 0111
ENCODING 273
SWIDTH 1020 0
DWIDTH 17 0
BBX 13 14 2 0
BITMAP
00C0
00C0
00C0
0FF8
00C0
00C0
3F40
63C0
C0C0
C0C0
C0C0
C0C0
63C0
3F40
ENDCHAR
STARTCHAR 0112
ENCODING 274
SWIDTH 1020 0
DWIDTH 17 0
BBX 11 14 3 0
BITMAP
7F00
7F00
0000
0000
FFC0
C000
C000
C000
FF00
C000
C000
C000
C000
FFE0
ENDCHAR
STARTCHAR 0113
ENCODING 275
SWIDTH 1020 0
DWIDTH 17 0
BBX 9 11 4 0
BITMAP
7F00
0000
0000
3E00
6300
C180
FF80
C000
C000
6180
3F00
ENDCHAR
STARTCHAR 0118
ENCODING 280
SWIDTH 1020 0
DWIDTH 17 0
BBX 12 16 3 -2
BITMAP
FFC0
FFC0
C000
C000
C000
C000
C000
FF00
C000
C000
C000
C000
C000
FFE0
00C0
00F0
ENDCHAR
STARTCHAR 0119
ENCODING 281
SWIDTH 1020 0
DWIDTH 17 0
BBX 10 10 4 -2
BITMAP
3E00
6300
C180
FF80
C000
C000
6180
3F00
0300
03C0
ENDCHAR
STARTCHAR 011A
ENCODING 282
SWIDTH 1020 0
DWIDTH 17 0
BBX 11 15 3 0
BITMAP
6700
3600
3600
1C00
FFC0
C000
C000
C000
C000
FF00
C000
C000
C000
C000
FFE0
ENDCHAR
STARTCHAR 011B
ENCODING 283
SWIDTH 1020 0
DWIDTH 17 0
BBX 9 12 4 0
BITMAP
6300
3A00
1C00
0000
3E00
6300
C180
FF80
C000
C000
6180
3F00
ENDCHAR
STARTCHAR 011C
ENCODING 284
SWIDTH 1020 0
DWIDTH 17 0
BBX 13 15 2 0
BITMAP
0700
0E80
0E80
18C0
1FC0
3060
6000
C000
C000
C0F8
C018
6018
6030
38E0
0F80
ENDCHAR
STARTCHAR 011D
ENCODING 285
SWIDTH 1020 0
DWIDTH 17 0
BBX 9 16 4 -2
BITMAP
1C00
1C00
3A00
6300
0000
3E80
6380
C180
C180
C180
6380
3E80
0180
C180
6300
3E00
ENDCHAR
STARTCHAR 0124
ENCODING 292
SWIDTH 1020 0
DWIDTH 17 0
BBX 11 15 3 0
BITMAP
0E00
1D00
1D00
3180
C060
C060
C060
C060
FFE0
C060
C060
C060
C060
C060
C060
ENDCHAR
STARTCHAR 0125
ENCODING 293
SWIDTH 1020 0
DWIDTH 17 0
BBX 9 15 4 0
BITMAP
0E00
1D00
1D00
D980
C000
C000
C000
DE00
E300
C180
C180
C180
C180
C180
C180
ENDCHAR
STARTCHAR 0127
ENCODING 295
SWIDTH 1020 0
DWIDTH 17 0
BBX 11 14 3 0
BITMAP
3000
3000
3000
3000
FE00
3000
3780
3CC0
3060
3060
3060
3060
3060
3060
ENDCHAR
STARTCHAR 012A
ENCODING 298
SWIDTH 1020 0
DWIDTH 17 0
BBX 7 14 4 0
BITMAP
FE
FE
00
00
38
38
38
38
38
38
38
38
38
38
ENDCHAR
STARTCHAR 012B
ENCODING 299
SWIDTH 1020 0
DWIDTH 17 0
BBX 7 11 5 0
BITMAP
FE
00
00
38
38
38
38
38
38
38
38
ENDCHAR
STARTCHAR 0134
ENCODING 308
SWIDTH 1020 0
DWIDTH 17 0
BBX 11 15 3 0
BITMAP
0180
0740
0740
0E60
00C0
00C0
00C0
00C0
00C0
00C0
00C0
00C0
C0C0
6180
3F00
ENDCHAR
STARTCHAR 0135
ENCODING 309
SWIDTH 1020 0
DWIDTH 17 0
BBX 8 14 4 -2
BITMAP
1C
3A
63
00
0E
0E
0E
0E
0E
0E
0E
0E
CE
7C
ENDCHAR
STARTCHAR 0139
ENCODING 313
SWIDTH 1020 0
DWIDTH 17 0
BBX 11 15 4 0
BITMAP
0380
0300
0300
CE00
C000
C000
C000
C000
C000
C000
C000
C000
C000
C000
FFE0
ENDCHAR
STARTCHAR 013A
ENCODING 314
SWIDTH 1020 0
DWIDTH 17 0
BBX 5 15 5 0
BITMAP
78
70
70
C0
70
70
70
70
70
70
70
70
70
70
70
ENDCHAR
STARTCHAR 013D
ENCODING 317
SWIDTH 1020 0
DWIDTH 17 0
BBX 11 15 4 0
BITMAP
3980
DD00
DD00
CE00
C000
C000
C000
C000
C000
C000
C000
C000
C000
C000
FFE0
ENDCHAR
STARTCHAR 013E
ENCODING 318
SWIDTH 1020 0
DWIDTH 17 0
BBX 7 15 5 0
BITMAP
C6
74
74
38
00
38
38
38
38
38
38
38
38
38
38
ENDCHAR
STARTCHAR 0141
ENCODING 321
SWIDTH 1020 0
DWIDTH 17 0
BBX 13 14 2 0
BITMAP
3000
3000
3000
3000
3700
3600
3800
3000
7000
D000
3000
3000
3000
3FF8
ENDCHAR
STARTCHAR 0142
ENCODING 322
SWIDTH 1020 0
DWIDTH 17 0
BBX 7 12 5 0
BITMAP
38
38
38
3A
3C
38
78
D8
38
38
38
38
ENDCHAR
STARTCHAR 0143
ENCODING 323
SWIDTH 1020 0
DWIDTH 17 0
BBX 12 15 2 0
BITMAP
0780
E730
E730
F630
D030
D830
D830
CE30
C730
C3B0
C3B0
C0D0
C070
C070
C030
ENDCHAR
STARTCHAR 0144
ENCODING 324
SWIDTH 1020 0
DWIDTH 17 0
BBX 9 12 4 0
BITMAP
1E00
1C00
3800
0000
DE00
E300
C180
C180
C180
C180
C180
C180
ENDCHAR
STARTCHAR 0147
ENCODING 327
SWIDTH 1020 0
DWIDTH 17 0
BBX 12 15 2 0
BITMAP
18C0
EEB0
EEB0
F730
D030
D830
D830
CE30
C730
C3B0
C3B0
C0D0
C070
C070
C030
ENDCHAR
STARTCHAR 0148
ENCODING 328
SWIDTH 1020 0
DWIDTH 17 0
BBX 9 12 4 0
BITMAP
6300
3A00
1C00
0000
DE00
E300
C180
C180
C180
C180
C180
C180
ENDCHAR
STARTCHAR 014B
ENCODING 331
SWIDTH 1020 0
DWIDTH 17 0
BBX 9 10 4 -2
BITMAP
DE00
E300
C180
C180
C180
C180
C180
C180
1D80
0F00
ENDCHAR
STARTCHAR 014C
ENCODING 332
SWIDTH 1020 0
DWIDTH 17 0
BBX 13 14 2 0
BITMAP
1FC0
1FC0
0000
0F80
38E0
6030
6030
C018
C018
C018
6030
6030
38E0
0F80
ENDCHAR
STARTCHAR 014D
ENCODING 333
SWIDTH 1020 0
DWIDTH 17 0
BBX 10 11 3 0
BITMAP
7F80
0000
0000
3F00
6180
C0C0
C0C0
C0C0
C0C0
6180
3F00
ENDCHAR
STARTCHAR 0150
ENCODING 336
SWIDTH 1020 0
DWIDTH 17 0
BBX 14 15 1 0
BITMAP
07B0
0760
0760
0DC0
0FC0
3870
6018
6018
C00C
C00C
C00C
6018
6018
3870
0FC0
ENDCHAR
STARTCHAR 0151
ENCODING 337
SWIDTH 1020 0
DWIDTH 17 0
BBX 10 12 3 0
BITMAP
1EC0
1D80
3700
0000
3F00
6180
C0C0
C0C0
C0C0
C0C0
6180
3F00
ENDCHAR
STARTCHAR 0152
ENCODING 338
SWIDTH 1020 0
DWIDTH 17 0
BBX 15 14 1 0
BITMAP
3F7E
3F7E
63C0
61C0
C1C0
C1C0
C1C0
C1F8
C1C0
C1C0
C1C0
61C0
63C0
3F7E
ENDCHAR
STARTCHAR 0153
ENCODING 339
SWIDTH 1020 0
DWIDTH 17 0
BBX 15 8 1 0
BITMAP
3C78
67CC
C386
C3FE
C380
C380
67C6
3C7C
ENDCHAR
STARTCHAR 0154
ENCODING 340
SWIDTH 1020 0
DWIDTH 17 0
BBX 11 15 3 0
BITMAP
0F00
0E00
0E00
1C00
FF80
C0C0
C060
C060
C0C0
FF80
C180
C0C0
C0C0
C060
C060
ENDCHAR
STARTCHAR 0155
ENCODING 341
SWIDTH 1020 0
DWIDTH 17 0
BBX 7 12 5 0
BITMAP
3C
38
70
00
DE
F0
C0
C0
C0
C0
C0
C0
ENDCHAR
STARTCHAR 0158
ENCODING 344
SWIDTH 1020 0
DWIDTH 17 0
BBX 11 15 3 0
BITMAP
6700
3600
3600
1C00
FF80
C0C0
C060
C060
C0C0
FF80
C180
C0C0
C0C0
C060
C060
ENDCHAR
STARTCHAR 0159
ENCODING 345
SWIDTH 1020 0
DWIDTH 17 0
BBX 7 12 5 0
BITMAP
C6
74
38
00
DE
F0
C0
C0
C0
C0
C0
C0
ENDCHAR
STARTCHAR 015A
ENCODING 346
SWIDTH 1020 0
DWIDTH 17 0
BBX 12 15 2 0
BITMAP
0780
0700
0700
0E00
3F80
60E0
C030
C000
7000
1F80
00E0
0030
C030
7060
1FC0
ENDCHAR
STARTCHAR 015B
ENCODING 347
SWIDTH 1020 0
DWIDTH 17 0
BBX 8 12 4 0
BITMAP
1E
1C
38
00
7C
CF
C0
78
1E
03
C3
7E
ENDCHAR
STARTCHAR 015C
ENCODING 348
SWIDTH 1020 0
DWIDTH 17 0
BBX 12 15 2 0
BITMAP
0E00
1B00
1B00
3380
3F80
60E0
C030
C000
7000
1F80
00E0
0030
C030
7060
1FC0
ENDCHAR
STARTCHAR 015D
ENCODING 349
SWIDTH 1020 0
DWIDTH 17 0
BBX 9 12 4 0
BITMAP
0E00
1D00
3980
0000
3E00
6380
6000
3C00
0F00
C180
6180
3F00
ENDCHAR
STARTCHAR 015E
ENCODING 350
SWIDTH 1020 0
DWIDTH 17 0
BBX 12 16 2 -2
BITMAP
3F80
3F80
60E0
C030
C000
6000
3E00
07C0
0060
0030
0030
C030
7060
1FC0
0700
1F00
ENDCHAR
STARTCHAR 015F
ENCODING 351
SWIDTH 1020 0
DWIDTH 17 0
BBX 8 10 4 -2
BITMAP
7C
CF
C0
78
1E
03
C3
7E
1C
FC
ENDCHAR
STARTCHAR 0160
ENCODING 352
SWIDTH 1020 0
DWIDTH 17 0
BBX 12 15 2 0
BITMAP
3380
1B00
1B00
0E00
3F80
60E0
C030
C000
7000
1F80
00E0
0030
C030
7060
1FC0
ENDCHAR
STARTCHAR 0161
ENCODING 353
SWIDTH 1020 0
DWIDTH 17 0
BBX 8 12 4 0
BITMAP
63
3A
1C
00
7C
CF
C0
78
1E
03
C3
7E
ENDCHAR
STARTCHAR 0162
ENCODING 354
SWIDTH 1020 0
DWIDTH 17 0
BBX 13 16 2 -2
BITMAP
FFF8
FFF8
0700
0700
0700
0700
0700
0700
0700
0700
0700
0700
0700
0700
0700
1F00
ENDCHAR
STARTCHAR 0163
ENCODING 355
SWIDTH 1020 0
DWIDTH 17 0
BBX 7 13 5 -2
BITMAP
38
38
38
FE
38
38
38
38
38
38
1E
1C
FC
ENDCHAR
STARTCHAR 0164
ENCODING 356
SWIDTH 1020 0
DWIDTH 17 0
BBX 13 15 2 0
BITMAP
18C0
0E80
0E80
0700
FFF8
0700
0700
0700
0700
0700
0700
0700
0700
0700
0700
ENDCHAR
STARTCHAR 0165
ENCODING 357
SWIDTH 1020 0
DWIDTH 17 0
BBX 7 15 5 0
BITMAP
C6
74
74
38
38
38
FE
38
38
38
38
38
38
38
1E
ENDCHAR
STARTCHAR 016A
ENCODING 362
SWIDTH 1020 0
DWIDTH 17 0
BBX 11 14 3 0
BITMAP
3F80
3F80
0000
C060
C060
C060
C060
C060
C060
C060
C060
C060
60C0
3F80
ENDCHAR
STARTCHAR 016B
ENCODING 363
SWIDTH 1020 0
DWIDTH 17 0
BBX 9 11 4 0
BITMAP
7F00
0000
0000
C180
C180
C180
C180
C180
C180
6380
3E80
ENDCHAR
STARTCHAR 016C
ENCODING 364
SWIDTH 1020 0
DWIDTH 17 0
BBX 11 15 3 0
BITMAP
3180
1F00
1F00
0000
C060
C060
C060
C060
C060
C060
C060
C060
C060
60C0
3F80
ENDCHAR
STARTCHAR 016D
ENCODING 365
SWIDTH 1020 0
DWIDTH 17 0
BBX 9 11 4 0
BITMAP
6300
3E00
0000
C180
C180
C180
C180
C180
C180
6380
3E80
ENDCHAR
STARTCHAR 016E
ENCODING 366
SWIDTH 1020 0
DWIDTH 17 0
BBX 11 15 3 0
BITMAP
1F00
3180
3180
1F00
C060
C060
C060
C060
C060
C060
C060
C060
C060
60C0
3F80
ENDCHAR
STARTCHAR 016F
ENCODING 367
SWIDTH 1020 0
DWIDTH 17 0
BBX 9 12 4 0
BITMAP
3E00
6300
3E00
0000
C180
C180
C180
C180
C180
C180
6380
3E80
ENDCHAR
STARTCHAR 0170
ENCODING 368
SWIDTH 1020 0
DWIDTH 17 0
BBX 11 15 3 0
BITMAP
1EC0
1D80
1D80
3700
C060
C060
C060
C060
C060
C060
C060
C060
C060
60C0
3F80
ENDCHAR
STARTCHAR 0171
ENCODING 369
SWIDTH 1020 0
DWIDTH 17 0
BBX 9 12 4 0
BITMAP
7B00
6E00
DC00
0000
C180
C180
C180
C180
C180
C180
6380
3E80
ENDCHAR
STARTCHAR 0179
ENCODING 377
SWIDTH 1020 0
DWIDTH 17 0
BBX 13 15 2 0
BITMAP
03C0
0380
0380
0700
7FF0
0060
00C0
0380
0700
0E00
1800
3000
6000
C000
FFF8
ENDCHAR
STARTCHAR 017A
ENCODING 378
SWIDTH 1020 0
DWIDTH 17 0
BBX 10 12 3 0
BITMAP
0F00
0E00
1C00
0000
FFC0
0180
0700
0E00
1C00
3000
6000
FFC0
ENDCHAR
STARTCHAR 017B
ENCODING 379
SWIDTH 1020 0
DWIDTH 17 0
BBX 13 15 2 0
BITMAP
0780
0780
0780
0000
7FF0
0060
00C0
0380
0700
0E00
1800
3000
6000
C000
FFF8
ENDCHAR
STARTCHAR 017C
ENCODING 380
SWIDTH 1020 0
DWIDTH 17 0
BBX 10 11 3 0
BITMAP
1E00
1E00
0000
FFC0
0180
0700
0E00
1C00
3000
6000
FFC0
ENDCHAR
STARTCHAR 017D
ENCODING 381
SWIDTH 1020 0
DWIDTH 17 0
BBX 13 15 2 0
BITMAP
18C0
0E80
0E80
0700
7FF0
0060
00C0
0380
0700
0E00
1800
3000
6000
C000
FFF8
ENDCHAR
STARTCHAR 017E
ENCODING 382
SWIDTH 1020 0
DWIDTH 17 0
BBX 10 12 3 0
BITMAP
3180
1D00
0E00
0000
FFC0
0180
0700
0E00
1C00
3000
6000
FFC0
ENDCHAR
STARTCHAR 0193
ENCODING 403
SWIDTH 1020 0
DWIDTH 17 0
BBX 16 14 1 0
BITMAP
0FEF
0FEF
383B
6000
6000
C000
C000
C000
C07C
C00C
600C
6018
3870
0FC0
ENDCHAR
STARTCHAR 01C2
ENCODING 450
SWIDTH 1020 0
DWIDTH 17 0
BBX 9 14 4 0
BITMAP
1C00
1C00
1C00
1C00
1C00
FF80
1C00
1C00
1C00
FF80
1C00
1C00
1C00
1C00
ENDCHAR
STARTCHAR 01CD
ENCODING 461
SWIDTH 1020 0
DWIDTH 17 0
BBX 13 15 2 0
BITMAP
18C0
0E80
0E80
0700
0700
0E80
0E80
18C0
18C0
3060
3FE0
6030
6030
C018
C018
ENDCHAR
STARTCHAR 01CE
ENCODING 462
SWIDTH 1020 0
DWIDTH 17 0
BBX 10 14 4 0
BITMAP
6300
6300
3A00
1C00
0000
7F00
C180
0180
3F80
6180
C180
C180
C380
7EC0
ENDCHAR
STARTCHAR 01D0
ENCODING 464
SWIDTH 1020 0
DWIDTH 17 0
BBX 7 12 5 0
BITMAP
C6
74
38
00
38
38
38
38
38
38
38
38
ENDCHAR
STARTCHAR 01D1
ENCODING 465
SWIDTH 1020 0
DWIDTH 17 0
BBX 13 15 2 0
BITMAP
18C0
0E80
0E80
0700
0F80
38E0
6030
6030
C018
C018
C018
6030
6030
38E0
0F80
ENDCHAR
STARTCHAR 01D2
ENCODING 466
SWIDTH 1020 0
DWIDTH 17 0
BBX 10 12 3 0
BITMAP
6700
3600
1C00
0000
3F00
6180
C0C0
C0C0
C0C0
C0C0
6180
3F00
ENDCHAR
STARTCHAR 01D4
ENCODING 468
SWIDTH 1020 0
DWIDTH 17 0
BBX 9 12 4 0
BITMAP
6300
3A00
1C00
0000
C180
C180
C180
C180
C180
C180
6380
3E80
ENDCHAR
STARTCHAR 01D6
ENCODING 470
SWIDTH 1020 0
DWIDTH 17 0
BBX 9 14 4 0
BITMAP
7F00
7F00
0000
7B00
7B00
0000
C180
C180
C180
C180
C180
C180
6380
3E80
ENDCHAR
STARTCHAR 01D8
ENCODING 472
SWIDTH 1020 0
DWIDTH 17 0
BBX 9 15 4 0
BITMAP
0F00
0E00
0E00
1C00
7B00
7B00
0000
C180
C180
C180
C180
C180
C180
6380
3E80
ENDCHAR
STARTCHAR 01DA
ENCODING 474
SWIDTH 1020 0
DWIDTH 17 0
BBX 9 15 4 0
BITMAP
6300
3A00
3A00
1C00
7B00
7B00
0000
C180
C180
C180
C180
C180
C180
6380
3E80
ENDCHAR
STARTCHAR 01DC
ENCODING 476
SWIDTH 1020 0
DWIDTH 17 0
BBX 9 15 4 0
BITMAP
7800
3800
3800
1C00
7B00
7B00
0000
C180
C180
C180
C180
C180
C180
6380
3E80
ENDCHAR
STARTCHAR 01F8
ENCODING 504
SWIDTH 1020 0
DWIDTH 17 0
BBX 12 15 2 0
BITMAP
0F00
E730
E730
F3B0
D030
D830
D830
CE30
C730
C3B0
C3B0
C0D0
C070
C070
C030
ENDCHAR
STARTCHAR 01F9
ENCODING 505
SWIDTH 1020 0
DWIDTH 17 0
BBX 9 12 4 0
BITMAP
3C00
1C00
0E00
0000
DE00
E300
C180
C180
C180
C180
C180
C180
ENDCHAR
STARTCHAR 01FD
ENCODING 509
SWIDTH 1020 0
DWIDTH 17 0
BBX 15 14 1 0
BITMAP
03C0
03C0
0380
0700
0000
0000
3F78
63CC
0386
3FFE
6380
C380
C7C6
7DBC
ENDCHAR
STARTCHAR 0250
ENCODING 592
SWIDTH 1020 0
DWIDTH 17 0
BBX 9 9 4 -1
BITMAP
DF00
E180
C180
C180
C300
FE00
C000
C180
7F00
ENDCHAR
STARTCHAR 0251
ENCODING 593
SWIDTH 1020 0
DWIDTH 17 0
BBX 10 8 3 0
BITMAP
3F40
61C0
C0C0
C0C0
C0C0
C0C0
61C0
3F40
ENDCHAR
STARTCHAR 0252
ENCODING 594
SWIDTH 1020 0
DWIDTH 17 0
BBX 10 8 4 0
BITMAP
DF00
E180
C0C0
C0C0
C0C0
C0C0
E180
DF00
ENDCHAR
STARTCHAR 0253
ENCODING 595
SWIDTH 1020 0
DWIDTH 17 0
BBX 9 14 4 0
BITMAP
3F00
3F00
6180
C000
C000
C000
DE00
E300
C180
C180
C180
C180
E300
DE00
ENDCHAR
STARTCHAR 0254
ENCODING 596
SWIDTH 1020 0
DWIDTH 17 0
BBX 9 8 4 0
BITMAP
7E00
C300
0180
0180
0180
C180
6300
3E00
ENDCHAR
STARTCHAR 0255
ENCODING 597
SWIDTH 1020 0
DWIDTH 17 0
BBX 10 10 3 -2
BITMAP
3F80
60C0
C000
C000
C180
C740
6EC0
3F80
1C00
3000
ENDCHAR
STARTCHAR 0256
ENCODING 598
SWIDTH 1020 0
DWIDTH 17 0
BBX 13 14 3 -2
BITMAP
00C0
00C0
00C0
00C0
3F40
61C0
C0C0
C0C0
C0C0
C0C0
61C0
3F40
00D8
0070
ENDCHAR
STARTCHAR 0257
ENCODING 599
SWIDTH 1020 0
DWIDTH 17 0
BBX 12 14 3 0
BITMAP
00E0
00E0
01B0
0180
0180
0180
3E80
6780
C180
C180
C180
C180
6780
3E80
ENDCHAR
STARTCHAR 0258
ENCODING 600
SWIDTH 1020 0
DWIDTH 17 0
BBX 9 8 4 0
BITMAP
3E00
6300
C180
FF80
0180
0180
C300
7E00
ENDCHAR
STARTCHAR 0259
ENCODING 601
SWIDTH 1020 0
DWIDTH 17 0
BBX 9 8 4 0
BITMAP
7E00
C300
0180
0180
FF80
C180
6300
3E00
ENDCHAR
STARTCHAR 025A
ENCODING 602
SWIDTH 1020 0
DWIDTH 17 0
BBX 14 8 3 0
BITMAP
7F00
C1B0
07F0
1ED0
70DC
C0C0
6180
3F00
ENDCHAR
STARTCHAR 025C
ENCODING 604
SWIDTH 1020 0
DWIDTH 17 0
BBX 9 8 4 0
BITMAP
7F00
C180
0180
3F00
0180
C180
6300
3E00
ENDCHAR
STARTCHAR 025E
ENCODING 606
SWIDTH 1020 0
DWIDTH 17 0
BBX 9 8 4 0
BITMAP
3F00
6180
C180
DF00
C180
C180
6300
3E00
ENDCHAR
STARTCHAR 025F
ENCODING 607
SWIDTH 1020 0
DWIDTH 17 0
BBX 9 10 3 -2
BITMAP
0E00
0E00
0E00
0E00
0E00
0E00
3F80
0E00
CE00
7C00
ENDCHAR
STARTCHAR 0260
ENCODING 608
SWIDTH 1020 0
DWIDTH 17 0
BBX 12 13 4 -2
BITMAP
00E0
01B0
3E80
6380
C180
C180
C180
6380
3E80
0180
C180
6300
3E00
ENDCHAR
STARTCHAR 0261
ENCODING 609
SWIDTH 1020 0
DWIDTH 17 0
BBX 9 11 4 -2
BITMAP
3E80
6380
C180
C180
C180
6380
3E80
0180
C180
6300
3E00
ENDCHAR
STARTCHAR 0264
ENCODING 612
SWIDTH 1020 0
DWIDTH 17 0
BBX 11 9 2 0
BITMAP
F3E0
60C0
3380
3380
1B00
0E00
1B00
1B00
0E00
ENDCHAR
STARTCHAR 0265
ENCODING 613
SWIDTH 1020 0
DWIDTH 17 0
BBX 9 11 4 -2
BITMAP
C180
C180
C180
C180
C180
C180
6380
3E80
0180
0180
0180
ENDCHAR
STARTCHAR 0266
ENCODING 614
SWIDTH 1020 0
DWIDTH 17 0
BBX 9 14 4 0
BITMAP
3F00
3F00
6180
C000
C000
C000
DE00
E300
C180
C180
C180
C180
C180
C180
ENDCHAR
STARTCHAR 0267
ENCODING 615
SWIDTH 1020 0
DWIDTH 17 0
BBX 9 16 4 -2
BITMAP
3F00
3F00
6180
C000
C000
C000
DE00
E300
C180
C180
C180
C180
C180
C180
3B00
1E00
ENDCHAR
STARTCHAR 0268
ENCODING 616
SWIDTH 1020 0
DWIDTH 17 0
BBX 7 12 5 0
BITMAP
7C
7C
00
00
38
38
38
FE
38
38
38
38
ENDCHAR
STARTCHAR 026C
ENCODING 620
SWIDTH 1020 0
DWIDTH 17 0
BBX 12 14 3 0
BITMAP
0E00
0E00
0E00
0E00
0E00
7600
DE00
CE00
CE00
7FF0
0E00
0E00
0E00
0E00
ENDCHAR
STARTCHAR 026D
ENCODING 621
SWIDTH 1020 0
DWIDTH 17 0
BBX 6 16 7 -2
BITMAP
E0
E0
E0
E0
E0
E0
E0
E0
E0
E0
E0
E0
E0
E0
EC
78
ENDCHAR
STARTCHAR 026E
ENCODING 622
SWIDTH 1020 0
DWIDTH 17 0
BBX 10 16 4 -2
BITMAP
C000
C000
C000
C000
C000
C000
FFC0
C180
CF00
DC00
DF00
C180
C0C0
00C0
6180
3F00
ENDCHAR
STARTCHAR 026F
ENCODING 623
SWIDTH 1020 0
DWIDTH 17 0
BBX 13 8 2 0
BITMAP
C718
C718
C718
C718
C718
C718
CF38
7BE8
ENDCHAR
STARTCHAR 0270
ENCODING 624
SWIDTH 1020 0
DWIDTH 17 0
BBX 14 10 2 -2
BITMAP
C718
C718
C718
C718
C718
C718
CF38
7BE8
0018
001C
ENDCHAR
STARTCHAR 0271
ENCODING 625
SWIDTH 1020 0
DWIDTH 17 0
BBX 13 10 2 -2
BITMAP
DEF0
E798
C718
C718
C718
C718
C718
C718
0068
0070
ENDCHAR
STARTCHAR 0272
ENCODING 626
SWIDTH 1020 0
DWIDTH 17 0
BBX 13 10 1 -2
BITMAP
0DE0
0F30
0C18
0C18
0C18
0C18
0C18
0C18
D800
7000
ENDCHAR
STARTCHAR 0273
ENCODING 627
SWIDTH 1020 0
DWIDTH 17 0
BBX 12 10 3 -2
BITMAP
DE00
E700
C180
C180
C180
C180
C180
C180
01B0
00E0
ENDCHAR
STARTCHAR 0275
ENCODING 629
SWIDTH 1020 0
DWIDTH 17 0
BBX 10 8 4 0
BITMAP
3F00
6180
C0C0
FFC0
C0C0
C0C0
6180
3F00
ENDCHAR
STARTCHAR 0279
ENCODING 633
SWIDTH 1020 0
DWIDTH 17 0
BBX 8 8 3 0
BITMAP
07
07
07
07
07
07
DF
77
ENDCHAR
STARTCHAR 027A
ENCODING 634
SWIDTH 1020 0
DWIDTH 17 0
BBX 8 14 3 0
BITMAP
07
07
07
07
07
07
07
07
07
07
07
07
DF
77
ENDCHAR
STARTCHAR 027B
ENCODING 635
SWIDTH 1020 0
DWIDTH 17 0
BBX 11 10 3 -2
BITMAP
0700
0700
0700
0700
0700
0700
DF00
7700
0760
01C0
ENDCHAR
STARTCHAR 027D
ENCODING 637
SWIDTH 1020 0
DWIDTH 17 0
BBX 8 10 5 -2
BITMAP
DE
FB
C0
C0
C0
C0
C0
C0
DC
78
ENDCHAR
STARTCHAR 027E
ENCODING 638
SWIDTH 1020 0
DWIDTH 17 0
BBX 8 8 4 0
BITMAP
1E
3B
3B
38
38
38
38
FE
ENDCHAR
STARTCHAR 0281
ENCODING 641
SWIDTH 1020 0
DWIDTH 17 0
BBX 10 9 4 0
BITMAP
C1C0
C340
CE00
DE00
E300
C180
C180
E300
DE00
ENDCHAR
STARTCHAR 0282
ENCODING 642
SWIDTH 1020 0
DWIDTH 17 0
BBX 8 10 5 -2
BITMAP
7C
C7
C0
78
1E
03
C3
FE
C0
7C
ENDCHAR
STARTCHAR 0283
ENCODING 643
SWIDTH 1020 0
DWIDTH 17 0
BBX 9 17 4 -2
BITMAP
0F00
1D80
1D80
1C00
1C00
1C00
1C00
1C00
1C00
1C00
1C00
1C00
1C00
1C00
1C00
DC00
7800
ENDCHAR
STARTCHAR 0284
ENCODING 644
SWIDTH 1020 0
DWIDTH 17 0
BBX 11 13 2 -2
BITMAP
03C0
0760
0E00
0E00
0E00
0E00
0E00
0E00
7FC0
0E00
0E00
D800
7000
ENDCHAR
STARTCHAR 0288
ENCODING 648
SWIDTH 1020 0
DWIDTH 17 0
BBX 8 13 5 -2
BITMAP
38
38
FE
38
38
38
38
38
38
38
38
38
1F
ENDCHAR
STARTCHAR 0289
ENCODING 649
SWIDTH 1020 0
DWIDTH 17 0
BBX 13 8 2 0
BITMAP
3060
3060
3060
FFF8
3060
3060
18C0
0F80
ENDCHAR
STARTCHAR 028A
ENCODING 650
SWIDTH 1020 0
DWIDTH 17 0
BBX 12 8 2 0
BITMAP
FBF0
30C0
6060
6060
6060
6060
30C0
1F80
ENDCHAR
STARTCHAR 028B
ENCODING 651
SWIDTH 1020 0
DWIDTH 17 0
BBX 11 8 2 0
BITMAP
E3E0
3060
3060
3060
3060
30C0
18C0
0F80
ENDCHAR
STARTCHAR 028C
ENCODING 652
SWIDTH 1020 0
DWIDTH 17 0
BBX 9 8 4 0
BITMAP
1C00
1C00
3A00
3A00
6300
6300
C180
C180
ENDCHAR
STARTCHAR 028D
ENCODING 653
SWIDTH 1020 0
DWIDTH 17 0
BBX 11 8 3 0
BITMAP
3180
3180
6D40
6D40
6D40
CE60
CE60
CE60
ENDCHAR
STARTCHAR 028E
ENCODING 654
SWIDTH 1020 0
DWIDTH 17 0
BBX 9 10 4 0
BITMAP
0380
0E00
1C00
1C00
3A00
3A00
6300
6300
C180
C180
ENDCHAR
STARTCHAR 0290
ENCODING 656
SWIDTH 1020 0
DWIDTH 17 0
BBX 13 10 3 -2
BITMAP
FFC0
0180
0700
0E00
1C00
3000
6000
FFC0
00D8
0070
ENDCHAR
STARTCHAR 0291
ENCODING 657
SWIDTH 1020 0
DWIDTH 17 0
BBX 10 10 3 -2
BITMAP
7F80
0180
0700
0E00
1D80
3740
6EC0
FF80
1C00
3000
ENDCHAR
STARTCHAR 0292
ENCODING 658
SWIDTH 1020 0
DWIDTH 17 0
BBX 10 10 3 -2
BITMAP
FF80
0700
0E00
1C00
7F00
0180
00C0
00C0
C180
7F00
ENDCHAR
STARTCHAR 0294
ENCODING 660
SWIDTH 1020 0
DWIDTH 17 0
BBX 11 14 3 0
BITMAP
3F80
3F80
60C0
C060
C060
C060
01C0
0F00
0E00
0E00
0E00
0E00
0E00
0E00
ENDCHAR
STARTCHAR 0295
ENCODING 661
SWIDTH 1020 0
DWIDTH 17 0
BBX 11 14 3 0
BITMAP
3F80
3F80
60C0
C060
C060
C060
7000
1E00
0E00
0E00
0E00
0E00
0E00
0E00
ENDCHAR
STARTCHAR 0298
ENCODING 664
SWIDTH 1020 0
DWIDTH 17 0
BBX 12 10 2 0
BITMAP
1F80
30C0
6060
C030
CF30
CF30
C030
6060
30C0
1F80
ENDCHAR
STARTCHAR 029D
ENCODING 669
SWIDTH 1020 0
DWIDTH 17 0
BBX 9 14 4 -2
BITMAP
3E00
3E00
0000
0000
1C00
1C00
1C00
1C00
1C00
1C00
1C00
7F00
DD80
7800
ENDCHAR
STARTCHAR 02A1
ENCODING 673
SWIDTH 1020 0
DWIDTH 17 0
BBX 11 14 3 0
BITMAP
3F80
3F80
60C0
C060
C060
C060
01C0
0F00
0E00
7FC0
0E00
0E00
0E00
0E00
ENDCHAR
STARTCHAR 02A2
ENCODING 674
SWIDTH 1020 0
DWIDTH 17 0
BBX 11 14 3 0
BITMAP
3F80
3F80
60C0
C060
C060
C060
7000
1E00
0E00
7FC0
0E00
0E00
0E00
0E00
ENDCHAR
STARTCHAR 02C7
ENCODING 711
SWIDTH 1020 0
DWIDTH 17 0
BBX 9 5 4 10
BITMAP
C180
6300
6300
3A00
1C00
ENDCHAR
STARTCHAR 02C8
ENCODING 712
SWIDTH 1020 0
DWIDTH 17 0
BBX 3 6 7 9
BITMAP
E0
E0
E0
E0
E0
E0
ENDCHAR
STARTCHAR 02CC
ENCODING 716
SWIDTH 1020 0
DWIDTH 17 0
BBX 3 5 7 -2
BITMAP
E0
E0
E0
E0
E0
ENDCHAR
STARTCHAR 02D0
ENCODING 720
SWIDTH 1020 0
DWIDTH 17 0
BBX 7 9 5 0
BITMAP
FE
7C
38
38
00
38
38
7C
FE
ENDCHAR
STARTCHAR 02D1
ENCODING 721
SWIDTH 1020 0
DWIDTH 17 0
BBX 7 4 5 5
BITMAP
FE
7C
38
38
ENDCHAR
STARTCHAR 02D8
ENCODING 728
SWIDTH 1020 0
DWIDTH 17 0
BBX 9 5 4 10
BITMAP
C180
C180
C180
6300
3E00
ENDCHAR
STARTCHAR 02D9
ENCODING 729
SWIDTH 1020 0
DWIDTH 17 0
BBX 4 3 6 11
BITMAP
F0
F0
F0
ENDCHAR
STARTCHAR 02DB
ENCODING 731
SWIDTH 1020 0
DWIDTH 17 0
BBX 5 5 8 -1
BITMAP
30
E0
E0
38
38
ENDCHAR
STARTCHAR 02DD
ENCODING 733
SWIDTH 1020 0
DWIDTH 17 0
BBX 8 4 5 11
BITMAP
7B
76
76
DC
ENDCHAR
STARTCHAR 02DE
ENCODING 734
SWIDTH 1020 0
DWIDTH 17 0
BBX 9 6 5 3
BITMAP
7000
D800
1C00
1D80
1D00
1E00
ENDCHAR
STARTCHAR 02E5
ENCODING 741
SWIDTH 1020 0
DWIDTH 17 0
BBX 10 17 0 -2
BITMAP
FFC0
01C0
01C0
01C0
01C0
01C0
01C0
01C0
01C0
01C0
01C0
01C0
01C0
01C0
01C0
01C0
01C0
ENDCHAR
STARTCHAR 02E6
ENCODING 742
SWIDTH 1020 0
DWIDTH 17 0
BBX 10 17 0 -2
BITMAP
01C0
01C0
01C0
01C0
01C0
FFC0
01C0
01C0
01C0
01C0
01C0
01C0
01C0
01C0
01C0
01C0
01C0
ENDCHAR
STARTCHAR 02E7
ENCODING 743
SWIDTH 1020 0
DWIDTH 17 0
BBX 10 17 0 -2
BITMAP
01C0
01C0
01C0
01C0
01C0
01C0
01C0
01C0
01C0
FFC0
01C0
01C0
01C0
01C0
01C0
01C0
01C0
ENDCHAR
STARTCHAR 02E8
ENCODING 744
SWIDTH 1020 0
DWIDTH 17 0
BBX 10 17 0 -2
BITMAP
01C0
01C0
01C0
01C0
01C0
01C0
01C0
01C0
01C0
01C0
01C0
01C0
FFC0
01C0
01C0
01C0
01C0
ENDCHAR
STARTCHAR 02E9
ENCODING 745
SWIDTH 1020 0
DWIDTH 17 0
BBX 10 17 0 -2
BITMAP
01C0
01C0
01C0
01C0
01C0
01C0
01C0
01C0
01C0
01C0
01C0
01C0
01C0
01C0
01C0
01C0
FFC0
ENDCHAR
STARTCHAR 0300
ENCODING 768
SWIDTH 1020 0
DWIDTH 17 0
BBX 6 5 5 10
BITMAP
F0
70
70
38
1C
ENDCHAR
STARTCHAR 0301
ENCODING 769
SWIDTH 1020 0
DWIDTH 17 0
BBX 6 5 6 10
BITMAP
3C
38
38
70
E0
ENDCHAR
STARTCHAR 0302
ENCODING 770
SWIDTH 1020 0
DWIDTH 17 0
BBX 9 5 4 10
BITMAP
1C00
3A00
3A00
6300
C180
ENDCHAR
STARTCHAR 0303
ENCODING 771
SWIDTH 1020 0
DWIDTH 17 0
BBX 9 4 4 11
BITMAP
7980
DD80
DD80
CF00
ENDCHAR
STARTCHAR 0304
ENCODING 772
SWIDTH 1020 0
DWIDTH 17 0
BBX 8 2 4 12
BITMAP
FF
FF
ENDCHAR
STARTCHAR 0306
ENCODING 774
SWIDTH 1020 0
DWIDTH 17 0
BBX 9 5 4 10
BITMAP
C180
C180
C180
6300
3E00
ENDCHAR
STARTCHAR 0308
ENCODING 776
SWIDTH 1020 0
DWIDTH 17 0
BBX 8 3 4 11
BITMAP
EF
EF
EF
ENDCHAR
STARTCHAR 030B
ENCODING 779
SWIDTH 1020 0
DWIDTH 17 0
BBX 9 5 3 10
BITMAP
3D80
3700
3700
6E00
DC00
ENDCHAR
STARTCHAR 030C
ENCODING 780
SWIDTH 1020 0
DWIDTH 17 0
BBX 9 5 4 10
BITMAP
C180
6300
6300
3A00
1C00
ENDCHAR
STARTCHAR 030F
ENCODING 783
SWIDTH 1020 0
DWIDTH 17 0
BBX 9 5 4 10
BITMAP
EE00
6E00
6E00
3B00
1D80
ENDCHAR
STARTCHAR 0318
ENCODING 792
SWIDTH 1020 0
DWIDTH 17 0
BBX 6 5 4 -1
BITMAP
1C
1C
FC
1C
1C
ENDCHAR
STARTCHAR 0319
ENCODING 793
SWIDTH 1020 0
DWIDTH 17 0
BBX 6 5 7 -1
BITMAP
E0
E0
FC
E0
E0
ENDCHAR
STARTCHAR 031A
ENCODING 794
SWIDTH 1020 0
DWIDTH 17 0
BBX 6 5 8 9
BITMAP
FC
FC
0C
0C
0C
ENDCHAR
STARTCHAR 031C
ENCODING 796
SWIDTH 1020 0
DWIDTH 17 0
BBX 6 4 5 -2
BITMAP
7C
C0
C0
7C
ENDCHAR
STARTCHAR 031D
ENCODING 797
SWIDTH 1020 0
DWIDTH 17 0
BBX 9 4 4 -1
BITMAP
1C00
1C00
1C00
FF80
ENDCHAR
STARTCHAR 031E
ENCODING 798
SWIDTH 1020 0
DWIDTH 17 0
BBX 9 4 4 -1
BITMAP
FF80
1C00
1C00
1C00
ENDCHAR
STARTCHAR 031F
ENCODING 799
SWIDTH 1020 0
DWIDTH 17 0
BBX 9 5 3 -2
BITMAP
1C00
1C00
FF80
1C00
1C00
ENDCHAR
STARTCHAR 0320
ENCODING 800
SWIDTH 1020 0
DWIDTH 17 0
BBX 9 1 3 0
BITMAP
FF80
ENDCHAR
STARTCHAR 0324
ENCODING 804
SWIDTH 1020 0
DWIDTH 17 0
BBX 8 2 4 -1
BITMAP
EF
EF
ENDCHAR
STARTCHAR 0325
ENCODING 805
SWIDTH 1020 0
DWIDTH 17 0
BBX 6 4 5 -2
BITMAP
78
DC
DC
78
ENDCHAR
STARTCHAR 0329
ENCODING 809
SWIDTH 1020 0
DWIDTH 17 0
BBX 3 4 6 -2
BITMAP
E0
E0
E0
E0
ENDCHAR
STARTCHAR 032A
ENCODING 810
SWIDTH 1020 0
DWIDTH 17 0
BBX 10 3 3 -1
BITMAP
FFC0
C0C0
C0C0
ENDCHAR
STARTCHAR 032C
ENCODING 812
SWIDTH 1020 0
DWIDTH 17 0
BBX 9 4 4 -2
BITMAP
C180
6300
3A00
1C00
ENDCHAR
STARTCHAR 032F
ENCODING 815
SWIDTH 1020 0
DWIDTH 17 0
BBX 9 4 4 -2
BITMAP
3E00
6300
C180
C180
ENDCHAR
STARTCHAR 0330
ENCODING 816
SWIDTH 1020 0
DWIDTH 17 0
BBX 9 3 4 -2
BITMAP
7980
DD80
CF00
ENDCHAR
STARTCHAR 0334
ENCODING 820
SWIDTH 1020 0
DWIDTH 17 0
BBX 9 3 3 4
BITMAP
7180
DD80
CF00
ENDCHAR
STARTCHAR 0339
ENCODING 825
SWIDTH 1020 0
DWIDTH 17 0
BBX 6 4 6 -2
BITMAP
F8
0C
0C
F8
ENDCHAR
STARTCHAR 033A
ENCODING 826
SWIDTH 1020 0
DWIDTH 17 0
BBX 10 3 3 -1
BITMAP
C0C0
C0C0
FFC0
ENDCHAR
STARTCHAR 033B
ENCODING 827
SWIDTH 1020 0
DWIDTH 17 0
BBX 10 4 3 -1
BITMAP
FFC0
C0C0
C0C0
FFC0
ENDCHAR
STARTCHAR 033C
ENCODING 828
SWIDTH 1020 0
DWIDTH 17 0
BBX 10 3 3 -2
BITMAP
7780
DEC0
C0C0
ENDCHAR
STARTCHAR 033D
ENCODING 829
SWIDTH 1020 0
DWIDTH 17 0
BBX 8 6 4 9
BITMAP
C3
6E
6E
3C
6E
C3
ENDCHAR
STARTCHAR 0361
ENCODING 865
SWIDTH 1020 0
DWIDTH 17 0
BBX 14 4 1 10
BITMAP
1FE0
1FE0
7038
C00C
ENDCHAR
STARTCHAR 0391
ENCODING 913
SWIDTH 1020 0
DWIDTH 17 0
BBX 15 14 1 0
BITMAP
0380
0380
0380
0740
0740
0C60
0C60
1830
1830
3FF8
3018
600C
600C
C006
ENDCHAR
STARTCHAR 0392
ENCODING 914
SWIDTH 1020 0
DWIDTH 17 0
BBX 12 14 3 0
BITMAP
FF80
FF80
C0C0
C060
C060
C060
C0C0
FF80
C0E0
C030
C030
C030
C060
FFC0
ENDCHAR
STARTCHAR 0393
ENCODING 915
SWIDTH 1020 0
DWIDTH 17 0
BBX 11 14 3 0
BITMAP
FFE0
FFE0
C000
C000
C000
C000
C000
C000
C000
C000
C000
C000
C000
C000
ENDCHAR
STARTCHAR 0394
ENCODING 916
SWIDTH 1020 0
DWIDTH 17 0
BBX 15 14 1 0
BITMAP
0380
0380
0740
0740
0C60
0C60
1830
1830
3018
3018
600C
600C
C006
FFFE
ENDCHAR
STARTCHAR 0395
ENCODING 917
SWIDTH 1020 0
DWIDTH 17 0
BBX 11 14 3 0
BITMAP
FFE0
FFE0
C000
C000
C000
C000
C000
FF80
C000
C000
C000
C000
C000
FFE0
ENDCHAR
STARTCHAR 0396
ENCODING 918
SWIDTH 1020 0
DWIDTH 17 0
BBX 11 14 3 0
BITMAP
FFC0
FFC0
0180
0700
0700
0E00
0E00
1C00
1C00
3000
3000
6000
6000
FFE0
ENDCHAR
STARTCHAR 0397
ENCODING 919
SWIDTH 1020 0
DWIDTH 17 0
BBX 12 14 2 0
BITMAP
C030
C030
C030
C030
C030
C030
C030
FFF0
C030
C030
C030
C030
C030
C030
ENDCHAR
STARTCHAR 0398
ENCODING 920
SWIDTH 1020 0
DWIDTH 17 0
BBX 14 14 1 0
BITMAP
0FC0
0FC0
3870
6018
6018
C00C
C00C
DFEC
C00C
C00C
6018
6018
3870
0FC0
ENDCHAR
STARTCHAR 0399
ENCODING 921
SWIDTH 1020 0
DWIDTH 17 0
BBX 3 14 6 0
BITMAP
E0
E0
E0
E0
E0
E0
E0
E0
E0
E0
E0
E0
E0
E0
ENDCHAR
STARTCHAR 039A
ENCODING 922
SWIDTH 1020 0
DWIDTH 17 0
BBX 11 14 3 0
BITMAP
C0C0
C0C0
C180
C700
CE00
DC00
D000
F000
DC00
CE00
C700
C180
C0C0
C060
ENDCHAR
STARTCHAR 039B
ENCODING 923
SWIDTH 1020 0
DWIDTH 17 0
BBX 15 14 1 0
BITMAP
0380
0380
0380
0740
0740
0C60
0C60
1830
1830
3018
3018
600C
600C
C006
ENDCHAR
STARTCHAR 039C
ENCODING 924
SWIDTH 1020 0
DWIDTH 17 0
BBX 13 14 2 0
BITMAP
E038
E038
E038
E038
D068
D068
D068
D8D8
D8D8
D8D8
CE98
CE98
C718
C718
ENDCHAR
STARTCHAR 039D
ENCODING 925
SWIDTH 1020 0
DWIDTH 17 0
BBX 12 14 2 0
BITMAP
C030
C030
E030
D030
D830
D830
CE30
C730
C730
C3B0
C0D0
C0D0
C070
C030
ENDCHAR
STARTCHAR 039E
ENCODING 926
SWIDTH 1020 0
DWIDTH 17 0
BBX 14 14 1 0
BITMAP
FFFC
FFFC
0000
0000
0000
0000
0000
7FF8
0000
0000
0000
0000
0000
FFFC
ENDCHAR
STARTCHAR 039F
ENCODING 927
SWIDTH 1020 0
DWIDTH 17 0
BBX 14 14 1 0
BITMAP
0FC0
0FC0
3870
6018
6018
C00C
C00C
C00C
C00C
C00C
6018
6018
3870
0FC0
ENDCHAR
STARTCHAR 03A0
ENCODING 928
SWIDTH 1020 0
DWIDTH 17 0
BBX 14 14 1 0
BITMAP
FFFC
FFFC
3030
3030
3030
3030
3030
3030
3030
3030
3030
3030
3030
3030
ENDCHAR
STARTCHAR 03A1
ENCODING 929
SWIDTH 1020 0
DWIDTH 17 0
BBX 11 14 3 0
BITMAP
FF80
FF80
C0C0
C060
C060
C060
C0C0
FF80
C000
C000
C000
C000
C000
C000
ENDCHAR
STARTCHAR 03A3
ENCODING 931
SWIDTH 1020 0
DWIDTH 17 0
BBX 13 14 1 0
BITMAP
FFF8
FFF8
6000
3000
1800
0C00
0700
0380
0700
0C00
1800
3000
6000
FFF8
ENDCHAR
STARTCHAR 03A4
ENCODING 932
SWIDTH 1020 0
DWIDTH 17 0
BBX 15 14 1 0
BITMAP
FFFE
FFFE
0380
0380
0380
0380
0380
0380
0380
0380
0380
0380
0380
0380
ENDCHAR
STARTCHAR 03A5
ENCODING 933
SWIDTH 1020 0
DWIDTH 17 0
BBX 15 14 1 0
BITMAP
3C78
3C78
674C
C386
0380
0380
0380
0380
0380
0380
0380
0380
0380
0380
ENDCHAR
STARTCHAR 03A6
ENCODING 934
SWIDTH 1020 0
DWIDTH 17 0
BBX 15 14 1 0
BITMAP
0380
0380
0380
0FE0
3BB8
638C
C386
C386
C386
638C
3BB8
0FE0
0380
0380
ENDCHAR
STARTCHAR 03A7
ENCODING 935
SWIDTH 1020 0
DWIDTH 17 0
BBX 13 14 2 0
BITMAP
C018
C018
6030
3060
18C0
18C0
0E80
0700
0E80
18C0
18C0
3060
6030
C018
ENDCHAR
STARTCHAR 03A8
ENCODING 936
SWIDTH 1020 0
DWIDTH 17 0
BBX 17 14 0 0
BITMAP
01C000
01C000
71C700
D9CD80
19CC00
19CC00
19CC00
19CC00
0DD800
0DD800
07F000
01C000
01C000
01C000
ENDCHAR
STARTCHAR 03A9
ENCODING 937
SWIDTH 1020 0
DWIDTH 17 0
BBX 14 14 1 0
BITMAP
0FC0
0FC0
3870
6018
6018
C00C
C00C
C00C
6018
6018
3870
0DC0
0DC0
FDFC
ENDCHAR
STARTCHAR 03B1
ENCODING 945
SWIDTH 1020 0
DWIDTH 17 0
BBX 12 8 2 0
BITMAP
1F30
33B0
63A0
63C0
C380
C780
CEB0
78E0
ENDCHAR
STARTCHAR 03B2
ENCODING 946
SWIDTH 1020 0
DWIDTH 17 0
BBX 12 16 3 -2
BITMAP
07E0
07E0
0E30
1C30
1C30
3030
3060
37C0
60C0
6060
6060
6060
DCC0
CF80
C000
C000
ENDCHAR
STARTCHAR 03B3
ENCODING 947
SWIDTH 1020 0
DWIDTH 17 0
BBX 12 10 2 -2
BITMAP
7870
CEC0
0E80
0F00
0F00
0E00
1800
1800
3000
3000
ENDCHAR
STARTCHAR 03B4
ENCODING 948
SWIDTH 1020 0
DWIDTH 17 0
BBX 12 14 2 0
BITMAP
1F00
1F00
33C0
1860
0E30
0700
1E80
30C0
60C0
C0C0
C0C0
C380
6700
3E00
ENDCHAR
STARTCHAR 03B5
ENCODING 949
SWIDTH 1020 0
DWIDTH 17 0
BBX 10 8 3 0
BITMAP
3F80
60C0
6000
3F00
6000
C000
C180
7F00
ENDCHAR
STARTCHAR 03B6
ENCODING 950
SWIDTH 1020 0
DWIDTH 17 0
BBX 10 16 4 -1
BITMAP
6000
C0C0
C0C0
C180
7D00
0E00
1C00
3800
6000
C000
C000
C000
7E00
0300
0300
3E00
ENDCHAR
STARTCHAR 03B7
ENCODING 951
SWIDTH 1020 0
DWIDTH 17 0
BBX 12 10 2 -2
BITMAP
77C0
DE60
1830
1830
3030
3060
6060
6060
00C0
00C0
ENDCHAR
STARTCHAR 03B8
ENCODING 952
SWIDTH 1020 0
DWIDTH 17 0
BBX 12 14 2 0
BITMAP
07C0
07C0
1E60
3030
6030
6030
FFF0
C030
C030
C060
C060
C0C0
6780
3E00
ENDCHAR
STARTCHAR 03B9
ENCODING 953
SWIDTH 1020 0
DWIDTH 17 0
BBX 10 8 3 0
BITMAP
3000
3000
6000
6000
C000
C0C0
C780
7E00
ENDCHAR
STARTCHAR 03BA
ENCODING 954
SWIDTH 1020 0
DWIDTH 17 0
BBX 13 8 1 0
BITMAP
1870
19D8
1B80
3C00
3700
6700
6730
C3E0
ENDCHAR
STARTCHAR 03BB
ENCODING 955
SWIDTH 1020 0
DWIDTH 17 0
BBX 12 14 2 0
BITMAP
0F00
0F00
0380
0380
0380
0380
0380
0780
0E80
1B80
1B80
30C0
30C0
E070
ENDCHAR
STARTCHAR 03BC
ENCODING 956
SWIDTH 1020 0
DWIDTH 17 0
BBX 13 10 1 -2
BITMAP
1860
1860
1860
31C0
31C0
31C0
33D8
6F70
6000
C000
ENDCHAR
STARTCHAR 03BD
ENCODING 957
SWIDTH 1020 0
DWIDTH 17 0
BBX 12 8 2 0
BITMAP
E030
3030
3060
3060
60C0
6380
6F00
F800
ENDCHAR
STARTCHAR 03BE
ENCODING 958
SWIDTH 1020 0
DWIDTH 17 0
BBX 11 16 2 -2
BITMAP
07E0
07E0
0E00
0700
1FE0
3000
3000
1800
7FE0
C000
C000
7800
0F80
00C0
00C0
7F80
ENDCHAR
STARTCHAR 03BF
ENCODING 959
SWIDTH 1020 0
DWIDTH 17 0
BBX 10 8 3 0
BITMAP
1F00
7180
C0C0
C0C0
C0C0
C0C0
6780
3E00
ENDCHAR
STARTCHAR 03C0
ENCODING 960
SWIDTH 1020 0
DWIDTH 17 0
BBX 12 9 2 0
BITMAP
0030
7FE0
DB80
1B80
1B80
3700
3700
3760
E3C0
ENDCHAR
STARTCHAR 03C1
ENCODING 961
SWIDTH 1020 0
DWIDTH 17 0
BBX 11 10 3 -2
BITMAP
0F80
1CC0
3060
3060
6060
6060
6CC0
CF80
C000
C000
ENDCHAR
STARTCHAR 03C2
ENCODING 962
SWIDTH 1020 0
DWIDTH 17 0
BBX 11 11 3 -2
BITMAP
1F80
30C0
6060
6060
6060
30C0
1C00
1C00
0E00
EE00
3C00
ENDCHAR
STARTCHAR 03C3
ENCODING 963
SWIDTH 1020 0
DWIDTH 17 0
BBX 11 9 3 0
BITMAP
0060
1FE0
7180
C0C0
C0C0
C0C0
C0C0
6780
3E00
ENDCHAR
STARTCHAR 03C4
ENCODING 964
SWIDTH 1020 0
DWIDTH 17 0
BBX 12 9 2 0
BITMAP
0030
7FE0
CE00
0E00
1800
1800
30C0
3380
1F00
ENDCHAR
STARTCHAR 03C5
ENCODING 965
SWIDTH 1020 0
DWIDTH 17 0
BBX 10 8 3 0
BITMAP
61C0
60C0
60C0
60C0
C180
C180
CF00
7C00
ENDCHAR
STARTCHAR 03C6
ENCODING 966
SWIDTH 1020 0
DWIDTH 17 0
BBX 12 16 2 -2
BITMAP
00C0
00C0
00C0
00C0
0380
0380
1FC0
7760
C730
C730
CE30
6EE0
3F80
1800
1800
3000
ENDCHAR
STARTCHAR 03C7
ENCODING 967
SWIDTH 1020 0
DWIDTH 17 0
BBX 12 10 2 -2
BITMAP
3830
6E60
0EC0
0E80
0F00
0E00
1E00
3600
6760
C3C0
ENDCHAR
STARTCHAR 03C8
ENCODING 968
SWIDTH 1020 0
DWIDTH 17 0
BBX 12 16 2 -2
BITMAP
00C0
00C0
00C0
00C0
0380
0380
73B0
D730
3730
6760
6E60
6EC0
3F80
1800
1800
3000
ENDCHAR
STARTCHAR 03C9
ENCODING 969
SWIDTH 1020 0
DWIDTH 17 0
BBX 14 8 1 0
BITMAP
1818
338C
638C
638C
C70C
C70C
CF18
7BF0
ENDCHAR
STARTCHAR 0401
ENCODING 1025
SWIDTH 1020 0
DWIDTH 17 0
BBX 11 15 3 0
BITMAP
E1C0
E1C0
E1C0
0000
FFE0
C000
C000
C000
C000
FF00
C000
C000
C000
C000
FFE0
ENDCHAR
STARTCHAR 0410
ENCODING 1040
SWIDTH 1020 0
DWIDTH 17 0
BBX 15 12 1 0
BITMAP
0380
0740
0740
0C60
0C60
1830
1830
3FF8
3018
600C
600C
C006
ENDCHAR
STARTCHAR 0411
ENCODING 1041
SWIDTH 1020 0
DWIDTH 17 0
BBX 12 14 3 0
BITMAP
FFE0
FFE0
C000
C000
C000
C000
C000
FFC0
C060
C030
C030
C030
C060
FFC0
ENDCHAR
STARTCHAR 0412
ENCODING 1042
SWIDTH 1020 0
DWIDTH 17 0
BBX 12 14 3 0
BITMAP
FF80
FF80
C0C0
C060
C060
C060
C0C0
FF80
C0E0
C030
C030
C030
C060
FFC0
ENDCHAR
STARTCHAR 0413
ENCODING 1043
SWIDTH 1020 0
DWIDTH 17 0
BBX 11 14 3 0
BITMAP
FFE0
FFE0
C000
C000
C000
C000
C000
C000
C000
C000
C000
C000
C000
C000
ENDCHAR
STARTCHAR 0414
ENCODING 1044
SWIDTH 1020 0
DWIDTH 17 0
BBX 14 16 1 -2
BITMAP
0FF0
0FF0
0C30
0C30
0C30
0C30
0C30
0C30
0C30
0C30
1830
1830
3030
FFFC
C00C
C00C
ENDCHAR
STARTCHAR 0415
ENCODING 1045
SWIDTH 1020 0
DWIDTH 17 0
BBX 11 14 3 0
BITMAP
FFE0
FFE0
C000
C000
C000
C000
FF00
C000
C000
C000
C000
C000
C000
FFE0
ENDCHAR
STARTCHAR 0416
ENCODING 1046
SWIDTH 1020 0
DWIDTH 17 0
BBX 17 14 0 0
BITMAP
71C700
71C700
D9CD80
19CC00
19CC00
19CC00
0DD800
0FF800
19CC00
31C600
31C600
61C300
61C300
61C300
ENDCHAR
STARTCHAR 0417
ENCODING 1047
SWIDTH 1020 0
DWIDTH 17 0
BBX 12 14 2 0
BITMAP
3F80
3F80
60E0
C030
0030
0030
0060
1FC0
0060
0030
0030
C030
60E0
3F80
ENDCHAR
STARTCHAR 0418
ENCODING 1048
SWIDTH 1020 0
DWIDTH 17 0
BBX 12 14 2 0
BITMAP
C030
C030
C030
C070
C0D0
C3B0
C730
CE30
D830
D030
E030
E030
C030
C030
ENDCHAR
STARTCHAR 0419
ENCODING 1049
SWIDTH 1020 0
DWIDTH 17 0
BBX 12 15 2 0
BITMAP
6060
30C0
30C0
1F80
C030
C070
C0D0
C3B0
C730
CE30
D830
D030
E030
C030
C030
ENDCHAR
STARTCHAR 041A
ENCODING 1050
SWIDTH 1020 0
DWIDTH 17 0
BBX 13 14 3 0
BITMAP
C0E0
C0E0
C1B0
C700
C700
CE00
DC00
F000
DC00
CE00
C700
C180
C0E0
C038
ENDCHAR
STARTCHAR 041B
ENCODING 1051
SWIDTH 1020 0
DWIDTH 17 0
BBX 13 14 2 0
BITMAP
1FF8
1FF8
1818
1818
1818
1818
1818
1818
1818
3018
3018
6018
6018
C018
ENDCHAR
STARTCHAR 041C
ENCODING 1052
SWIDTH 1020 0
DWIDTH 17 0
BBX 13 14 2 0
BITMAP
E038
E038
E038
E038
D068
D068
D068
D8D8
D8D8
D8D8
CE98
CE98
C718
C718
ENDCHAR
STARTCHAR 041D
ENCODING 1053
SWIDTH 1020 0
DWIDTH 17 0
BBX 12 14 2 0
BITMAP
C030
C030
C030
C030
C030
C030
FFF0
C030
C030
C030
C030
C030
C030
C030
ENDCHAR
STARTCHAR 041E
ENCODING 1054
SWIDTH 1020 0
DWIDTH 17 0
BBX 14 14 1 0
BITMAP
0FC0
0FC0
3870
6018
6018
C00C
C00C
C00C
C00C
C00C
6018
6018
3870
0FC0
ENDCHAR
STARTCHAR 041F
ENCODING 1055
SWIDTH 1020 0
DWIDTH 17 0
BBX 12 14 2 0
BITMAP
FFF0
FFF0
C030
C030
C030
C030
C030
C030
C030
C030
C030
C030
C030
C030
ENDCHAR
STARTCHAR 0420
ENCODING 1056
SWIDTH 1020 0
DWIDTH 17 0
BBX 11 14 3 0
BITMAP
FF80
FF80
C0C0
C060
C060
C060
C0C0
FF80
C000
C000
C000
C000
C000
C000
ENDCHAR
STARTCHAR 0421
ENCODING 1057
SWIDTH 1020 0
DWIDTH 17 0
BBX 13 14 2 0
BITMAP
0FE0
0FE0
3830
6018
6000
C000
C000
C000
C000
C000
6018
6018
3838
0FE0
ENDCHAR
STARTCHAR 0422
ENCODING 1058
SWIDTH 1020 0
DWIDTH 17 0
BBX 15 14 1 0
BITMAP
FFFE
FFFE
0380
0380
0380
0380
0380
0380
0380
0380
0380
0380
0380
0380
ENDCHAR
STARTCHAR 0423
ENCODING 1059
SWIDTH 1020 0
DWIDTH 17 0
BBX 13 14 2 0
BITMAP
C018
C018
6030
6030
3060
3060
18C0
18C0
0E80
0E80
0700
0700
DE00
F000
ENDCHAR
STARTCHAR 0424
ENCODING 1060
SWIDTH 1020 0
DWIDTH 17 0
BBX 15 14 1 0
BITMAP
0380
0380
0380
0FE0
3BB8
638C
C386
C386
C386
638C
3BB8
0FE0
0380
0380
ENDCHAR
STARTCHAR 0425
ENCODING 1061
SWIDTH 1020 0
DWIDTH 17 0
BBX 13 14 2 0
BITMAP
C018
C018
6030
3060
18C0
18C0
0E80
0700
0E80
18C0
18C0
3060
6030
C018
ENDCHAR
STARTCHAR 0426
ENCODING 1062
SWIDTH 1020 0
DWIDTH 17 0
BBX 14 16 1 -2
BITMAP
C030
C030
C030
C030
C030
C030
C030
C030
C030
C030
C030
C030
C030
FFFC
000C
000C
ENDCHAR
STARTCHAR 0427
ENCODING 1063
SWIDTH 1020 0
DWIDTH 17 0
BBX 11 14 3 0
BITMAP
C060
C060
C060
C060
C060
C060
C060
60E0
3FA0
0060
0060
0060
0060
0060
ENDCHAR
STARTCHAR 0428
ENCODING 1064
SWIDTH 1020 0
DWIDTH 17 0
BBX 15 14 1 0
BITMAP
C386
C386
C386
C386
C386
C386
C386
C386
C386
C386
C386
C386
C386
FFFE
ENDCHAR
STARTCHAR 0429
ENCODING 1065
SWIDTH 1020 0
DWIDTH 17 0
BBX 16 16 1 -2
BITMAP
C386
C386
C386
C386
C386
C386
C386
C386
C386
C386
C386
C386
C386
FFFF
0003
0003
ENDCHAR
STARTCHAR 042A
ENCODING 1066
SWIDTH 1020 0
DWIDTH 17 0
BBX 16 14 0 0
BITMAP
FE00
FE00
0600
0600
0600
0600
07FC
0606
0603
0603
0603
0603
0606
07FC
ENDCHAR
STARTCHAR 042B
ENCODING 1067
SWIDTH 1020 0
DWIDTH 17 0
BBX 13 14 2 0
BITMAP
C018
C018
C018
C018
C018
C018
FF18
C398
C0D8
C0D8
C0D8
C0D8
C398
FF18
ENDCHAR
STARTCHAR 042C
ENCODING 1068
SWIDTH 1020 0
DWIDTH 17 0
BBX 11 14 3 0
BITMAP
C000
C000
C000
C000
C000
C000
FF80
C0C0
C060
C060
C060
C060
C0C0
FF80
ENDCHAR
STARTCHAR 042D
ENCODING 1069
SWIDTH 1020 0
DWIDTH 17 0
BBX 13 14 2 0
BITMAP
3F80
3F80
60E0
C030
C030
0018
0018
1FF8
0018
0018
C030
C030
60E0
3F80
ENDCHAR
STARTCHAR 042E
ENCODING 1070
SWIDTH 1020 0
DWIDTH 17 0
BBX 15 14 1 0
BITMAP
C1F0
C1F0
C398
C70C
C70C
CC06
CC06
FC06
CC06
CC06
C70C
C70C
C398
C1F0
ENDCHAR
STARTCHAR 042F
ENCODING 1071
SWIDTH 1020 0
DWIDTH 17 0
BBX 13 14 2 0
BITMAP
1FF8
1FF8
3018
6018
6018
6018
3018
1FF8
0718
0E18
0E18
1818
3018
E018
ENDCHAR
STARTCHAR 0430
ENCODING 1072
SWIDTH 1020 0
DWIDTH 17 0
BBX 9 9 4 0
BITMAP
3F00
6180
0180
3F80
6180
C180
C180
C380
7E80
ENDCHAR
STARTCHAR 0431
ENCODING 1073
SWIDTH 1020 0
DWIDTH 17 0
BBX 10 12 3 0
BITMAP
0F80
3C00
6000
6000
DF00
E180
C0C0
C0C0
C0C0
C0C0
6180
3F00
ENDCHAR
STARTCHAR 0432
ENCODING 1074
SWIDTH 1020 0
DWIDTH 17 0
BBX 9 8 4 0
BITMAP
FF00
C180
C180
FF00
C180
C180
C180
FF00
ENDCHAR
STARTCHAR 0433
ENCODING 1075
SWIDTH 1020 0
DWIDTH 17 0
BBX 9 8 4 0
BITMAP
FF80
C000
C000
C000
C000
C000
C000
C000
ENDCHAR
STARTCHAR 0434
ENCODING 1076
SWIDTH 1020 0
DWIDTH 17 0
BBX 12 10 2 -2
BITMAP
1FC0
18C0
18C0
18C0
18C0
30C0
30C0
FFF0
C030
C030
ENDCHAR
STARTCHAR 0435
ENCODING 1077
SWIDTH 1020 0
DWIDTH 17 0
BBX 9 8 3 0
BITMAP
3E00
6700
C180
FF80
C000
C000
6180
3F00
ENDCHAR
STARTCHAR 0436
ENCODING 1078
SWIDTH 1020 0
DWIDTH 17 0
BBX 13 8 2 0
BITMAP
C718
6730
3760
1FC0
3760
3760
6730
C718
ENDCHAR
STARTCHAR 0437
ENCODING 1079
SWIDTH 1020 0
DWIDTH 17 0
BBX 9 8 4 0
BITMAP
3F00
6180
0180
1F00
0180
0180
C180
7F00
ENDCHAR
STARTCHAR 0438
ENCODING 1080
SWIDTH 1020 0
DWIDTH 17 0
BBX 9 8 4 0
BITMAP
C180
C380
C380
CE80
DD80
D980
E180
E180
ENDCHAR
STARTCHAR 0439
ENCODING 1081
SWIDTH 1020 0
DWIDTH 17 0
BBX 9 11 4 0
BITMAP
6300
3E00
0000
C180
C380
C380
CE80
DD80
D980
E180
E180
ENDCHAR
STARTCHAR 043A
ENCODING 1082
SWIDTH 1020 0
DWIDTH 17 0
BBX 9 8 4 0
BITMAP
CF80
DC00
D800
F800
DC00
CE00
C300
C180
ENDCHAR
STARTCHAR 043B
ENCODING 1083
SWIDTH 1020 0
DWIDTH 17 0
BBX 11 8 3 0
BITMAP
1FE0
1C60
1C60
1C60
1C60
1C60
3060
E060
ENDCHAR
STARTCHAR 043C
ENCODING 1084
SWIDTH 1020 0
DWIDTH 17 0
BBX 11 8 3 0
BITMAP
E0E0
D1A0
D1A0
DD60
DD60
CE60
CE60
C060
ENDCHAR
STARTCHAR 043D
ENCODING 1085
SWIDTH 1020 0
DWIDTH 17 0
BBX 9 8 4 0
BITMAP
C180
C180
C180
FF80
C180
C180
C180
C180
ENDCHAR
STARTCHAR 043E
ENCODING 1086
SWIDTH 1020 0
DWIDTH 17 0
BBX 10 8 4 0
BITMAP
3F00
6180
C0C0
C0C0
C0C0
C0C0
6180
3F00
ENDCHAR
STARTCHAR 043F
ENCODING 1087
SWIDTH 1020 0
DWIDTH 17 0
BBX 9 8 4 0
BITMAP
FF80
C180
C180
C180
C180
C180
C180
C180
ENDCHAR
STARTCHAR 0440
ENCODING 1088
SWIDTH 1020 0
DWIDTH 17 0
BBX 9 10 4 -2
BITMAP
DE00
E300
C180
C180
C180
E300
DE00
C000
C000
C000
ENDCHAR
STARTCHAR 0441
ENCODING 1089
SWIDTH 1020 0
DWIDTH 17 0
BBX 9 8 3 0
BITMAP
3F00
6180
C000
C000
C000
C000
6180
3F00
ENDCHAR
STARTCHAR 0442
ENCODING 1090
SWIDTH 1020 0
DWIDTH 17 0
BBX 9 8 3 0
BITMAP
FF80
1C00
1C00
1C00
1C00
1C00
1C00
1C00
ENDCHAR
STARTCHAR 0443
ENCODING 1091
SWIDTH 1020 0
DWIDTH 17 0
BBX 9 10 4 -2
BITMAP
C180
C180
6300
6300
3A00
3A00
1C00
1C00
3800
E000
ENDCHAR
STARTCHAR 0444
ENCODING 1092
SWIDTH 1020 0
DWIDTH 17 0
BBX 13 13 1 -2
BITMAP
0700
0700
0700
3B60
6FB0
C718
C718
C718
C718
6FB0
3B60
0700
0700
ENDCHAR
STARTCHAR 0445
ENCODING 1093
SWIDTH 1020 0
DWIDTH 17 0
BBX 10 8 3 0
BITMAP
C0C0
6180
3700
1E00
1E00
3700
6180
C0C0
ENDCHAR
STARTCHAR 0446
ENCODING 1094
SWIDTH 1020 0
DWIDTH 17 0
BBX 11 10 3 -2
BITMAP
C180
C180
C180
C180
C180
C180
C180
FFE0
0060
0060
ENDCHAR
STARTCHAR 0447
ENCODING 1095
SWIDTH 1020 0
DWIDTH 17 0
BBX 9 8 4 0
BITMAP
C180
C180
C180
C180
7F80
0180
0180
0180
ENDCHAR
STARTCHAR 0448
ENCODING 1096
SWIDTH 1020 0
DWIDTH 17 0
BBX 13 8 2 0
BITMAP
C718
C718
C718
C718
C718
C718
C718
FFF8
ENDCHAR
STARTCHAR 0449
ENCODING 1097
SWIDTH 1020 0
DWIDTH 17 0
BBX 15 10 1 -2
BITMAP
C718
C718
C718
C718
C718
C718
C718
FFFE
0006
0006
ENDCHAR
STARTCHAR 044A
ENCODING 1098
SWIDTH 1020 0
DWIDTH 17 0
BBX 11 8 3 0
BITMAP
FC00
1C00
1C00
1FC0
1C60
1C60
1C60
1FC0
ENDCHAR
STARTCHAR 044B
ENCODING 1099
SWIDTH 1020 0
DWIDTH 17 0
BBX 11 8 3 0
BITMAP
C060
C060
C060
FE60
C760
C760
C760
FE60
ENDCHAR
STARTCHAR 044C
ENCODING 1100
SWIDTH 1020 0
DWIDTH 17 0
BBX 8 8 4 0
BITMAP
C0
C0
C0
FE
C3
C3
C3
FE
ENDCHAR
STARTCHAR 044D
ENCODING 1101
SWIDTH 1020 0
DWIDTH 17 0
BBX 10 8 3 0
BITMAP
7F00
C180
00C0
1FC0
00C0
00C0
C180
7F00
ENDCHAR
STARTCHAR 044E
ENCODING 1102
SWIDTH 1020 0
DWIDTH 17 0
BBX 12 8 2 0
BITMAP
C7C0
CE60
D830
F830
D830
D830
CE60
C7C0
ENDCHAR
STARTCHAR 044F
ENCODING 1103
SWIDTH 1020 0
DWIDTH 17 0
BBX 9 8 3 0
BITMAP
3F80
6180
6180
6180
3F80
1D80
3180
E180
ENDCHAR
STARTCHAR 0451
ENCODING 1105
SWIDTH 1020 0
DWIDTH 17 0
BBX 9 11 3 0
BITMAP
7700
7700
0000
3E00
6700
C180
FF80
C000
C000
6180
3F00
ENDCHAR
STARTCHAR 1E3E
ENCODING 7742
SWIDTH 1020 0
DWIDTH 17 0
BBX 13 15 2 0
BITMAP
0780
E738
E738
EE38
D068
D068
D068
D8D8
D8D8
D8D8
CE98
CE98
C718
C718
C018
ENDCHAR
STARTCHAR 1E3F
ENCODING 7743
SWIDTH 1020 0
DWIDTH 17 0
BBX 13 12 2 0
BITMAP
0780
0700
0E00
0000
DEF0
E798
C718
C718
C718
C718
C718
C718
ENDCHAR
STARTCHAR 1F70
ENCODING 8048
SWIDTH 1020 0
DWIDTH 17 0
BBX 10 12 3 0
BITMAP
3C00
1C00
0E00
0000
3F40
61C0
C0C0
C0C0
C0C0
C0C0
61C0
3F40
ENDCHAR
STARTCHAR 1F71
ENCODING 8049
SWIDTH 1020 0
DWIDTH 17 0
BBX 10 12 3 0
BITMAP
1E00
1C00
3000
0000
3F40
61C0
C0C0
C0C0
C0C0
C0C0
61C0
3F40
ENDCHAR
STARTCHAR 1F72
ENCODING 8050
SWIDTH 1020 0
DWIDTH 17 0
BBX 10 14 4 0
BITMAP
1E00
1E00
0E00
0300
0000
3F00
6180
C0C0
C000
7F00
C000
C000
60C0
3F80
ENDCHAR
STARTCHAR 1F73
ENCODING 8051
SWIDTH 1020 0
DWIDTH 17 0
BBX 10 14 4 0
BITMAP
0F00
0F00
0E00
1C00
0000
3F00
6180
C0C0
C000
7F00
C000
C000
60C0
3F80
ENDCHAR
STARTCHAR 2000
ENCODING 8192
SWIDTH 1020 0
DWIDTH 17 0
BBX 0 0 0 0
BITMAP
ENDCHAR
STARTCHAR 2001
ENCODING 8193
SWIDTH 1020 0
DWIDTH 17 0
BBX 0 0 0 0
BITMAP
ENDCHAR
STARTCHAR 2002
ENCODING 8194
SWIDTH 1020 0
DWIDTH 17 0
BBX 0 0 0 0
BITMAP
ENDCHAR
STARTCHAR 2003
ENCODING 8195
SWIDTH 1020 0
DWIDTH 17 0
BBX 0 0 0 0
BITMAP
ENDCHAR
STARTCHAR 2004
ENCODING 8196
SWIDTH 1020 0
DWIDTH 17 0
BBX 0 0 0 0
BITMAP
ENDCHAR
STARTCHAR 2005
ENCODING 8197
SWIDTH 1020 0
DWIDTH 17 0
BBX 0 0 0 0
BITMAP
ENDCHAR
STARTCHAR 2006
ENCODING 8198
SWIDTH 1020 0
DWIDTH 17 0
BBX 0 0 0 0
BITMAP
ENDCHAR
STARTCHAR 2007
ENCODING 8199
SWIDTH 1020 0
DWIDTH 17 0
BBX 0 0 0 0
BITMAP
ENDCHAR
STARTCHAR 2008
ENCODING 8200
SWIDTH 1020 0
DWIDTH 17 0
BBX 0 0 0 0
BITMAP
ENDCHAR
STARTCHAR 2009
ENCODING 8201
SWIDTH 1020 0
DWIDTH 17 0
BBX 0 0 0 0
BITMAP
ENDCHAR
STARTCHAR 200A
ENCODING 8202
SWIDTH 1020 0
DWIDTH 17 0
BBX 0 0 0 0
BITMAP
ENDCHAR
STARTCHAR 200B
ENCODING 8203
SWIDTH 540 0
DWIDTH 9 0
BBX 0 0 0 0
BITMAP
ENDCHAR
STARTCHAR 200C
ENCODING 8204
SWIDTH 540 0
DWIDTH 9 0
BBX 0 0 0 0
BITMAP
ENDCHAR
STARTCHAR 200D
ENCODING 8205
SWIDTH 540 0
DWIDTH 9 0
BBX 0 0 0 0
BITMAP
ENDCHAR
STARTCHAR 200E
ENCODING 8206
SWIDTH 540 0
DWIDTH 9 0
BBX 0 0 0 0
BITMAP
ENDCHAR
STARTCHAR 200F
ENCODING 8207
SWIDTH 540 0
DWIDTH 9 0
BBX 0 0 0 0
BITMAP
ENDCHAR
STARTCHAR 2010
ENCODING 8208
SWIDTH 1020 0
DWIDTH 17 0
BBX 8 1 4 6
BITMAP
FF
ENDCHAR
STARTCHAR 2013
ENCODING 8211
SWIDTH 1020 0
DWIDTH 17 0
BBX 8 1 4 6
BITMAP
FF
ENDCHAR
STARTCHAR 2014
ENCODING 8212
SWIDTH 1020 0
DWIDTH 17 0
BBX 17 1 0 6
BITMAP
FFFF80
ENDCHAR
STARTCHAR 2015
ENCODING 8213
SWIDTH 1020 0
DWIDTH 17 0
BBX 17 1 0 6
BITMAP
FFFF80
ENDCHAR
STARTCHAR 2016
ENCODING 8214
SWIDTH 1020 0
DWIDTH 17 0
BBX 7 17 4 -2
BITMAP
CE
CE
CE
CE
CE
CE
CE
CE
CE
CE
CE
CE
CE
CE
CE
CE
CE
ENDCHAR
STARTCHAR 2018
ENCODING 8216
SWIDTH 1020 0
DWIDTH 17 0
BBX 3 5 11 10
BITMAP
60
C0
C0
E0
E0
ENDCHAR
STARTCHAR 2019
ENCODING 8217
SWIDTH 1020 0
DWIDTH 17 0
BBX 3 5 2 10
BITMAP
E0
E0
E0
60
C0
ENDCHAR
STARTCHAR 201C
ENCODING 8220
SWIDTH 1020 0
DWIDTH 17 0
BBX 7 5 8 10
BITMAP
36
EC
EC
F6
F6
ENDCHAR
STARTCHAR 201D
ENCODING 8221
SWIDTH 1020 0
DWIDTH 17 0
BBX 6 5 1 10
BITMAP
EC
EC
EC
6C
D8
ENDCHAR
STARTCHAR 2020
ENCODING 8224
SWIDTH 1020 0
DWIDTH 17 0
BBX 11 16 3 -1
BITMAP
0E00
1F00
1F00
6EC0
FFE0
6EC0
0E00
3F80
1F00
1F00
0E00
0E00
0E00
0E00
0E00
0E00
ENDCHAR
STARTCHAR 2021
ENCODING 8225
SWIDTH 1020 0
DWIDTH 17 0
BBX 11 16 3 -1
BITMAP
0E00
1F00
1F00
6EC0
FFE0
6EC0
1F00
0E00
1F00
6EC0
FFE0
6EC0
0E00
1F00
0E00
0E00
ENDCHAR
STARTCHAR 2022
ENCODING 8226
SWIDTH 1020 0
DWIDTH 17 0
BBX 8 6 4 4
BITMAP
3C
7E
FF
FF
7E
3C
ENDCHAR
STARTCHAR 2025
ENCODING 8229
SWIDTH 1020 0
DWIDTH 17 0
BBX 12 2 2 5
BITMAP
E070
E070
ENDCHAR
STARTCHAR 2026
ENCODING 8230
SWIDTH 1020 0
DWIDTH 17 0
BBX 16 2 0 5
BITMAP
E3C7
E3C7
ENDCHAR
STARTCHAR 2030
ENCODING 8240
SWIDTH 1020 0
DWIDTH 17 0
BBX 16 15 0 -1
BITMAP
70E0
70E0
D8E0
D9C0
DB80
DB80
DA00
7400
0DCE
1AEB
36EB
36EB
66EB
C6EB
C3CE
ENDCHAR
STARTCHAR 2032
ENCODING 8242
SWIDTH 1020 0
DWIDTH 17 0
BBX 4 5 1 9
BITMAP
30
30
60
C0
C0
ENDCHAR
STARTCHAR 2033
ENCODING 8243
SWIDTH 1020 0
DWIDTH 17 0
BBX 9 5 0 9
BITMAP
3380
3380
6600
CC00
CC00
ENDCHAR
STARTCHAR 203B
ENCODING 8251
SWIDTH 1020 0
DWIDTH 17 0
BBX 14 12 1 0
BITMAP
C78C
6798
3030
1860
0DC0
E79C
E79C
0DC0
1860
3030
6798
C78C
ENDCHAR
STARTCHAR 203C
ENCODING 8252
SWIDTH 1020 0
DWIDTH 17 0
BBX 10 14 3 0
BITMAP
6180
6180
6180
6180
6180
6180
6180
6180
6180
6180
0000
0000
E1C0
E1C0
ENDCHAR
STARTCHAR 203E
ENCODING 8254
SWIDTH 1020 0
DWIDTH 17 0
BBX 17 1 0 14
BITMAP
FFFF80
ENDCHAR
STARTCHAR 203F
ENCODING 8255
SWIDTH 1020 0
DWIDTH 17 0
BBX 14 3 1 -1
BITMAP
C00C
7038
1FE0
ENDCHAR
STARTCHAR 2042
ENCODING 8258
SWIDTH 1020 0
DWIDTH 17 0
BBX 17 16 0 -1
BITMAP
01C000
0ED800
0ED800
03E000
01C000
03E000
0ED800
01C000
000000
180C00
EBB580
3C1E00
180C00
3C1E00
EBB580
180C00
ENDCHAR
STARTCHAR 2047
ENCODING 8263
SWIDTH 1020 0
DWIDTH 17 0
BBX 15 14 1 0
BITMAP
7C7C
7C7C
C746
C746
C746
0706
1C1C
3030
3030
3030
0000
0000
7038
7038
ENDCHAR
STARTCHAR 2048
ENCODING 8264
SWIDTH 1020 0
DWIDTH 17 0
BBX 12 14 2 0
BITMAP
7E60
7E60
C760
C760
C760
0760
1E60
3060
3060
3060
0000
0000
7070
7070
ENDCHAR
STARTCHAR 2049
ENCODING 8265
SWIDTH 1020 0
DWIDTH 17 0
BBX 13 14 2 0
BITMAP
63F0
63F0
6718
6718
6718
6018
6070
60C0
60C0
60C0
0000
0000
E0E0
E0E0
ENDCHAR
STARTCHAR 2051
ENCODING 8273
SWIDTH 1020 0
DWIDTH 17 0
BBX 9 16 4 -1
BITMAP
1C00
ED80
ED80
3E00
1C00
3E00
ED80
1C00
0000
1C00
ED80
3E00
1C00
3E00
ED80
1C00
ENDCHAR
STARTCHAR 20AC
ENCODING 8364
SWIDTH 1020 0
DWIDTH 17 0
BBX 15 14 0 0
BITMAP
03F0
03F0
0E1C
1806
1800
3000
FFF8
3000
FFF0
3000
1800
1806
0E1C
03F0
ENDCHAR
STARTCHAR 2103
ENCODING 8451
SWIDTH 1020 0
DWIDTH 17 0
BBX 17 14 0 0
BITMAP
70FC00
70FC00
DBC700
DA0180
760000
0C0000
0C0000
0C0000
0C0000
0C0000
060180
060180
03C700
00FC00
ENDCHAR
STARTCHAR 210F
ENCODING 8463
SWIDTH 1020 0
DWIDTH 17 0
BBX 13 14 2 0
BITMAP
7800
7800
1B80
1E00
3800
F000
37C0
3860
3060
3060
6060
60C0
60D8
60F0
ENDCHAR
STARTCHAR 2113
ENCODING 8467
SWIDTH 1020 0
DWIDTH 17 0
BBX 12 14 2 0
BITMAP
0780
0780
0EC0
18C0
18C0
30C0
30C0
30C0
3380
3380
3730
1E30
3660
E7C0
ENDCHAR
STARTCHAR 2116
ENCODING 8470
SWIDTH 1020 0
DWIDTH 17 0
BBX 17 14 0 0
BITMAP
C60000
C60000
C60000
E60000
E60000
D63800
D6EC00
DAC600
DAC600
DAC600
CEC600
CEC600
C6ED80
C63B80
ENDCHAR
STARTCHAR 2121
ENCODING 8481
SWIDTH 1020 0
DWIDTH 17 0
BBX 17 14 0 0
BITMAP
FDF400
FDF400
338C00
338C00
338C00
338C00
338C00
33F400
338C00
338C00
338C00
338C00
338C00
33F780
ENDCHAR
STARTCHAR 2127
ENCODING 8487
SWIDTH 1020 0
DWIDTH 17 0
BBX 14 14 1 0
BITMAP
FDFC
FDFC
0DC0
0DC0
3870
6018
6018
C00C
C00C
C00C
6018
6018
3870
0FC0
ENDCHAR
STARTCHAR 212B
ENCODING 8491
SWIDTH 1020 0
DWIDTH 17 0
BBX 12 15 2 0
BITMAP
0F00
1B80
1B80
1B80
0F00
0000
0F00
1B80
1B80
30C0
30C0
7FE0
6060
C030
C030
ENDCHAR
STARTCHAR 2135
ENCODING 8501
SWIDTH 1020 0
DWIDTH 17 0
BBX 13 14 1 0
BITMAP
6060
6060
6060
3030
1838
0C68
0760
3FC0
61C0
6060
6030
3030
6018
C018
ENDCHAR
STARTCHAR 2153
ENCODING 8531
SWIDTH 1020 0
DWIDTH 17 0
BBX 13 16 2 -1
BITMAP
0700
0F00
0F00
0700
0700
0700
0700
0000
FFF8
0000
0F80
18C0
0780
00C0
18C0
0F80
ENDCHAR
STARTCHAR 2154
ENCODING 8532
SWIDTH 1020 0
DWIDTH 17 0
BBX 13 16 2 -1
BITMAP
0F80
18C0
18C0
0380
0700
0E00
1FC0
0000
FFF8
0000
0F80
18C0
0780
00C0
18C0
0F80
ENDCHAR
STARTCHAR 2155
ENCODING 8533
SWIDTH 1020 0
DWIDTH 17 0
BBX 14 16 1 -1
BITMAP
0380
0780
0780
0380
0380
0380
0380
0000
FFFC
0000
0FC0
0C00
0FC0
0060
0C60
07C0
ENDCHAR
STARTCHAR 2160
ENCODING 8544
SWIDTH 1020 0
DWIDTH 17 0
BBX 3 14 7 0
BITMAP
E0
E0
E0
E0
E0
E0
E0
E0
E0
E0
E0
E0
E0
E0
ENDCHAR
STARTCHAR 2161
ENCODING 8545
SWIDTH 1020 0
DWIDTH 17 0
BBX 8 14 4 0
BITMAP
C3
C3
C3
C3
C3
C3
C3
C3
C3
C3
C3
C3
C3
C3
ENDCHAR
STARTCHAR 2162
ENCODING 8546
SWIDTH 1020 0
DWIDTH 17 0
BBX 11 14 3 0
BITMAP
CE60
CE60
CE60
CE60
CE60
CE60
CE60
CE60
CE60
CE60
CE60
CE60
CE60
CE60
ENDCHAR
STARTCHAR 2163
ENCODING 8547
SWIDTH 1020 0
DWIDTH 17 0
BBX 12 14 2 0
BITMAP
D830
D830
D830
D830
D830
CE60
CE60
CE60
C740
C740
C740
C380
C380
C380
ENDCHAR
STARTCHAR 2164
ENCODING 8548
SWIDTH 1020 0
DWIDTH 17 0
BBX 11 14 3 0
BITMAP
C060
C060
C060
C060
60C0
60C0
60C0
3180
3180
3180
1D00
1D00
0E00
0E00
ENDCHAR
STARTCHAR 2165
ENCODING 8549
SWIDTH 1020 0
DWIDTH 17 0
BBX 12 14 2 0
BITMAP
C3B0
C3B0
C3B0
C3B0
C3B0
6730
6730
6730
3630
3630
3630
1830
1830
1830
ENDCHAR
STARTCHAR 2166
ENCODING 8550
SWIDTH 1020 0
DWIDTH 17 0
BBX 14 14 1 0
BITMAP
C3AC
C3AC
C3AC
C3AC
C3AC
676C
676C
676C
346C
346C
346C
186C
186C
186C
ENDCHAR
STARTCHAR 2167
ENCODING 8551
SWIDTH 1020 0
DWIDTH 17 0
BBX 17 14 0 0
BITMAP
C3AD80
C3AD80
C3AD80
C3AD80
C3AD80
66ED80
66ED80
66ED80
34ED80
34ED80
34ED80
18ED80
18ED80
18ED80
ENDCHAR
STARTCHAR 2168
ENCODING 8552
SWIDTH 1020 0
DWIDTH 17 0
BBX 14 14 2 0
BITMAP
CE18
CE18
CE18
C730
C730
C3A0
C3A0
C0C0
C3A0
C730
C730
CE18
CE18
D80C
ENDCHAR
STARTCHAR 2169
ENCODING 8553
SWIDTH 1020 0
DWIDTH 17 0
BBX 13 14 2 0
BITMAP
6030
6030
3060
3060
18C0
18C0
0E80
0700
0E80
18C0
18C0
3060
6030
C018
ENDCHAR
STARTCHAR 216A
ENCODING 8554
SWIDTH 1020 0
DWIDTH 17 0
BBX 14 14 1 0
BITMAP
61CC
61CC
61CC
338C
338C
1B0C
1B0C
0C0C
1B0C
338C
338C
61CC
61CC
C06C
ENDCHAR
STARTCHAR 216B
ENCODING 8555
SWIDTH 1020 0
DWIDTH 17 0
BBX 16 14 0 0
BITMAP
61DB
61DB
61DB
339B
339B
1A1B
1A1B
0C1B
1A1B
339B
339B
61DB
61DB
C0EB
ENDCHAR
STARTCHAR 2170
ENCODING 8560
SWIDTH 1020 0
DWIDTH 17 0
BBX 3 12 7 0
BITMAP
E0
E0
00
00
E0
E0
E0
E0
E0
E0
E0
E0
ENDCHAR
STARTCHAR 2171
ENCODING 8561
SWIDTH 1020 0
DWIDTH 17 0
BBX 7 12 5 0
BITMAP
C6
C6
00
00
C6
C6
C6
C6
C6
C6
C6
C6
ENDCHAR
STARTCHAR 2172
ENCODING 8562
SWIDTH 1020 0
DWIDTH 17 0
BBX 11 12 3 0
BITMAP
CE60
CE60
0000
0000
CE60
CE60
CE60
CE60
CE60
CE60
CE60
CE60
ENDCHAR
STARTCHAR 2173
ENCODING 8563
SWIDTH 1020 0
DWIDTH 17 0
BBX 12 12 3 0
BITMAP
C000
C000
0000
0000
DC30
DC30
CE60
CE60
C740
C740
C180
C180
ENDCHAR
STARTCHAR 2174
ENCODING 8564
SWIDTH 1020 0
DWIDTH 17 0
BBX 9 8 4 0
BITMAP
C180
C180
6300
6300
3A00
3A00
1C00
1C00
ENDCHAR
STARTCHAR 2175
ENCODING 8565
SWIDTH 1020 0
DWIDTH 17 0
BBX 12 12 2 0
BITMAP
0030
0030
0000
0000
C3B0
C3B0
6730
6730
3630
3630
1830
1830
ENDCHAR
STARTCHAR 2176
ENCODING 8566
SWIDTH 1020 0
DWIDTH 17 0
BBX 15 12 1 0
BITMAP
0066
0066
0000
0000
C3A6
C3A6
6766
6766
3466
3466
1866
1866
ENDCHAR
STARTCHAR 2177
ENCODING 8567
SWIDTH 1020 0
DWIDTH 17 0
BBX 15 12 1 0
BITMAP
03B6
03B6
0000
0000
CDB6
CDB6
CDB6
6BB6
6BB6
6BB6
33B6
33B6
ENDCHAR
STARTCHAR 2178
ENCODING 8568
SWIDTH 1020 0
DWIDTH 17 0
BBX 13 12 2 0
BITMAP
C000
C000
0000
0000
D830
CE60
C740
C380
C740
CE60
D830
D018
ENDCHAR
STARTCHAR 2179
ENCODING 8569
SWIDTH 1020 0
DWIDTH 17 0
BBX 11 8 3 0
BITMAP
60C0
3180
1D00
0E00
1D00
3180
60C0
C060
ENDCHAR
STARTCHAR 217A
ENCODING 8570
SWIDTH 1020 0
DWIDTH 17 0
BBX 13 12 1 0
BITMAP
0018
0018
0000
0000
61D8
3398
1B18
0C18
1B18
3398
61D8
C068
ENDCHAR
STARTCHAR 217B
ENCODING 8571
SWIDTH 1020 0
DWIDTH 17 0
BBX 16 12 0 0
BITMAP
001B
001B
0000
0000
61DB
339B
1A1B
0C1B
1A1B
339B
61DB
C0EB
ENDCHAR
STARTCHAR 2190
ENCODING 8592
SWIDTH 1020 0
DWIDTH 17 0
BBX 17 5 0 4
BITMAP
1C0000
700000
FFFF80
700000
1C0000
ENDCHAR
STARTCHAR 2191
ENCODING 8593
SWIDTH 1020 0
DWIDTH 17 0
BBX 7 16 5 -1
BITMAP
38
7C
7C
7C
DA
DA
38
38
38
38
38
38
38
38
38
38
ENDCHAR
STARTCHAR 2192
ENCODING 8594
SWIDTH 1020 0
DWIDTH 17 0
BBX 17 5 0 4
BITMAP
001C00
000700
FFFF80
000700
001C00
ENDCHAR
STARTCHAR 2193
ENCODING 8595
SWIDTH 1020 0
DWIDTH 17 0
BBX 7 16 5 -1
BITMAP
38
38
38
38
38
38
38
38
38
38
38
DA
DA
7C
7C
38
ENDCHAR
STARTCHAR 2194
ENCODING 8596
SWIDTH 1020 0
DWIDTH 17 0
BBX 17 5 0 4
BITMAP
300C00
600600
FFFF80
600600
300C00
ENDCHAR
STARTCHAR 2196
ENCODING 8598
SWIDTH 1020 0
DWIDTH 17 0
BBX 14 12 1 0
BITMAP
C000
7C00
7000
6800
6C00
0700
0380
01C0
0060
0030
0018
000C
ENDCHAR
STARTCHAR 2197
ENCODING 8599
SWIDTH 1020 0
DWIDTH 17 0
BBX 14 12 1 0
BITMAP
000C
01F8
0038
0068
01D8
0380
0700
0C00
1800
3000
6000
C000
ENDCHAR
STARTCHAR 2198
ENCODING 8600
SWIDTH 1020 0
DWIDTH 17 0
BBX 14 12 1 0
BITMAP
C000
6000
3000
1800
0C00
0700
0380
01D8
0068
0038
01F8
000C
ENDCHAR
STARTCHAR 2199
ENCODING 8601
SWIDTH 1020 0
DWIDTH 17 0
BBX 14 12 1 0
BITMAP
000C
0018
0030
0060
01C0
0380
0700
6C00
6800
7000
7C00
C000
ENDCHAR
STARTCHAR 21C4
ENCODING 8644
SWIDTH 1020 0
DWIDTH 17 0
BBX 17 11 0 1
BITMAP
000C00
000600
FFFF80
000600
000C00
000000
180000
300000
FFFF80
300000
180000
ENDCHAR
STARTCHAR 21D2
ENCODING 8658
SWIDTH 1020 0
DWIDTH 17 0
BBX 17 9 0 2
BITMAP
001800
000C00
FFFE00
000300
000180
000300
FFFE00
000C00
001800
ENDCHAR
STARTCHAR 21D4
ENCODING 8660
SWIDTH 1020 0
DWIDTH 17 0
BBX 17 9 0 2
BITMAP
0C1800
180C00
3FFE00
600300
C00180
600300
3FFE00
180C00
0C1800
ENDCHAR
STARTCHAR 21E6
ENCODING 8678
SWIDTH 1020 0
DWIDTH 17 0
BBX 17 11 0 1
BITMAP
060000
0E0000
1A0000
37FF80
600180
C00180
600180
37FF80
1A0000
0E0000
060000
ENDCHAR
STARTCHAR 21E7
ENCODING 8679
SWIDTH 1020 0
DWIDTH 17 0
BBX 13 16 2 -1
BITMAP
0700
0E80
0E80
18C0
3060
6030
F8F8
18C0
18C0
18C0
18C0
18C0
18C0
18C0
18C0
1FC0
ENDCHAR
STARTCHAR 21E8
ENCODING 8680
SWIDTH 1020 0
DWIDTH 17 0
BBX 17 11 0 1
BITMAP
003000
003800
003400
FFF600
C00300
C00180
C00300
FFF600
003400
003800
003000
ENDCHAR
STARTCHAR 21E9
ENCODING 8681
SWIDTH 1020 0
DWIDTH 17 0
BBX 13 16 2 -1
BITMAP
1FC0
18C0
18C0
18C0
18C0
18C0
18C0
18C0
18C0
18C0
F8F8
6030
3060
18C0
0E80
0700
ENDCHAR
STARTCHAR 2200
ENCODING 8704
SWIDTH 1020 0
DWIDTH 17 0
BBX 15 15 1 -1
BITMAP
C006
C006
C006
600C
600C
3FF8
3018
1830
1830
0C60
0C60
0740
0740
0380
0380
ENDCHAR
STARTCHAR 2202
ENCODING 8706
SWIDTH 1020 0
DWIDTH 17 0
BBX 11 14 2 0
BITMAP
0F80
0F80
18C0
3060
0060
0060
1F60
33C0
60C0
C0C0
C380
C700
CE00
7800
ENDCHAR
STARTCHAR 2203
ENCODING 8707
SWIDTH 1020 0
DWIDTH 17 0
BBX 11 11 2 1
BITMAP
FFE0
0060
0060
0060
0060
FFE0
0060
0060
0060
0060
FFE0
ENDCHAR
STARTCHAR 2205
ENCODING 8709
SWIDTH 1020 0
DWIDTH 17 0
BBX 14 12 1 0
BITMAP
000C
0FD8
1870
3070
61D8
6398
6718
6C18
3830
3860
6FC0
C000
ENDCHAR
STARTCHAR 2207
ENCODING 8711
SWIDTH 1020 0
DWIDTH 17 0
BBX 16 14 0 0
BITMAP
FFFF
FFFF
6006
7006
300C
380C
1818
1C18
0C30
0E30
06E0
07A0
03C0
03C0
ENDCHAR
STARTCHAR 2208
ENCODING 8712
SWIDTH 1020 0
DWIDTH 17 0
BBX 12 9 2 2
BITMAP
3FF0
6000
C000
C000
FFF0
C000
C000
6000
3FF0
ENDCHAR
STARTCHAR 2209
ENCODING 8713
SWIDTH 1020 0
DWIDTH 17 0
BBX 12 14 2 0
BITMAP
0700
0700
0700
3FF0
6700
C700
C700
FFF0
C700
C700
6700
3FF0
0700
0700
ENDCHAR
STARTCHAR 220B
ENCODING 8715
SWIDTH 1020 0
DWIDTH 17 0
BBX 12 9 2 2
BITMAP
FFC0
0060
0030
0030
FFF0
0030
0030
0060
FFC0
ENDCHAR
STARTCHAR 2212
ENCODING 8722
SWIDTH 1020 0
DWIDTH 17 0
BBX 14 1 1 6
BITMAP
FFFC
ENDCHAR
STARTCHAR 2213
ENCODING 8723
SWIDTH 1020 0
DWIDTH 17 0
BBX 14 12 1 0
BITMAP
FFFC
0000
0000
0700
0700
0700
0700
FFFC
0700
0700
0700
0700
ENDCHAR
STARTCHAR 221A
ENCODING 8730
SWIDTH 1020 0
DWIDTH 17 0
BBX 17 16 0 -1
BITMAP
00FF80
00E000
00E000
01C000
01C000
01C000
01C000
038000
038000
038000
338000
7A0000
DA0000
1E0000
1C0000
0C0000
ENDCHAR
STARTCHAR 221D
ENCODING 8733
SWIDTH 1020 0
DWIDTH 17 0
BBX 14 8 1 2
BITMAP
3C78
674C
C380
C380
C380
C380
674C
3C78
ENDCHAR
STARTCHAR 221E
ENCODING 8734
SWIDTH 1020 0
DWIDTH 17 0
BBX 15 8 1 2
BITMAP
3C78
674C
C386
C386
C386
C386
674C
3C78
ENDCHAR
STARTCHAR 221F
ENCODING 8735
SWIDTH 1020 0
DWIDTH 17 0
BBX 14 14 1 0
BITMAP
C000
C000
C000
C000
C000
C000
C000
C000
C000
C000
C000
C000
C000
FFFC
ENDCHAR
STARTCHAR 2220
ENCODING 8736
SWIDTH 1020 0
DWIDTH 17 0
BBX 14 11 1 1
BITMAP
0018
0030
0060
01C0
0380
0700
0C00
1800
3000
6000
FFFC
ENDCHAR
STARTCHAR 2225
ENCODING 8741
SWIDTH 1020 0
DWIDTH 17 0
BBX 14 17 1 -2
BITMAP
01C0
038C
038C
038C
0718
0718
0C30
0C30
1860
1860
31C0
31C0
6380
6380
C700
C700
0C00
ENDCHAR
STARTCHAR 2226
ENCODING 8742
SWIDTH 1020 0
DWIDTH 17 0
BBX 14 17 1 -2
BITMAP
01C0
038C
038C
038C
6718
3718
1C30
0C30
1B60
1BA0
31C0
31E0
63B0
6398
C700
C700
0C00
ENDCHAR
STARTCHAR 2227
ENCODING 8743
SWIDTH 1020 0
DWIDTH 17 0
BBX 13 12 2 0
BITMAP
0700
0700
0E80
0E80
18C0
18C0
3060
3060
6030
6030
C018
C018
ENDCHAR
STARTCHAR 2228
ENCODING 8744
SWIDTH 1020 0
DWIDTH 17 0
BBX 13 12 2 0
BITMAP
C018
C018
6030
6030
3060
3060
18C0
18C0
0E80
0E80
0700
0700
ENDCHAR
STARTCHAR 2229
ENCODING 8745
SWIDTH 1020 0
DWIDTH 17 0
BBX 12 12 2 0
BITMAP
1F80
30C0
6060
C030
C030
C030
C030
C030
C030
C030
C030
C030
ENDCHAR
STARTCHAR 222A
ENCODING 8746
SWIDTH 1020 0
DWIDTH 17 0
BBX 12 12 2 0
BITMAP
C030
C030
C030
C030
C030
C030
C030
C030
C030
6060
30C0
1F80
ENDCHAR
STARTCHAR 222B
ENCODING 8747
SWIDTH 1020 0
DWIDTH 17 0
BBX 6 16 5 -1
BITMAP
7C
DC
DC
C0
C0
70
70
70
38
38
38
1C
1C
1C
DC
F8
ENDCHAR
STARTCHAR 222C
ENCODING 8748
SWIDTH 1020 0
DWIDTH 17 0
BBX 12 16 2 -1
BITMAP
78F0
DBB0
DBB0
C380
C380
60C0
60C0
60C0
3060
3060
3060
1830
1830
1830
DBB0
F3E0
ENDCHAR
STARTCHAR 222E
ENCODING 8750
SWIDTH 1020 0
DWIDTH 17 0
BBX 8 16 4 -1
BITMAP
3C
6E
6E
60
60
7E
DB
DB
DD
DD
7E
0E
0E
0E
6E
3C
ENDCHAR
STARTCHAR 2234
ENCODING 8756
SWIDTH 1020 0
DWIDTH 17 0
BBX 11 8 3 2
BITMAP
0F00
0F00
0000
0000
0000
0000
E0E0
E0E0
ENDCHAR
STARTCHAR 2235
ENCODING 8757
SWIDTH 1020 0
DWIDTH 17 0
BBX 11 8 3 2
BITMAP
E0E0
E0E0
0000
0000
0000
0000
0F00
0F00
ENDCHAR
STARTCHAR 223D
ENCODING 8765
SWIDTH 1020 0
DWIDTH 17 0
BBX 16 8 0 2
BITMAP
3C3C
60E6
C1C3
C1C3
C383
C383
6606
3C3C
ENDCHAR
STARTCHAR 2243
ENCODING 8771
SWIDTH 1020 0
DWIDTH 17 0
BBX 16 8 0 3
BITMAP
3C03
6783
C1E6
C03C
0000
0000
0000
FFFF
ENDCHAR
STARTCHAR 2245
ENCODING 8773
SWIDTH 1020 0
DWIDTH 17 0
BBX 16 10 0 1
BITMAP
3C03
6783
C1E6
C03C
0000
0000
FFFF
0000
0000
FFFF
ENDCHAR
STARTCHAR 2248
ENCODING 8776
SWIDTH 1020 0
DWIDTH 17 0
BBX 16 8 0 2
BITMAP
3E03
63C3
C0E6
C03C
3E03
6383
C1E6
C03C
ENDCHAR
STARTCHAR 2252
ENCODING 8786
SWIDTH 1020 0
DWIDTH 17 0
BBX 14 11 1 1
BITMAP
7000
7000
0000
FFFC
0000
0000
0000
FFFC
0000
0038
0038
ENDCHAR
STARTCHAR 2260
ENCODING 8800
SWIDTH 1020 0
DWIDTH 17 0
BBX 14 11 1 1
BITMAP
01C0
01C0
0380
FFFC
0380
0700
0700
FFFC
0700
0C00
0C00
ENDCHAR
STARTCHAR 2261
ENCODING 8801
SWIDTH 1020 0
DWIDTH 17 0
BBX 14 9 1 2
BITMAP
FFFC
0000
0000
0000
FFFC
0000
0000
0000
FFFC
ENDCHAR
STARTCHAR 2262
ENCODING 8802
SWIDTH 1020 0
DWIDTH 17 0
BBX 16 16 0 -1
BITMAP
0030
0030
0030
00E0
FFFF
00E0
01C0
01C0
FFFF
0380
0380
0600
FFFF
0600
0C00
0C00
ENDCHAR
STARTCHAR 2266
ENCODING 8806
SWIDTH 1020 0
DWIDTH 17 0
BBX 14 12 1 0
BITMAP
003C
03E0
1F00
F000
1F00
03E0
003C
0000
FFFC
0000
0000
FFFC
ENDCHAR
STARTCHAR 2267
ENCODING 8807
SWIDTH 1020 0
DWIDTH 17 0
BBX 14 12 1 0
BITMAP
F000
1F00
03E0
003C
03E0
1F00
F000
0000
FFFC
0000
0000
FFFC
ENDCHAR
STARTCHAR 226A
ENCODING 8810
SWIDTH 1020 0
DWIDTH 17 0
BBX 15 16 0 -1
BITMAP
01C6
038C
038C
0618
0C30
18E0
31C0
6380
C600
6380
31C0
18E0
0C30
0618
038C
01C6
ENDCHAR
STARTCHAR 226B
ENCODING 8811
SWIDTH 1020 0
DWIDTH 17 0
BBX 15 16 0 -1
BITMAP
C600
6380
6380
31C0
18E0
0C30
0618
038C
01C6
038C
0618
0C30
18E0
31C0
6380
C600
ENDCHAR
STARTCHAR 2276
ENCODING 8822
SWIDTH 1020 0
DWIDTH 17 0
BBX 14 14 1 0
BITMAP
003C
003C
03E0
1F00
F000
1F00
03E0
F03C
1F00
03E0
003C
03E0
1F00
F000
ENDCHAR
STARTCHAR 2277
ENCODING 8823
SWIDTH 1020 0
DWIDTH 17 0
BBX 14 14 1 0
BITMAP
F000
F000
1F00
03E0
003C
03E0
1F00
F03C
03E0
1F00
F000
1F00
03E0
003C
ENDCHAR
STARTCHAR 2282
ENCODING 8834
SWIDTH 1020 0
DWIDTH 17 0
BBX 14 10 1 1
BITMAP
1FFC
3000
6000
C000
C000
C000
C000
6000
3000
1FFC
ENDCHAR
STARTCHAR 2283
ENCODING 8835
SWIDTH 1020 0
DWIDTH 17 0
BBX 14 10 1 1
BITMAP
FFE0
0030
0018
000C
000C
000C
000C
0018
0030
FFE0
ENDCHAR
STARTCHAR 2284
ENCODING 8836
SWIDTH 1020 0
DWIDTH 17 0
BBX 14 12 1 0
BITMAP
0018
1FFC
3030
6060
C060
C1C0
C380
C700
6700
3400
1FFC
1800
ENDCHAR
STARTCHAR 2285
ENCODING 8837
SWIDTH 1020 0
DWIDTH 17 0
BBX 14 12 1 0
BITMAP
0060
FFE0
01D0
0398
038C
070C
0C0C
180C
1818
3030
FFE0
6000
ENDCHAR
STARTCHAR 2286
ENCODING 8838
SWIDTH 1020 0
DWIDTH 17 0
BBX 14 11 1 1
BITMAP
3FFC
6000
C000
C000
C000
C000
6000
3FFC
0000
0000
FFFC
ENDCHAR
STARTCHAR 2287
ENCODING 8839
SWIDTH 1020 0
DWIDTH 17 0
BBX 14 11 1 1
BITMAP
FFF0
0018
000C
000C
000C
000C
0018
FFF0
0000
0000
FFFC
ENDCHAR
STARTCHAR 228A
ENCODING 8842
SWIDTH 1020 0
DWIDTH 17 0
BBX 14 14 1 -2
BITMAP
3FFC
6000
C000
C000
C000
C000
6000
3FFC
01C0
01C0
FFFC
0380
0700
0700
ENDCHAR
STARTCHAR 228B
ENCODING 8843
SWIDTH 1020 0
DWIDTH 17 0
BBX 14 14 1 -2
BITMAP
FFF0
0018
000C
000C
000C
000C
0018
FFF0
01C0
01C0
FFFC
0380
0700
0700
ENDCHAR
STARTCHAR 2295
ENCODING 8853
SWIDTH 1020 0
DWIDTH 17 0
BBX 16 15 0 -1
BITMAP
07E0
07E0
1C38
338C
6386
6386
C383
DFFD
C383
C383
6386
6386
338C
1C38
07E0
ENDCHAR
STARTCHAR 2296
ENCODING 8854
SWIDTH 1020 0
DWIDTH 17 0
BBX 16 15 0 -1
BITMAP
07E0
07E0
1C38
300C
6006
6006
C003
DFFD
C003
C003
6006
6006
300C
1C38
07E0
ENDCHAR
STARTCHAR 2297
ENCODING 8855
SWIDTH 1020 0
DWIDTH 17 0
BBX 16 15 0 -1
BITMAP
07E0
07E0
1C38
300C
681A
6C36
C6E3
C3C3
C3C3
C6E3
6C36
681A
300C
1C38
07E0
ENDCHAR
STARTCHAR 22A5
ENCODING 8869
SWIDTH 1020 0
DWIDTH 17 0
BBX 14 11 1 1
BITMAP
0700
0700
0700
0700
0700
0700
0700
0700
0700
0700
FFFC
ENDCHAR
STARTCHAR 22BF
ENCODING 8895
SWIDTH 1020 0
DWIDTH 17 0
BBX 15 14 0 0
BITMAP
0006
0006
000E
001A
0036
00E6
01C6
0386
0606
0C06
1806
3006
6006
FFFE
ENDCHAR
STARTCHAR 22DA
ENCODING 8922
SWIDTH 1020 0
DWIDTH 17 0
BBX 14 16 1 -1
BITMAP
003C
03E0
03E0
1F00
F000
1F00
03E0
003C
FFFC
F000
1F00
03E0
003C
03E0
1F00
F000
ENDCHAR
STARTCHAR 22DB
ENCODING 8923
SWIDTH 1020 0
DWIDTH 17 0
BBX 14 16 1 -1
BITMAP
F000
1F00
1F00
03E0
003C
03E0
1F00
F000
FFFC
003C
03E0
1F00
F000
1F00
03E0
003C
ENDCHAR
STARTCHAR 2305
ENCODING 8965
SWIDTH 1020 0
DWIDTH 17 0
BBX 14 7 1 2
BITMAP
FFFC
0780
0DC0
1860
3030
6018
C00C
ENDCHAR
STARTCHAR 2306
ENCODING 8966
SWIDTH 1020 0
DWIDTH 17 0
BBX 14 10 1 1
BITMAP
FFFC
0000
0000
FFFC
0780
0DC0
1860
3030
6018
C00C
ENDCHAR
STARTCHAR 2312
ENCODING 8978
SWIDTH 1020 0
DWIDTH 17 0
BBX 17 4 0 11
BITMAP
07F000
3C1E00
3C1E00
E00380
ENDCHAR
STARTCHAR 2318
ENCODING 8984
SWIDTH 1020 0
DWIDTH 17 0
BBX 15 14 1 0
BITMAP
783C
783C
CC66
CC66
CC66
7FFC
0C60
0C60
0C60
7FFC
CC66
CC66
CC66
783C
ENDCHAR
STARTCHAR 23BE
ENCODING 9150
SWIDTH 1020 0
DWIDTH 17 0
BBX 10 15 7 -1
BITMAP
FFC0
FFC0
E000
E000
E000
E000
E000
E000
E000
E000
E000
E000
E000
E000
E000
ENDCHAR
STARTCHAR 23BF
ENCODING 9151
SWIDTH 1020 0
DWIDTH 17 0
BBX 10 15 7 -1
BITMAP
E000
E000
E000
E000
E000
E000
E000
E000
E000
E000
E000
E000
E000
E000
FFC0
ENDCHAR
STARTCHAR 23C0
ENCODING 9152
SWIDTH 1020 0
DWIDTH 17 0
BBX 11 15 3 -1
BITMAP
0E00
0E00
0E00
0E00
3F80
6EC0
CE60
CE60
CE60
CE60
6EC0
3F80
0E00
0E00
0E00
ENDCHAR
STARTCHAR 23C1
ENCODING 9153
SWIDTH 1020 0
DWIDTH 17 0
BBX 15 15 1 -1
BITMAP
FFFE
FFFE
0380
0380
0FE0
1BB0
3398
3398
3398
3398
1BB0
0FE0
0380
0380
0380
ENDCHAR
STARTCHAR 23C2
ENCODING 9154
SWIDTH 1020 0
DWIDTH 17 0
BBX 15 15 1 -1
BITMAP
0380
0380
0380
0380
0FE0
1BB0
3398
3398
3398
3398
1BB0
0FE0
0380
0380
FFFE
ENDCHAR
STARTCHAR 23C3
ENCODING 9155
SWIDTH 1020 0
DWIDTH 17 0
BBX 13 15 2 -1
BITMAP
0700
0700
0700
0700
0F80
1B40
1B40
3760
3760
6730
6730
FFF8
0700
0700
0700
ENDCHAR
STARTCHAR 23C4
ENCODING 9156
SWIDTH 1020 0
DWIDTH 17 0
BBX 15 15 1 -1
BITMAP
FFFE
FFFE
0380
0380
07C0
0DA0
0DA0
1BB0
1BB0
3398
3398
7FFC
0380
0380
0380
ENDCHAR
STARTCHAR 23C5
ENCODING 9157
SWIDTH 1020 0
DWIDTH 17 0
BBX 15 15 1 -1
BITMAP
0380
0380
0380
0380
07C0
0DA0
0DA0
1BB0
1BB0
3398
3398
7FFC
0380
0380
FFFE
ENDCHAR
STARTCHAR 23C6
ENCODING 9158
SWIDTH 1020 0
DWIDTH 17 0
BBX 13 15 2 -1
BITMAP
0700
0700
0700
0700
0700
0700
3B18
6FB0
C760
0700
0700
0700
0700
0700
0700
ENDCHAR
STARTCHAR 23C7
ENCODING 9159
SWIDTH 1020 0
DWIDTH 17 0
BBX 15 15 1 -1
BITMAP
FFFE
FFFE
0380
0380
0380
0380
1D8C
37D8
63B0
0380
0380
0380
0380
0380
0380
ENDCHAR
STARTCHAR 23C8
ENCODING 9160
SWIDTH 1020 0
DWIDTH 17 0
BBX 15 15 1 -1
BITMAP
0380
0380
0380
0380
0380
0380
1D8C
37D8
63B0
0380
0380
0380
0380
0380
FFFE
ENDCHAR
STARTCHAR 23C9
ENCODING 9161
SWIDTH 1020 0
DWIDTH 17 0
BBX 15 15 1 -1
BITMAP
FFFE
FFFE
0380
0380
0380
0380
0380
0380
0380
0380
0380
0380
0380
0380
0380
ENDCHAR
STARTCHAR 23CA
ENCODING 9162
SWIDTH 1020 0
DWIDTH 17 0
BBX 15 15 1 -1
BITMAP
0380
0380
0380
0380
0380
0380
0380
0380
0380
0380
0380
0380
0380
0380
FFFE
ENDCHAR
STARTCHAR 23CB
ENCODING 9163
SWIDTH 1020 0
DWIDTH 17 0
BBX 10 15 0 -1
BITMAP
FFC0
FFC0
01C0
01C0
01C0
01C0
01C0
01C0
01C0
01C0
01C0
01C0
01C0
01C0
01C0
ENDCHAR
STARTCHAR 23CC
ENCODING 9164
SWIDTH 1020 0
DWIDTH 17 0
BBX 10 15 0 -1
BITMAP
01C0
01C0
01C0
01C0
01C0
01C0
01C0
01C0
01C0
01C0
01C0
01C0
01C0
01C0
FFC0
ENDCHAR
STARTCHAR 23CE
ENCODING 9166
SWIDTH 1020 0
DWIDTH 17 0
BBX 16 14 0 -2
BITMAP
003F
0033
0033
0633
0E33
1A33
37F3
6003
C003
6006
37FC
1A00
0E00
0600
ENDCHAR
STARTCHAR 2423
ENCODING 9251
SWIDTH 1020 0
DWIDTH 17 0
BBX 16 4 0 -1
BITMAP
C003
C003
C003
FFFF
ENDCHAR
STARTCHAR 2460
ENCODING 9312
SWIDTH 1020 0
DWIDTH 17 0
BBX 17 16 0 -1
BITMAP
07F000
1C1C00
1C1C00
300600
61C300
63C300
C1C180
C1C180
C1C180
C1C180
C1C180
61C300
61C300
300600
1C1C00
07F000
ENDCHAR
STARTCHAR 2461
ENCODING 9313
SWIDTH 1020 0
DWIDTH 17 0
BBX 17 16 0 -1
BITMAP
07F000
1C1C00
1C1C00
300600
63E300
663300
C03180
C0E180
C1C180
C38180
C60180
660300
67F300
300600
1C1C00
07F000
ENDCHAR
STARTCHAR 2462
ENCODING 9314
SWIDTH 1020 0
DWIDTH 17 0
BBX 17 16 0 -1
BITMAP
07F000
1C1C00
1C1C00
300600
63E300
663300
C03180
C03180
C1E180
C03180
C63180
663300
63E300
300600
1C1C00
07F000
ENDCHAR
STARTCHAR 2463
ENCODING 9315
SWIDTH 1020 0
DWIDTH 17 0
BBX 17 16 0 -1
BITMAP
07F000
1C1C00
1C1C00
300600
60E300
61E300
C3A180
C6E180
C6E180
CFF980
C0E180
60E300
60E300
300600
1C1C00
07F000
ENDCHAR
STARTCHAR 2464
ENCODING 9316
SWIDTH 1020 0
DWIDTH 17 0
BBX 17 16 0 -1
BITMAP
07F000
1C1C00
1C1C00
300600
67F300
660300
C60180
C7E180
C03180
C03180
C63180
663300
63E300
300600
1C1C00
07F000
ENDCHAR
STARTCHAR 2465
ENCODING 9317
SWIDTH 1020 0
DWIDTH 17 0
BBX 17 16 0 -1
BITMAP
07F000
1C1C00
1C1C00
300600
63E300
663300
C60180
C60180
C7E180
C63180
C63180
663300
63E300
300600
1C1C00
07F000
ENDCHAR
STARTCHAR 2466
ENCODING 9318
SWIDTH 1020 0
DWIDTH 17 0
BBX 17 16 0 -1
BITMAP
07F000
1C1C00
1C1C00
300600
67F300
603300
C03180
C0E180
C0E180
C0E180
C1C180
61C300
61C300
300600
1C1C00
07F000
ENDCHAR
STARTCHAR 2467
ENCODING 9319
SWIDTH 1020 0
DWIDTH 17 0
BBX 17 16 0 -1
BITMAP
07F000
1C1C00
1C1C00
300600
63E300
663300
C63180
C63180
C3E180
C63180
C63180
663300
63E300
300600
1C1C00
07F000
ENDCHAR
STARTCHAR 2468
ENCODING 9320
SWIDTH 1020 0
DWIDTH 17 0
BBX 17 16 0 -1
BITMAP
07F000
1C1C00
1C1C00
300600
63E300
663300
C63180
C63180
C3F180
C03180
C03180
663300
63E300
300600
1C1C00
07F000
ENDCHAR
STARTCHAR 2469
ENCODING 9321
SWIDTH 1020 0
DWIDTH 17 0
BBX 17 16 0 -1
BITMAP
07F000
1C1C00
1C1C00
300600
66F300
6EDB00
C6D980
C6D980
C6D980
C6D980
C6D980
66DB00
66F300
300600
1C1C00
07F000
ENDCHAR
STARTCHAR 246A
ENCODING 9322
SWIDTH 1020 0
DWIDTH 17 0
BBX 17 16 0 -1
BITMAP
07F000
1C1C00
1C1C00
300600
663300
6EF300
C63180
C63180
C63180
C63180
C63180
663300
663300
300600
1C1C00
07F000
ENDCHAR
STARTCHAR 246B
ENCODING 9323
SWIDTH 1020 0
DWIDTH 17 0
BBX 17 16 0 -1
BITMAP
07F000
1C1C00
1C1C00
300600
66F300
6EDB00
C61980
C63180
C63180
C6E180
C6E180
66C300
66FB00
300600
1C1C00
07F000
ENDCHAR
STARTCHAR 246C
ENCODING 9324
SWIDTH 1020 0
DWIDTH 17 0
BBX 17 16 0 -1
BITMAP
07F000
1C1C00
1C1C00
300600
66F300
6EDB00
C61980
C61980
C6F180
C61980
C61980
66DB00
66F300
300600
1C1C00
07F000
ENDCHAR
STARTCHAR 246D
ENCODING 9325
SWIDTH 1020 0
DWIDTH 17 0
BBX 17 16 0 -1
BITMAP
07F000
1C1C00
1C1C00
300600
661B00
6E3B00
C6E980
C6E980
C6D980
C6FD80
C61980
661B00
661B00
300600
1C1C00
07F000
ENDCHAR
STARTCHAR 246E
ENCODING 9326
SWIDTH 1020 0
DWIDTH 17 0
BBX 17 16 0 -1
BITMAP
07F000
1C1C00
1C1C00
300600
66FB00
6EC300
C6C180
C6F180
C61980
C61980
C61980
66DB00
66F300
300600
1C1C00
07F000
ENDCHAR
STARTCHAR 246F
ENCODING 9327
SWIDTH 1020 0
DWIDTH 17 0
BBX 17 16 0 -1
BITMAP
07F000
1C1C00
1C1C00
300600
66F300
6EDB00
C6C180
C6C180
C6F180
C6D980
C6D980
66DB00
66F300
300600
1C1C00
07F000
ENDCHAR
STARTCHAR 2470
ENCODING 9328
SWIDTH 1020 0
DWIDTH 17 0
BBX 17 16 0 -1
BITMAP
07F000
1C1C00
1C1C00
300600
66FB00
6E1B00
C61980
C61980
C63180
C63180
C63180
663300
663300
300600
1C1C00
07F000
ENDCHAR
STARTCHAR 2471
ENCODING 9329
SWIDTH 1020 0
DWIDTH 17 0
BBX 17 16 0 -1
BITMAP
07F000
1C1C00
1C1C00
300600
66F300
6EDB00
C6D980
C6D980
C6F180
C6D980
C6D980
66DB00
66F300
300600
1C1C00
07F000
ENDCHAR
STARTCHAR 2472
ENCODING 9330
SWIDTH 1020 0
DWIDTH 17 0
BBX 17 16 0 -1
BITMAP
07F000
1C1C00
1C1C00
300600
66F300
6EDB00
C6D980
C6D980
C6F980
C61980
C61980
66DB00
66F300
300600
1C1C00
07F000
ENDCHAR
STARTCHAR 2473
ENCODING 9331
SWIDTH 1020 0
DWIDTH 17 0
BBX 17 16 0 -1
BITMAP
07F000
1C1C00
1C1C00
300600
6E3B00
6BAD00
C3AD80
C3AD80
C6ED80
CCED80
D8ED80
68ED00
6FBB00
300600
1C1C00
07F000
ENDCHAR
STARTCHAR 24D0
ENCODING 9424
SWIDTH 1020 0
DWIDTH 17 0
BBX 17 16 0 -1
BITMAP
07F000
1C1C00
1C1C00
300600
600300
67E300
CC3180
C03180
C7F180
CC3180
CC3180
67EB00
600300
300600
1C1C00
07F000
ENDCHAR
STARTCHAR 24D1
ENCODING 9425
SWIDTH 1020 0
DWIDTH 17 0
BBX 17 16 0 -1
BITMAP
07F000
1C1C00
1C1C00
300600
660300
660300
C60180
C6E180
C7B180
C61980
C61980
67B300
66E300
300600
1C1C00
07F000
ENDCHAR
STARTCHAR 24D2
ENCODING 9426
SWIDTH 1020 0
DWIDTH 17 0
BBX 17 16 0 -1
BITMAP
07F000
1C1C00
1C1C00
300600
600300
63E300
C63180
CC0180
CC0180
CC1980
C63180
63E300
600300
300600
1C1C00
07F000
ENDCHAR
STARTCHAR 24D3
ENCODING 9427
SWIDTH 1020 0
DWIDTH 17 0
BBX 17 16 0 -1
BITMAP
07F000
1C1C00
1C1C00
300600
603300
603300
C03180
C3D180
C6F180
CC3180
CC3180
66F300
63D300
300600
1C1C00
07F000
ENDCHAR
STARTCHAR 24D4
ENCODING 9428
SWIDTH 1020 0
DWIDTH 17 0
BBX 17 16 0 -1
BITMAP
07F000
1C1C00
1C1C00
300600
600300
63E300
C63180
CC1980
CFF980
CC0180
C61980
63F300
600300
300600
1C1C00
07F000
ENDCHAR
STARTCHAR 24D5
ENCODING 9429
SWIDTH 1020 0
DWIDTH 17 0
BBX 17 16 0 -1
BITMAP
07F000
1C1C00
1C1C00
300600
60F300
61C300
C1C180
C3F180
C1C180
C1C180
C1C180
61C300
61C300
300600
1C1C00
07F000
ENDCHAR
STARTCHAR 24D6
ENCODING 9430
SWIDTH 1020 0
DWIDTH 17 0
BBX 17 16 0 -1
BITMAP
07F000
1C1C00
1C1C00
300600
63EB00
663B00
CC1980
CC1980
C63980
C3E980
CC1980
663300
63E300
300600
1C1C00
07F000
ENDCHAR
STARTCHAR 24D7
ENCODING 9431
SWIDTH 1020 0
DWIDTH 17 0
BBX 17 16 0 -1
BITMAP
07F000
1C1C00
1C1C00
300600
660300
660300
C60180
C6E180
C7B180
C61980
C61980
661B00
661B00
300600
1C1C00
07F000
ENDCHAR
STARTCHAR 24D8
ENCODING 9432
SWIDTH 1020 0
DWIDTH 17 0
BBX 17 16 0 -1
BITMAP
07F000
1C1C00
1C1C00
31C600
61C300
600300
C00180
C1C180
C1C180
C1C180
C1C180
61C300
61C300
300600
1C1C00
07F000
ENDCHAR
STARTCHAR 24D9
ENCODING 9433
SWIDTH 1020 0
DWIDTH 17 0
BBX 17 16 0 -1
BITMAP
07F000
1C1C00
1C1C00
30E600
60E300
600300
C00180
C0E180
C0E180
C0E180
C0E180
60E300
66E300
33C600
1C1C00
07F000
ENDCHAR
STARTCHAR 24DA
ENCODING 9434
SWIDTH 1020 0
DWIDTH 17 0
BBX 17 16 0 -1
BITMAP
07F000
1C1C00
1C1C00
300600
660300
660300
C60180
C61980
C6F180
C7C180
C6E180
663300
661B00
300600
1C1C00
07F000
ENDCHAR
STARTCHAR 24DB
ENCODING 9435
SWIDTH 1020 0
DWIDTH 17 0
BBX 17 16 0 -1
BITMAP
07F000
1C1C00
1C1C00
31C600
61C300
61C300
C1C180
C1C180
C1C180
C1C180
C1C180
61C300
61C300
300600
1C1C00
07F000
ENDCHAR
STARTCHAR 24DC
ENCODING 9436
SWIDTH 1020 0
DWIDTH 17 0
BBX 17 16 0 -1
BITMAP
07F000
1C1C00
1C1C00
300600
600300
6BBB00
DDED80
D9CD80
D9CD80
D9CD80
D9CD80
69CD00
600300
300600
1C1C00
07F000
ENDCHAR
STARTCHAR 24DD
ENCODING 9437
SWIDTH 1020 0
DWIDTH 17 0
BBX 17 16 0 -1
BITMAP
07F000
1C1C00
1C1C00
300600
600300
66F300
C79980
C61980
C61980
C61980
C61980
661B00
600300
300600
1C1C00
07F000
ENDCHAR
STARTCHAR 24DE
ENCODING 9438
SWIDTH 1020 0
DWIDTH 17 0
BBX 17 16 0 -1
BITMAP
07F000
1C1C00
1C1C00
300600
600300
63E300
C63180
CC1980
CC1980
CC1980
C63180
63E300
600300
300600
1C1C00
07F000
ENDCHAR
STARTCHAR 24DF
ENCODING 9439
SWIDTH 1020 0
DWIDTH 17 0
BBX 17 16 0 -1
BITMAP
07F000
1C1C00
1C1C00
300600
600300
66E300
C7B180
C61980
C61980
C7B180
C6E180
660300
660300
360600
1C1C00
07F000
ENDCHAR
STARTCHAR 24E0
ENCODING 9440
SWIDTH 1020 0
DWIDTH 17 0
BBX 17 16 0 -1
BITMAP
07F000
1C1C00
1C1C00
300600
600300
63D300
C6F180
CC3180
CC3180
C6F180
C3D180
603300
603300
303600
1C1C00
07F000
ENDCHAR
STARTCHAR 24E1
ENCODING 9441
SWIDTH 1020 0
DWIDTH 17 0
BBX 17 16 0 -1
BITMAP
07F000
1C1C00
1C1C00
300600
600300
66F300
C78180
C60180
C60180
C60180
C60180
660300
600300
300600
1C1C00
07F000
ENDCHAR
STARTCHAR 24E2
ENCODING 9442
SWIDTH 1020 0
DWIDTH 17 0
BBX 17 16 0 -1
BITMAP
07F000
1C1C00
1C1C00
300600
600300
63E300
C63180
C60180
C3E180
C03180
C01980
663300
63E300
300600
1C1C00
07F000
ENDCHAR
STARTCHAR 24E3
ENCODING 9443
SWIDTH 1020 0
DWIDTH 17 0
BBX 17 16 0 -1
BITMAP
07F000
1C1C00
1C1C00
300600
600300
638300
C38180
C7E180
C38180
C38180
C38180
638300
61E300
300600
1C1C00
07F000
ENDCHAR
STARTCHAR 24E4
ENCODING 9444
SWIDTH 1020 0
DWIDTH 17 0
BBX 17 16 0 -1
BITMAP
07F000
1C1C00
1C1C00
300600
600300
661B00
C61980
C61980
C61980
C61980
C63980
63EB00
600300
300600
1C1C00
07F000
ENDCHAR
STARTCHAR 24E5
ENCODING 9445
SWIDTH 1020 0
DWIDTH 17 0
BBX 17 16 0 -1
BITMAP
07F000
1C1C00
1C1C00
300600
600300
6C1B00
CC1980
C63180
C63180
C3A180
C3A180
61C300
61C300
300600
1C1C00
07F000
ENDCHAR
STARTCHAR 24E6
ENCODING 9446
SWIDTH 1020 0
DWIDTH 17 0
BBX 17 16 0 -1
BITMAP
07F000
1C1C00
1C1C00
300600
600300
69CD00
D9CD80
CDD980
CDA980
CDA980
C63180
663300
663300
300600
1C1C00
07F000
ENDCHAR
STARTCHAR 24E7
ENCODING 9447
SWIDTH 1020 0
DWIDTH 17 0
BBX 17 16 0 -1
BITMAP
07F000
1C1C00
1C1C00
300600
600300
663300
C63180
C3A180
C1C180
C3A180
C63180
6C1B00
600300
300600
1C1C00
07F000
ENDCHAR
STARTCHAR 24E8
ENCODING 9448
SWIDTH 1020 0
DWIDTH 17 0
BBX 17 16 0 -1
BITMAP
07F000
1C1C00
1C1C00
300600
600300
639B00
C39980
C1D180
C1D180
C0E180
C0E180
61C300
678300
300600
1C1C00
07F000
ENDCHAR
STARTCHAR 24E9
ENCODING 9449
SWIDTH 1020 0
DWIDTH 17 0
BBX 17 16 0 -1
BITMAP
07F000
1C1C00
1C1C00
300600
600300
67F300
C03180
C0E180
C1C180
C38180
C60180
67F300
600300
300600
1C1C00
07F000
ENDCHAR
STARTCHAR 24EB
ENCODING 9451
SWIDTH 1020 0
DWIDTH 17 0
BBX 17 16 0 -1
BITMAP
07F000
1FFC00
1FFC00
3FFE00
7DEF00
7BDF00
FDEF80
FDEF80
FDEF80
FDEF80
FDEF80
7DEF00
7DEF00
3FFE00
1FFC00
07F000
ENDCHAR
STARTCHAR 24EC
ENCODING 9452
SWIDTH 1020 0
DWIDTH 17 0
BBX 17 16 0 -1
BITMAP
07F000
1FFC00
1FFC00
3FFE00
7DDF00
7BB700
FDF780
FDEF80
FDEF80
FDDF80
FDDF80
7DBF00
7D8F00
3FFE00
1FFC00
07F000
ENDCHAR
STARTCHAR 24ED
ENCODING 9453
SWIDTH 1020 0
DWIDTH 17 0
BBX 17 16 0 -1
BITMAP
07F000
1FFC00
1FFC00
3FFE00
7DDF00
7BB700
FDF780
FDF780
FDDF80
FDF780
FDF780
7DB700
7DDF00
3FFE00
1FFC00
07F000
ENDCHAR
STARTCHAR 24EE
ENCODING 9454
SWIDTH 1020 0
DWIDTH 17 0
BBX 17 16 0 -1
BITMAP
07F000
1FFC00
1FFC00
3FFE00
7DF700
7BEF00
FDD780
FDD780
FDB780
FD8780
FDF780
7DF700
7DF700
3FFE00
1FFC00
07F000
ENDCHAR
STARTCHAR 24EF
ENCODING 9455
SWIDTH 1020 0
DWIDTH 17 0
BBX 17 16 0 -1
BITMAP
07F000
1FFC00
1FFC00
3FFE00
7D8F00
7BBF00
FDBF80
FD9F80
FDF780
FDF780
FDF780
7DB700
7DDF00
3FFE00
1FFC00
07F000
ENDCHAR
STARTCHAR 24F0
ENCODING 9456
SWIDTH 1020 0
DWIDTH 17 0
BBX 17 16 0 -1
BITMAP
07F000
1FFC00
1FFC00
3FFE00
7DDF00
7BB700
FDBF80
FDBF80
FD9F80
FDB780
FDB780
7DB700
7DDF00
3FFE00
1FFC00
07F000
ENDCHAR
STARTCHAR 24F1
ENCODING 9457
SWIDTH 1020 0
DWIDTH 17 0
BBX 17 16 0 -1
BITMAP
07F000
1FFC00
1FFC00
3FFE00
7D8F00
7BF700
FDF780
FDF780
FDEF80
FDEF80
FDEF80
7DEF00
7DEF00
3FFE00
1FFC00
07F000
ENDCHAR
STARTCHAR 24F2
ENCODING 9458
SWIDTH 1020 0
DWIDTH 17 0
BBX 17 16 0 -1
BITMAP
07F000
1FFC00
1FFC00
3FFE00
7DDF00
7BB700
FDB780
FDB780
FDDF80
FDB780
FDB780
7DB700
7DDF00
3FFE00
1FFC00
07F000
ENDCHAR
STARTCHAR 24F3
ENCODING 9459
SWIDTH 1020 0
DWIDTH 17 0
BBX 17 16 0 -1
BITMAP
07F000
1FFC00
1FFC00
3FFE00
7DDF00
7BB700
FDB780
FDB780
FDDF80
FDEF80
FDEF80
7DDF00
7DDF00
3FFE00
1FFC00
07F000
ENDCHAR
STARTCHAR 24F4
ENCODING 9460
SWIDTH 1020 0
DWIDTH 17 0
BBX 17 16 0 -1
BITMAP
07F000
1FFC00
1FFC00
3FFE00
7BEF00
76DB00
FEDB80
FEDB80
FDDB80
FBDB80
F7DB80
77DB00
71EF00
3FFE00
1FFC00
07F000
ENDCHAR
STARTCHAR 24F5
ENCODING 9461
SWIDTH 1020 0
DWIDTH 17 0
BBX 17 16 0 -1
BITMAP
07F000
1C1C00
1C1C00
37F600
6C1B00
69CD00
D3C680
D1C680
D1C680
D1C680
D1C680
69CD00
6C1B00
37F600
1C1C00
07F000
ENDCHAR
STARTCHAR 24F6
ENCODING 9462
SWIDTH 1020 0
DWIDTH 17 0
BBX 17 16 0 -1
BITMAP
07F000
1C1C00
1C1C00
37F600
6C1B00
6BED00
D63680
D03680
D0E680
D1C680
D38680
6BF500
6C1B00
37F600
1C1C00
07F000
ENDCHAR
STARTCHAR 24F7
ENCODING 9463
SWIDTH 1020 0
DWIDTH 17 0
BBX 17 16 0 -1
BITMAP
07F000
1C1C00
1C1C00
37F600
6C1B00
6BED00
D63680
D03680
D3E680
D03680
D63680
6BED00
6C1B00
37F600
1C1C00
07F000
ENDCHAR
STARTCHAR 24F8
ENCODING 9464
SWIDTH 1020 0
DWIDTH 17 0
BBX 17 16 0 -1
BITMAP
07F000
1C1C00
1C1C00
37F600
6C1B00
68ED00
D1E680
D3A680
D3A680
D7F680
D0E680
68ED00
6C1B00
37F600
1C1C00
07F000
ENDCHAR
STARTCHAR 24F9
ENCODING 9465
SWIDTH 1020 0
DWIDTH 17 0
BBX 17 16 0 -1
BITMAP
07F000
1C1C00
1C1C00
37F600
6C1B00
6BED00
D38680
D60680
D7E680
D03680
D63680
6BED00
6C1B00
37F600
1C1C00
07F000
ENDCHAR
STARTCHAR 24FA
ENCODING 9466
SWIDTH 1020 0
DWIDTH 17 0
BBX 17 16 0 -1
BITMAP
07F000
1C1C00
1C1C00
37F600
6C1B00
6BED00
D63680
D60680
D7E680
D63680
D63680
6BED00
6C1B00
37F600
1C1C00
07F000
ENDCHAR
STARTCHAR 24FB
ENCODING 9467
SWIDTH 1020 0
DWIDTH 17 0
BBX 17 16 0 -1
BITMAP
07F000
1C1C00
1C1C00
37F600
6C1B00
6BF500
D03680
D03680
D0E680
D0E680
D1C680
69CD00
6C1B00
37F600
1C1C00
07F000
ENDCHAR
STARTCHAR 24FC
ENCODING 9468
SWIDTH 1020 0
DWIDTH 17 0
BBX 17 16 0 -1
BITMAP
07F000
1C1C00
1C1C00
37F600
6C1B00
6BED00
D63680
D63680
D3E680
D63680
D63680
6BED00
6C1B00
37F600
1C1C00
07F000
ENDCHAR
STARTCHAR 24FD
ENCODING 9469
SWIDTH 1020 0
DWIDTH 17 0
BBX 17 16 0 -1
BITMAP
07F000
1C1C00
1C1C00
37F600
6C1B00
6BED00
D63680
D63680
D3F680
D0E680
D0E680
69CD00
6C1B00
37F600
1C1C00
07F000
ENDCHAR
STARTCHAR 24FE
ENCODING 9470
SWIDTH 1020 0
DWIDTH 17 0
BBX 17 16 0 -1
BITMAP
07F000
1C1C00
1C1C00
37F600
6C1B00
6AF500
D6DA80
D6DA80
D6DA80
D6DA80
D6DA80
6AF500
6C1B00
37F600
1C1C00
07F000
ENDCHAR
STARTCHAR 2500
ENCODING 9472
SWIDTH 1020 0
DWIDTH 17 0
BBX 17 1 0 6
BITMAP
FFFF80
ENDCHAR
STARTCHAR 2501
ENCODING 9473
SWIDTH 1020 0
DWIDTH 17 0
BBX 17 2 0 5
BITMAP
FFFF80
FFFF80
ENDCHAR
STARTCHAR 2502
ENCODING 9474
SWIDTH 1020 0
DWIDTH 17 0
BBX 3 17 6 -2
BITMAP
E0
E0
E0
E0
E0
E0
E0
E0
E0
E0
E0
E0
E0
E0
E0
E0
E0
ENDCHAR
STARTCHAR 2503
ENCODING 9475
SWIDTH 1020 0
DWIDTH 17 0
BBX 4 17 6 -2
BITMAP
F0
F0
F0
F0
F0
F0
F0
F0
F0
F0
F0
F0
F0
F0
F0
F0
F0
ENDCHAR
STARTCHAR 250C
ENCODING 9484
SWIDTH 1020 0
DWIDTH 17 0
BBX 11 9 6 -2
BITMAP
FFE0
E000
E000
E000
E000
E000
E000
E000
E000
ENDCHAR
STARTCHAR 250F
ENCODING 9487
SWIDTH 1020 0
DWIDTH 17 0
BBX 11 9 6 -2
BITMAP
FFE0
FFE0
F000
F000
F000
F000
F000
F000
F000
ENDCHAR
STARTCHAR 2510
ENCODING 9488
SWIDTH 1020 0
DWIDTH 17 0
BBX 9 9 0 -2
BITMAP
FF80
0380
0380
0380
0380
0380
0380
0380
0380
ENDCHAR
STARTCHAR 2513
ENCODING 9491
SWIDTH 1020 0
DWIDTH 17 0
BBX 10 9 0 -2
BITMAP
FFC0
FFC0
03C0
03C0
03C0
03C0
03C0
03C0
03C0
ENDCHAR
STARTCHAR 2514
ENCODING 9492
SWIDTH 1020 0
DWIDTH 17 0
BBX 11 9 6 6
BITMAP
E000
E000
E000
E000
E000
E000
E000
E000
FFE0
ENDCHAR
STARTCHAR 2517
ENCODING 9495
SWIDTH 1020 0
DWIDTH 17 0
BBX 11 10 6 5
BITMAP
F000
F000
F000
F000
F000
F000
F000
F000
FFE0
FFE0
ENDCHAR
STARTCHAR 2518
ENCODING 9496
SWIDTH 1020 0
DWIDTH 17 0
BBX 9 9 0 6
BITMAP
0380
0380
0380
0380
0380
0380
0380
0380
FF80
ENDCHAR
STARTCHAR 251B
ENCODING 9499
SWIDTH 1020 0
DWIDTH 17 0
BBX 10 10 0 5
BITMAP
03C0
03C0
03C0
03C0
03C0
03C0
03C0
03C0
FFC0
FFC0
ENDCHAR
STARTCHAR 251C
ENCODING 9500
SWIDTH 1020 0
DWIDTH 17 0
BBX 11 17 6 -2
BITMAP
E000
E000
E000
E000
E000
E000
E000
E000
FFE0
E000
E000
E000
E000
E000
E000
E000
E000
ENDCHAR
STARTCHAR 251D
ENCODING 9501
SWIDTH 1020 0
DWIDTH 17 0
BBX 11 17 6 -2
BITMAP
E000
E000
E000
E000
E000
E000
E000
E000
FFE0
FFE0
E000
E000
E000
E000
E000
E000
E000
ENDCHAR
STARTCHAR 2520
ENCODING 9504
SWIDTH 1020 0
DWIDTH 17 0
BBX 11 17 6 -2
BITMAP
F000
F000
F000
F000
F000
F000
F000
F000
FFE0
F000
F000
F000
F000
F000
F000
F000
F000
ENDCHAR
STARTCHAR 2523
ENCODING 9507
SWIDTH 1020 0
DWIDTH 17 0
BBX 11 17 6 -2
BITMAP
F000
F000
F000
F000
F000
F000
F000
F000
FFE0
FFE0
F000
F000
F000
F000
F000
F000
F000
ENDCHAR
STARTCHAR 2524
ENCODING 9508
SWIDTH 1020 0
DWIDTH 17 0
BBX 9 17 0 -2
BITMAP
0380
0380
0380
0380
0380
0380
0380
0380
FF80
0380
0380
0380
0380
0380
0380
0380
0380
ENDCHAR
STARTCHAR 2525
ENCODING 9509
SWIDTH 1020 0
DWIDTH 17 0
BBX 9 17 0 -2
BITMAP
0380
0380
0380
0380
0380
0380
0380
0380
FF80
FF80
0380
0380
0380
0380
0380
0380
0380
ENDCHAR
STARTCHAR 2528
ENCODING 9512
SWIDTH 1020 0
DWIDTH 17 0
BBX 10 17 0 -2
BITMAP
03C0
03C0
03C0
03C0
03C0
03C0
03C0
03C0
FFC0
03C0
03C0
03C0
03C0
03C0
03C0
03C0
03C0
ENDCHAR
STARTCHAR 252B
ENCODING 9515
SWIDTH 1020 0
DWIDTH 17 0
BBX 10 17 0 -2
BITMAP
03C0
03C0
03C0
03C0
03C0
03C0
03C0
03C0
FFC0
FFC0
03C0
03C0
03C0
03C0
03C0
03C0
03C0
ENDCHAR
STARTCHAR 252C
ENCODING 9516
SWIDTH 1020 0
DWIDTH 17 0
BBX 17 9 0 -2
BITMAP
FFFF80
038000
038000
038000
038000
038000
038000
038000
038000
ENDCHAR
STARTCHAR 252F
ENCODING 9519
SWIDTH 1020 0
DWIDTH 17 0
BBX 17 9 0 -2
BITMAP
FFFF80
FFFF80
038000
038000
038000
038000
038000
038000
038000
ENDCHAR
STARTCHAR 2530
ENCODING 9520
SWIDTH 1020 0
DWIDTH 17 0
BBX 17 9 0 -2
BITMAP
FFFF80
03C000
03C000
03C000
03C000
03C000
03C000
03C000
03C000
ENDCHAR
STARTCHAR 2533
ENCODING 9523
SWIDTH 1020 0
DWIDTH 17 0
BBX 17 9 0 -2
BITMAP
FFFF80
FFFF80
03C000
03C000
03C000
03C000
03C000
03C000
03C000
ENDCHAR
STARTCHAR 2534
ENCODING 9524
SWIDTH 1020 0
DWIDTH 17 0
BBX 17 9 0 6
BITMAP
038000
038000
038000
038000
038000
038000
038000
038000
FFFF80
ENDCHAR
STARTCHAR 2537
ENCODING 9527
SWIDTH 1020 0
DWIDTH 17 0
BBX 17 10 0 5
BITMAP
038000
038000
038000
038000
038000
038000
038000
038000
FFFF80
FFFF80
ENDCHAR
STARTCHAR 2538
ENCODING 9528
SWIDTH 1020 0
DWIDTH 17 0
BBX 17 9 0 6
BITMAP
03C000
03C000
03C000
03C000
03C000
03C000
03C000
03C000
FFFF80
ENDCHAR
STARTCHAR 253B
ENCODING 9531
SWIDTH 1020 0
DWIDTH 17 0
BBX 17 10 0 5
BITMAP
03C000
03C000
03C000
03C000
03C000
03C000
03C000
03C000
FFFF80
FFFF80
ENDCHAR
STARTCHAR 253C
ENCODING 9532
SWIDTH 1020 0
DWIDTH 17 0
BBX 17 17 0 -2
BITMAP
038000
038000
038000
038000
038000
038000
038000
038000
FFFF80
038000
038000
038000
038000
038000
038000
038000
038000
ENDCHAR
STARTCHAR 253F
ENCODING 9535
SWIDTH 1020 0
DWIDTH 17 0
BBX 17 17 0 -2
BITMAP
038000
038000
038000
038000
038000
038000
038000
038000
FFFF80
FFFF80
038000
038000
038000
038000
038000
038000
038000
ENDCHAR
STARTCHAR 2542
ENCODING 9538
SWIDTH 1020 0
DWIDTH 17 0
BBX 17 17 0 -2
BITMAP
03C000
03C000
03C000
03C000
03C000
03C000
03C000
03C000
FFFF80
03C000
03C000
03C000
03C000
03C000
03C000
03C000
03C000
ENDCHAR
STARTCHAR 254B
ENCODING 9547
SWIDTH 1020 0
DWIDTH 17 0
BBX 17 17 0 -2
BITMAP
03C000
03C000
03C000
03C000
03C000
03C000
03C000
03C000
FFFF80
FFFF80
03C000
03C000
03C000
03C000
03C000
03C000
03C000
ENDCHAR
STARTCHAR 25A0
ENCODING 9632
SWIDTH 1020 0
DWIDTH 17 0
BBX 16 15 0 -1
BITMAP
FFFF
FFFF
FFFF
FFFF
FFFF
FFFF
FFFF
FFFF
FFFF
FFFF
FFFF
FFFF
FFFF
FFFF
FFFF
ENDCHAR
STARTCHAR 25A1
ENCODING 9633
SWIDTH 1020 0
DWIDTH 17 0
BBX 16 15 0 -1
BITMAP
FFFF
FFFF
C003
C003
C003
C003
C003
C003
C003
C003
C003
C003
C003
C003
FFFF
ENDCHAR
STARTCHAR 25B1
ENCODING 9649
SWIDTH 1020 0
DWIDTH 17 0
BBX 17 9 0 1
BITMAP
0FFF80
0C0300
180300
180600
300600
300C00
600C00
601800
FFF800
ENDCHAR
STARTCHAR 25B2
ENCODING 9650
SWIDTH 1020 0
DWIDTH 17 0
BBX 15 12 1 0
BITMAP
0380
0380
07C0
07C0
0FE0
0FE0
1FF0
1FF0
3FF8
3FF8
7FFC
FFFE
ENDCHAR
STARTCHAR 25B3
ENCODING 9651
SWIDTH 1020 0
DWIDTH 17 0
BBX 15 12 1 0
BITMAP
0380
0380
0740
0740
0C60
0C60
1830
1830
3018
3018
600C
FFFE
ENDCHAR
STARTCHAR 25B6
ENCODING 9654
SWIDTH 1020 0
DWIDTH 17 0
BBX 15 14 1 0
BITMAP
C000
C000
F000
FC00
FF80
FFE0
FFF8
FFFE
FFF8
FFE0
FF80
FC00
F000
C000
ENDCHAR
STARTCHAR 25B7
ENCODING 9655
SWIDTH 1020 0
DWIDTH 17 0
BBX 15 14 1 0
BITMAP
C000
C000
F000
DC00
C780
C1E0
C038
C00E
C038
C1E0
C780
DC00
F000
C000
ENDCHAR
STARTCHAR 25BC
ENCODING 9660
SWIDTH 1020 0
DWIDTH 17 0
BBX 15 12 1 0
BITMAP
FFFE
7FFC
3FF8
3FF8
1FF0
1FF0
0FE0
0FE0
07C0
07C0
0380
0380
ENDCHAR
STARTCHAR 25BD
ENCODING 9661
SWIDTH 1020 0
DWIDTH 17 0
BBX 15 12 1 0
BITMAP
FFFE
600C
3018
3018
1830
1830
0C60
0C60
0740
0740
0380
0380
ENDCHAR
STARTCHAR 25C0
ENCODING 9664
SWIDTH 1020 0
DWIDTH 17 0
BBX 15 14 1 0
BITMAP
0006
0006
001E
007E
03FE
0FFE
3FFE
FFFE
3FFE
0FFE
03FE
007E
001E
0006
ENDCHAR
STARTCHAR 25C1
ENCODING 9665
SWIDTH 1020 0
DWIDTH 17 0
BBX 15 14 1 0
BITMAP
0006
0006
001E
0076
03C6
0F06
3806
E006
3806
0F06
03C6
0076
001E
0006
ENDCHAR
STARTCHAR 25C6
ENCODING 9670
SWIDTH 1020 0
DWIDTH 17 0
BBX 16 15 0 -1
BITMAP
03C0
03C0
07E0
0FF0
1FF8
3FFC
7FFE
FFFF
FFFF
7FFE
3FFC
1FF8
0FF0
07E0
03C0
ENDCHAR
STARTCHAR 25C7
ENCODING 9671
SWIDTH 1020 0
DWIDTH 17 0
BBX 16 15 0 -1
BITMAP
03C0
03C0
06E0
0C30
1818
300C
6006
C003
C003
6006
300C
1818
0C30
06E0
03C0
ENDCHAR
STARTCHAR 25C9
ENCODING 9673
SWIDTH 1020 0
DWIDTH 17 0
BBX 16 15 0 -1
BITMAP
07E0
07E0
1C38
33CC
6FF6
6FFA
DFFB
DFFD
DFFD
DFFB
6FFA
6FF6
33CC
1C38
07E0
ENDCHAR
STARTCHAR 25CB
ENCODING 9675
SWIDTH 1020 0
DWIDTH 17 0
BBX 16 15 0 -1
BITMAP
07E0
07E0
1C38
300C
6006
6006
C003
C003
C003
C003
6006
6006
300C
1C38
07E0
ENDCHAR
STARTCHAR 25CE
ENCODING 9678
SWIDTH 1020 0
DWIDTH 17 0
BBX 16 15 0 -1
BITMAP
07E0
07E0
1C38
300C
67E6
6C36
D81B
D81B
D81B
D81B
6C36
67E6
300C
1C38
07E0
ENDCHAR
STARTCHAR 25CF
ENCODING 9679
SWIDTH 1020 0
DWIDTH 17 0
BBX 16 15 0 -1
BITMAP
07E0
07E0
1FF8
3FFC
7FFE
7FFE
FFFF
FFFF
FFFF
FFFF
7FFE
7FFE
3FFC
1FF8
07E0
ENDCHAR
STARTCHAR 25D0
ENCODING 9680
SWIDTH 1020 0
DWIDTH 17 0
BBX 17 16 0 -1
BITMAP
07F000
1FDC00
1FDC00
3FC600
7FC300
7FC300
FFC180
FFC180
FFC180
FFC180
FFC180
7FC300
7FC300
3FC600
1FDC00
07F000
ENDCHAR
STARTCHAR 25D1
ENCODING 9681
SWIDTH 1020 0
DWIDTH 17 0
BBX 17 16 0 -1
BITMAP
07F000
1DFC00
1DFC00
31FE00
61FF00
61FF00
C1FF80
C1FF80
C1FF80
C1FF80
C1FF80
61FF00
61FF00
31FE00
1DFC00
07F000
ENDCHAR
STARTCHAR 25D2
ENCODING 9682
SWIDTH 1020 0
DWIDTH 17 0
BBX 17 16 0 -1
BITMAP
07F000
1C1C00
1C1C00
300600
600300
600300
C00180
C00180
FFFF80
FFFF80
FFFF80
7FFF00
7FFF00
3FFE00
1FFC00
07F000
ENDCHAR
STARTCHAR 25D3
ENCODING 9683
SWIDTH 1020 0
DWIDTH 17 0
BBX 17 16 0 -1
BITMAP
07F000
1FFC00
1FFC00
3FFE00
7FFF00
7FFF00
FFFF80
FFFF80
FFFF80
C00180
C00180
600300
600300
300600
1C1C00
07F000
ENDCHAR
STARTCHAR 25E6
ENCODING 9702
SWIDTH 1020 0
DWIDTH 17 0
BBX 8 6 4 4
BITMAP
3C
6E
C3
C3
6E
3C
ENDCHAR
STARTCHAR 25EF
ENCODING 9711
SWIDTH 1020 0
DWIDTH 17 0
BBX 16 15 0 -1
BITMAP
07E0
07E0
1C38
300C
6006
6006
C003
C003
C003
C003
6006
6006
300C
1C38
07E0
ENDCHAR
STARTCHAR 2600
ENCODING 9728
SWIDTH 1020 0
DWIDTH 17 0
BBX 17 16 0 -1
BITMAP
01C000
61C300
61C300
31C600
180C00
03E000
07F000
0FF800
F7FB80
0FF800
07F000
03E000
180C00
31C600
61C300
01C000
ENDCHAR
STARTCHAR 2601
ENCODING 9729
SWIDTH 1020 0
DWIDTH 17 0
BBX 16 10 0 2
BITMAP
0FC0
1FE0
1FF6
7FFF
FFFF
FFFE
FFFF
FFFF
7DFF
00FE
ENDCHAR
STARTCHAR 2602
ENCODING 9730
SWIDTH 1020 0
DWIDTH 17 0
BBX 17 16 0 -1
BITMAP
01C000
01C000
01C000
0FF800
3FFE00
7FFF00
7FFF00
FFFF80
EEDD80
CDD980
01C000
01C000
01C000
01C000
0DC000
078000
ENDCHAR
STARTCHAR 2603
ENCODING 9731
SWIDTH 1020 0
DWIDTH 17 0
BBX 17 16 0 -1
BITMAP
31FE00
0FFC00
0FFC00
D8FD80
300E00
36F600
D6F600
300680
DAED00
73C700
C00180
C3C180
C00180
63C300
380E00
0FF800
ENDCHAR
STARTCHAR 2605
ENCODING 9733
SWIDTH 1020 0
DWIDTH 17 0
BBX 15 15 1 -1
BITMAP
0380
0380
0380
07C0
07C0
0FE0
FFFE
7FFC
3FF8
1FF0
1FF0
3F78
3C78
783C
600C
ENDCHAR
STARTCHAR 2606
ENCODING 9734
SWIDTH 1020 0
DWIDTH 17 0
BBX 15 15 1 -1
BITMAP
0380
0380
0740
0740
0C60
0C60
FC7E
600C
3018
1830
1830
3398
3758
6C74
701C
ENDCHAR
STARTCHAR 260E
ENCODING 9742
SWIDTH 1020 0
DWIDTH 17 0
BBX 17 14 0 0
BITMAP
3FFE00
3FFE00
7FFF00
FBB780
FBF780
F7F780
1FFC00
3E3E00
3C1E00
7C1F00
7C1F00
7E3F00
7FFF00
3FFE00
ENDCHAR
STARTCHAR 2616
ENCODING 9750
SWIDTH 1020 0
DWIDTH 17 0
BBX 15 15 1 -1
BITMAP
07C0
07C0
1C70
701C
600C
600C
600C
600C
C006
C006
C006
C006
C006
C006
FFFE
ENDCHAR
STARTCHAR 2617
ENCODING 9751
SWIDTH 1020 0
DWIDTH 17 0
BBX 15 15 1 -1
BITMAP
07C0
07C0
1FF0
7FFC
7FFC
7FFC
7FFC
7FFC
FFFE
FFFE
FFFE
FFFE
FFFE
FFFE
FFFE
ENDCHAR
STARTCHAR 261E
ENCODING 9758
SWIDTH 1020 0
DWIDTH 17 0
BBX 17 9 0 2
BITMAP
3FFF00
E60180
CDFF00
DAD000
D3E000
C0E000
C7C000
E1C000
3F8000
ENDCHAR
STARTCHAR 2640
ENCODING 9792
SWIDTH 1020 0
DWIDTH 17 0
BBX 12 16 2 -1
BITMAP
1F80
30C0
30C0
6060
6060
6060
6060
30C0
1F80
0E00
0E00
FFF0
0E00
0E00
0E00
0E00
ENDCHAR
STARTCHAR 2642
ENCODING 9794
SWIDTH 1020 0
DWIDTH 17 0
BBX 16 15 0 -1
BITMAP
01FF
01FF
0007
000D
001B
0033
00E3
3EC3
6380
C1C0
C1C0
C1C0
C1C0
6380
3E00
ENDCHAR
STARTCHAR 2660
ENCODING 9824
SWIDTH 1020 0
DWIDTH 17 0
BBX 15 15 1 -1
BITMAP
0380
0380
07C0
0FE0
1FF0
3FF8
7FFC
7FFC
FFFE
FFFE
FFFE
7DBC
0380
07C0
0FE0
ENDCHAR
STARTCHAR 2661
ENCODING 9825
SWIDTH 1020 0
DWIDTH 17 0
BBX 15 13 1 -1
BITMAP
3C78
674C
C386
C386
C006
C006
600C
600C
3018
1830
0C60
0740
0380
ENDCHAR
STARTCHAR 2662
ENCODING 9826
SWIDTH 1020 0
DWIDTH 17 0
BBX 13 16 2 -1
BITMAP
0700
0700
0700
0E80
0E80
18C0
3060
6030
C018
6030
3060
18C0
0E80
0E80
0700
0700
ENDCHAR
STARTCHAR 2663
ENCODING 9827
SWIDTH 1020 0
DWIDTH 17 0
BBX 15 15 1 -1
BITMAP
07C0
07C0
0FE0
1FF0
1FF0
0FE0
3BD8
7DBC
FFFE
FFFE
FFFE
7DBC
3BB8
07C0
0FE0
ENDCHAR
STARTCHAR 2664
ENCODING 9828
SWIDTH 1020 0
DWIDTH 17 0
BBX 15 15 1 -1
BITMAP
0380
0380
0740
0C60
1830
3018
600C
600C
C006
C006
C7C6
7DBC
0380
0740
0FE0
ENDCHAR
STARTCHAR 2665
ENCODING 9829
SWIDTH 1020 0
DWIDTH 17 0
BBX 15 13 1 -1
BITMAP
3C78
7F7C
FFFE
FFFE
FFFE
FFFE
7FFC
7FFC
3FF8
1FF0
0FE0
07C0
0380
ENDCHAR
STARTCHAR 2666
ENCODING 9830
SWIDTH 1020 0
DWIDTH 17 0
BBX 13 16 2 -1
BITMAP
0700
0700
0700
0F80
0F80
1FC0
3FE0
7FF0
FFF8
7FF0
3FE0
1FC0
0F80
0F80
0700
0700
ENDCHAR
STARTCHAR 2667
ENCODING 9831
SWIDTH 1020 0
DWIDTH 17 0
BBX 15 15 1 -1
BITMAP
07C0
07C0
0C60
1830
1830
0C60
3C78
674C
C006
C006
C7C6
6DAC
3BB8
0740
0FE0
ENDCHAR
STARTCHAR 2668
ENCODING 9832
SWIDTH 1020 0
DWIDTH 17 0
BBX 16 14 0 0
BITMAP
01C0
01C0
0D98
1BB0
1BB0
1BB0
35D8
6DDA
CDDB
D9D3
C383
6006
381C
0FF0
ENDCHAR
STARTCHAR 2669
ENCODING 9833
SWIDTH 1020 0
DWIDTH 17 0
BBX 8 16 4 -1
BITMAP
03
03
03
03
03
03
03
03
03
03
03
03
7F
FF
FE
7C
ENDCHAR
STARTCHAR 266A
ENCODING 9834
SWIDTH 1020 0
DWIDTH 17 0
BBX 13 16 2 -1
BITMAP
0700
0700
0700
0780
07C0
0760
0770
0738
0718
0718
0730
0760
7F00
FF00
FE00
7800
ENDCHAR
STARTCHAR 266B
ENCODING 9835
SWIDTH 1020 0
DWIDTH 17 0
BBX 15 16 1 -1
BITMAP
0F80
0FF0
0FF0
0FFE
0DFE
0C1E
0C06
0C06
0C06
0C06
7C06
FC06
F83E
707E
007C
0038
ENDCHAR
STARTCHAR 266C
ENCODING 9836
SWIDTH 1020 0
DWIDTH 17 0
BBX 15 16 1 -1
BITMAP
0F80
0FF0
0FF0
0DFE
0F9E
0FF6
0DFE
0C1E
0C06
0C06
7C06
FC06
F83E
707E
007C
0038
ENDCHAR
STARTCHAR 266D
ENCODING 9837
SWIDTH 1020 0
DWIDTH 17 0
BBX 9 16 4 -1
BITMAP
C000
C000
C000
C000
C000
C000
C000
DF00
E380
C380
C380
CF00
DE00
DC00
E000
C000
ENDCHAR
STARTCHAR 266E
ENCODING 9838
SWIDTH 1020 0
DWIDTH 17 0
BBX 9 16 4 -1
BITMAP
C000
C000
C000
C000
CF80
FF80
FD80
C180
C180
C180
DF80
FF80
F980
0180
0180
0180
ENDCHAR
STARTCHAR 266F
ENCODING 9839
SWIDTH 1020 0
DWIDTH 17 0
BBX 14 16 1 -1
BITMAP
0060
1860
1860
1860
187C
1FFC
FFE0
F860
1860
187C
1FFC
FFE0
F860
1860
1860
1800
ENDCHAR
STARTCHAR 2713
ENCODING 10003
SWIDTH 1020 0
DWIDTH 17 0
BBX 15 11 0 0
BITMAP
0006
000C
0018
0030
00E0
E1C0
7380
3B80
1E00
0E00
0C00
ENDCHAR
STARTCHAR 2756
ENCODING 10070
SWIDTH 1020 0
DWIDTH 17 0
BBX 15 15 1 -1
BITMAP
0380
0380
07C0
0FE0
0FE0
37D8
7BBC
FC7E
FC7E
7BBC
37D8
0FE0
0FE0
07C0
0380
ENDCHAR
STARTCHAR 2776
ENCODING 10102
SWIDTH 1020 0
DWIDTH 17 0
BBX 17 16 0 -1
BITMAP
07F000
1FFC00
1FFC00
3FFE00
7FBF00
7EFF00
FFBF80
FFBF80
FFBF80
FFBF80
FFBF80
7FBF00
7FBF00
3FFE00
1FFC00
07F000
ENDCHAR
STARTCHAR 2777
ENCODING 10103
SWIDTH 1020 0
DWIDTH 17 0
BBX 17 16 0 -1
BITMAP
07F000
1FFC00
1FFC00
3FFE00
7E3F00
7DEF00
FFEF80
FFDF80
FFBF80
FEFF80
FDFF80
7DFF00
7C1F00
3FFE00
1FFC00
07F000
ENDCHAR
STARTCHAR 2778
ENCODING 10104
SWIDTH 1020 0
DWIDTH 17 0
BBX 17 16 0 -1
BITMAP
07F000
1FFC00
1FFC00
3FFE00
7E3F00
7DEF00
FFEF80
FFEF80
FFBF80
FFEF80
FDEF80
7DEF00
7E3F00
3FFE00
1FFC00
07F000
ENDCHAR
STARTCHAR 2779
ENCODING 10105
SWIDTH 1020 0
DWIDTH 17 0
BBX 17 16 0 -1
BITMAP
07F000
1FFC00
1FFC00
3FFE00
7FDF00
7FBF00
FEDF80
FDDF80
FDDF80
F80F80
FFDF80
7FDF00
7FDF00
3FFE00
1FFC00
07F000
ENDCHAR
STARTCHAR 277A
ENCODING 10106
SWIDTH 1020 0
DWIDTH 17 0
BBX 17 16 0 -1
BITMAP
07F000
1FFC00
1FFC00
3FFE00
7C1F00
7DFF00
FDFF80
FC3F80
FFEF80
FFEF80
FDEF80
7DEF00
7E3F00
3FFE00
1FFC00
07F000
ENDCHAR
STARTCHAR 277B
ENCODING 10107
SWIDTH 1020 0
DWIDTH 17 0
BBX 17 16 0 -1
BITMAP
07F000
1FFC00
1FFC00
3FFE00
7E3F00
7DEF00
FDFF80
FDFF80
FC3F80
FDEF80
FDEF80
7DEF00
7E3F00
3FFE00
1FFC00
07F000
ENDCHAR
STARTCHAR 277C
ENCODING 10108
SWIDTH 1020 0
DWIDTH 17 0
BBX 17 16 0 -1
BITMAP
07F000
1FFC00
1FFC00
3FFE00
7C1F00
7FEF00
FFEF80
FFDF80
FFDF80
FFDF80
FFBF80
7FBF00
7FBF00
3FFE00
1FFC00
07F000
ENDCHAR
STARTCHAR 277D
ENCODING 10109
SWIDTH 1020 0
DWIDTH 17 0
BBX 17 16 0 -1
BITMAP
07F000
1FFC00
1FFC00
3FFE00
7E3F00
7DEF00
FDEF80
FDEF80
FE3F80
FDEF80
FDEF80
7DEF00
7E3F00
3FFE00
1FFC00
07F000
ENDCHAR
STARTCHAR 277E
ENCODING 10110
SWIDTH 1020 0
DWIDTH 17 0
BBX 17 16 0 -1
BITMAP
07F000
1FFC00
1FFC00
3FFE00
7E3F00
7DEF00
FDEF80
FDEF80
FE3F80
FFDF80
FFDF80
7FBF00
7FBF00
3FFE00
1FFC00
07F000
ENDCHAR
STARTCHAR 277F
ENCODING 10111
SWIDTH 1020 0
DWIDTH 17 0
BBX 17 16 0 -1
BITMAP
07F000
1FFC00
1FFC00
3FFE00
7DDF00
7BB700
FDB780
FDB780
FDB780
FDB780
FDB780
7DB700
7DDF00
3FFE00
1FFC00
07F000
ENDCHAR
STARTCHAR 2934
ENCODING 10548
SWIDTH 1020 0
DWIDTH 17 0
BBX 16 13 0 1
BITMAP
000C
000C
000C
001E
0035
000C
000C
000C
0018
0018
0030
01E0
FF80
ENDCHAR
STARTCHAR 2935
ENCODING 10549
SWIDTH 1020 0
DWIDTH 17 0
BBX 16 12 0 0
BITMAP
FF80
01E0
0030
0018
0018
000C
000C
000C
0035
001E
000C
000C
ENDCHAR
STARTCHAR 29BF
ENCODING 10687
SWIDTH 1020 0
DWIDTH 17 0
BBX 16 15 0 -1
BITMAP
07E0
07E0
1C38
300C
6006
63C6
C7E3
CFF3
CFF3
C7E3
63C6
6006
300C
1C38
07E0
ENDCHAR
STARTCHAR 29FA
ENCODING 10746
SWIDTH 1020 0
DWIDTH 17 0
BBX 16 14 0 0
BITMAP
0C30
0C30
0C30
0C30
0C30
0C30
0C30
FFFF
0C30
0C30
0C30
0C30
0C30
0C30
ENDCHAR
STARTCHAR 29FB
ENCODING 10747
SWIDTH 1020 0
DWIDTH 17 0
BBX 15 14 1 0
BITMAP
1BB0
1BB0
1BB0
1BB0
1BB0
1BB0
1BB0
FFFE
1BB0
1BB0
1BB0
1BB0
1BB0
1BB0
ENDCHAR
STARTCHAR 3000
ENCODING 12288
SWIDTH 1020 0
DWIDTH 17 0
BBX 0 0 0 0
BITMAP
ENDCHAR
STARTCHAR 3001
ENCODING 12289
SWIDTH 1020 0
DWIDTH 17 0
BBX 4 3 0 -1
BITMAP
C0
60
30
ENDCHAR
STARTCHAR 3002
ENCODING 12290
SWIDTH 1020 0
DWIDTH 17 0
BBX 5 4 0 -1
BITMAP
70
D8
D8
70
ENDCHAR
STARTCHAR 3003
ENCODING 12291
SWIDTH 1020 0
DWIDTH 17 0
BBX 10 8 3 1
BITMAP
30C0
30C0
30C0
30C0
6180
6180
6180
C700
ENDCHAR
STARTCHAR 3005
ENCODING 12293
SWIDTH 1020 0
DWIDTH 17 0
BBX 11 12 2 0
BITMAP
1800
1800
1800
1FE0
1860
3060
30C0
60C0
DE80
0700
0380
00C0
ENDCHAR
STARTCHAR 3006
ENCODING 12294
SWIDTH 1020 0
DWIDTH 17 0
BBX 16 15 0 -1
BITMAP
0003
0003
0006
000C
0E18
1BD0
30E0
31D0
33B8
6600
6C00
6800
7000
6000
C000
ENDCHAR
STARTCHAR 3007
ENCODING 12295
SWIDTH 1020 0
DWIDTH 17 0
BBX 16 12 0 0
BITMAP
0FF0
381C
6006
6006
C003
C003
C003
C003
6006
6006
381C
0FF0
ENDCHAR
STARTCHAR 3008
ENCODING 12296
SWIDTH 1020 0
DWIDTH 17 0
BBX 8 17 6 -2
BITMAP
03
06
06
06
0C
38
38
70
E0
E0
70
38
38
0C
06
06
03
ENDCHAR
STARTCHAR 3009
ENCODING 12297
SWIDTH 1020 0
DWIDTH 17 0
BBX 8 17 2 -2
BITMAP
C0
60
60
60
30
18
18
0E
07
07
0E
18
18
30
60
60
C0
ENDCHAR
STARTCHAR 300A
ENCODING 12298
SWIDTH 1020 0
DWIDTH 17 0
BBX 11 17 5 -2
BITMAP
0360
06C0
06C0
06C0
1D80
3B00
3B00
7600
DC00
DC00
7600
3B00
3B00
1D80
06C0
06C0
0360
ENDCHAR
STARTCHAR 300B
ENCODING 12299
SWIDTH 1020 0
DWIDTH 17 0
BBX 11 17 0 -2
BITMAP
D800
6C00
6C00
6C00
3600
1B80
1B80
0DC0
06E0
06E0
0DC0
1B80
1B80
3600
6C00
6C00
D800
ENDCHAR
STARTCHAR 300C
ENCODING 12300
SWIDTH 1020 0
DWIDTH 17 0
BBX 7 12 7 3
BITMAP
FE
E0
E0
E0
E0
E0
E0
E0
E0
E0
E0
E0
ENDCHAR
STARTCHAR 300D
ENCODING 12301
SWIDTH 1020 0
DWIDTH 17 0
BBX 7 11 2 -2
BITMAP
0E
0E
0E
0E
0E
0E
0E
0E
0E
0E
FE
ENDCHAR
STARTCHAR 300E
ENCODING 12302
SWIDTH 1020 0
DWIDTH 17 0
BBX 8 12 6 3
BITMAP
FF
E3
E3
EF
E8
E8
E8
E8
E8
E8
E8
F8
ENDCHAR
STARTCHAR 300F
ENCODING 12303
SWIDTH 1020 0
DWIDTH 17 0
BBX 8 11 2 -2
BITMAP
1F
1B
1B
1B
1B
1B
1B
1B
FB
C7
FF
ENDCHAR
STARTCHAR 3010
ENCODING 12304
SWIDTH 1020 0
DWIDTH 17 0
BBX 7 17 7 -2
BITMAP
FE
FC
FC
F8
F0
F0
E0
E0
E0
E0
E0
E0
F0
F0
F8
FC
FE
ENDCHAR
STARTCHAR 3011
ENCODING 12305
SWIDTH 1020 0
DWIDTH 17 0
BBX 7 17 2 -2
BITMAP
FE
7E
7E
3E
1E
1E
0E
0E
0E
0E
0E
0E
1E
1E
3E
7E
FE
ENDCHAR
STARTCHAR 3012
ENCODING 12306
SWIDTH 1020 0
DWIDTH 17 0
BBX 16 15 0 -1
BITMAP
FFFF
FFFF
FFFF
0000
0000
FFFF
FFFF
03C0
03C0
03C0
03C0
03C0
03C0
03C0
03C0
ENDCHAR
STARTCHAR 3013
ENCODING 12307
SWIDTH 1020 0
DWIDTH 17 0
BBX 16 11 0 1
BITMAP
FFFF
FFFF
FFFF
FFFF
0000
0000
0000
FFFF
FFFF
FFFF
FFFF
ENDCHAR
STARTCHAR 3014
ENCODING 12308
SWIDTH 1020 0
DWIDTH 17 0
BBX 7 17 7 -2
BITMAP
06
1C
1C
F0
E0
E0
E0
E0
E0
E0
E0
E0
E0
E0
F0
1C
06
ENDCHAR
STARTCHAR 3015
ENCODING 12309
SWIDTH 1020 0
DWIDTH 17 0
BBX 7 17 2 -2
BITMAP
C0
70
70
1E
0E
0E
0E
0E
0E
0E
0E
0E
0E
0E
1E
70
C0
ENDCHAR
STARTCHAR 3016
ENCODING 12310
SWIDTH 1020 0
DWIDTH 17 0
BBX 9 17 6 -2
BITMAP
FF80
E300
E300
E600
EC00
EC00
E800
E800
E800
E800
E800
E800
EC00
EC00
E600
E300
FF80
ENDCHAR
STARTCHAR 3017
ENCODING 12311
SWIDTH 1020 0
DWIDTH 17 0
BBX 9 17 1 -2
BITMAP
FF80
6380
6380
3380
1B80
1B80
0D80
0D80
0D80
0D80
0D80
0D80
1B80
1B80
3380
6380
FF80
ENDCHAR
STARTCHAR 3018
ENCODING 12312
SWIDTH 1020 0
DWIDTH 17 0
BBX 9 17 6 -2
BITMAP
0780
3C00
3C00
F380
EE00
EC00
EC00
EC00
EC00
EC00
EC00
EC00
EC00
EE00
F380
3C00
0780
ENDCHAR
STARTCHAR 3019
ENCODING 12313
SWIDTH 1020 0
DWIDTH 17 0
BBX 9 17 1 -2
BITMAP
F000
1C00
1C00
E780
3B80
1B80
1B80
1B80
1B80
1B80
1B80
1B80
1B80
3B80
E780
1C00
F000
ENDCHAR
STARTCHAR 301C
ENCODING 12316
SWIDTH 1020 0
DWIDTH 17 0
BBX 16 4 0 4
BITMAP
3C00
6783
C1E6
003C
ENDCHAR
STARTCHAR 301D
ENCODING 12317
SWIDTH 1020 0
DWIDTH 17 0
BBX 9 4 6 10
BITMAP
E600
E600
7300
3980
ENDCHAR
STARTCHAR 301F
ENCODING 12319
SWIDTH 1020 0
DWIDTH 17 0
BBX 9 3 1 -1
BITMAP
CC00
6700
3380
ENDCHAR
STARTCHAR 3020
ENCODING 12320
SWIDTH 1020 0
DWIDTH 17 0
BBX 16 15 0 -1
BITMAP
7FFE
7FFE
7FFE
0000
7FFE
7FFE
63C6
DBDB
D5D5
DBDB
63C6
6C34
37EC
1C38
07E0
ENDCHAR
STARTCHAR 3033
ENCODING 12339
SWIDTH 1020 0
DWIDTH 17 0
BBX 8 16 4 -2
BITMAP
C0
C0
C0
C0
60
60
38
38
1C
1C
0E
0E
0E
03
03
03
ENDCHAR
STARTCHAR 3034
ENCODING 12340
SWIDTH 1020 0
DWIDTH 17 0
BBX 11 16 4 -2
BITMAP
C000
C000
C000
C000
6000
60C0
39A0
38C0
1C00
1C00
0E00
0E00
0E00
0300
0300
0300
ENDCHAR
STARTCHAR 3035
ENCODING 12341
SWIDTH 1020 0
DWIDTH 17 0
BBX 8 16 4 -1
BITMAP
03
03
03
03
0E
0E
0E
1C
1C
38
38
60
60
C0
C0
C0
ENDCHAR
STARTCHAR 303B
ENCODING 12347
SWIDTH 1020 0
DWIDTH 17 0
BBX 8 11 5 1
BITMAP
C0
70
38
1E
78
C0
70
38
1C
06
03
ENDCHAR
STARTCHAR 303C
ENCODING 12348
SWIDTH 1020 0
DWIDTH 17 0
BBX 16 15 0 -1
BITMAP
FFFF
FFFF
C007
C00D
C01B
C033
C0E3
C1C3
C383
C603
CC03
D803
D003
E003
FFFF
ENDCHAR
STARTCHAR 303D
ENCODING 12349
SWIDTH 1020 0
DWIDTH 17 0
BBX 15 14 1 0
BITMAP
3800
3800
69E0
EDB0
0F30
0030
0018
0018
0018
000C
000C
0006
0006
0006
ENDCHAR
STARTCHAR 3041
ENCODING 12353
SWIDTH 1020 0
DWIDTH 17 0
BBX 12 11 2 -2
BITMAP
0E00
0EC0
7F00
1800
1FC0
3BA0
6BB0
CF30
CE30
7860
03C0
ENDCHAR
STARTCHAR 3042
ENCODING 12354
SWIDTH 1020 0
DWIDTH 17 0
BBX 15 15 1 -1
BITMAP
0700
0700
0700
0760
7F80
0C00
0C60
0FF8
1C6C
35C6
6D86
C706
CC0C
7818
0070
ENDCHAR
STARTCHAR 3043
ENCODING 12355
SWIDTH 1020 0
DWIDTH 17 0
BBX 12 8 2 -1
BITMAP
C000
C0C0
C060
C060
C030
6030
6800
3000
ENDCHAR
STARTCHAR 3044
ENCODING 12356
SWIDTH 1020 0
DWIDTH 17 0
BBX 13 11 2 0
BITMAP
C000
C000
C060
C030
C030
C018
C018
C018
6E00
6800
3000
ENDCHAR
STARTCHAR 3045
ENCODING 12357
SWIDTH 1020 0
DWIDTH 17 0
BBX 8 11 5 -2
BITMAP
78
1E
00
3E
F3
03
03
06
06
1C
38
ENDCHAR
STARTCHAR 3046
ENCODING 12358
SWIDTH 1020 0
DWIDTH 17 0
BBX 10 15 3 -1
BITMAP
3C00
3C00
0F80
0000
0000
1F80
F0C0
00C0
00C0
00C0
0180
0180
0700
0E00
1C00
ENDCHAR
STARTCHAR 3047
ENCODING 12359
SWIDTH 1020 0
DWIDTH 17 0
BBX 10 10 3 -2
BITMAP
3C00
0F00
0000
1F00
7700
0E00
1E00
3700
6700
C1C0
ENDCHAR
STARTCHAR 3048
ENCODING 12360
SWIDTH 1020 0
DWIDTH 17 0
BBX 14 14 1 0
BITMAP
0F00
0F00
03E0
0000
03E0
3F60
01C0
0380
0700
0F80
19C0
31C0
61C0
C07C
ENDCHAR
STARTCHAR 3049
ENCODING 12361
SWIDTH 1020 0
DWIDTH 17 0
BBX 12 10 3 -2
BITMAP
3000
3EC0
F060
3030
3780
3CC0
7060
D060
D0C0
7780
ENDCHAR
STARTCHAR 304A
ENCODING 12362
SWIDTH 1020 0
DWIDTH 17 0
BBX 16 14 1 0
BITMAP
1800
1800
1800
1F8C
F806
1803
1800
1BF0
1F18
380C
680C
D80C
D818
7070
ENDCHAR
STARTCHAR 304B
ENCODING 12363
SWIDTH 1020 0
DWIDTH 17 0
BBX 16 14 1 0
BITMAP
0C00
0C00
0C00
0C18
0FCC
FC66
0C63
1863
1860
3060
3060
61C0
CDC0
0780
ENDCHAR
STARTCHAR 304C
ENCODING 12364
SWIDTH 1020 0
DWIDTH 17 0
BBX 16 15 1 0
BITMAP
0006
0C0D
0C0D
0C06
0C18
0FCC
FC66
0C63
1863
1860
3060
3060
61C0
CDC0
0780
ENDCHAR
STARTCHAR 304D
ENCODING 12365
SWIDTH 1020 0
DWIDTH 17 0
BBX 12 16 2 -1
BITMAP
0E00
0E00
0E00
0EC0
7F00
0700
0770
7F80
0380
00C0
3FA0
60E0
C000
C000
7000
1F80
ENDCHAR
STARTCHAR 304E
ENCODING 12366
SWIDTH 1020 0
DWIDTH 17 0
BBX 14 16 2 -1
BITMAP
0E00
0E18
0E18
0ED4
7F18
0700
0770
7F80
0380
00C0
3FA0
60E0
C000
C000
7000
1F80
ENDCHAR
STARTCHAR 304F
ENCODING 12367
SWIDTH 1020 0
DWIDTH 17 0
BBX 7 15 4 -1
BITMAP
0E
0E
0E
1C
1C
38
60
C0
60
38
1C
1C
0E
0E
0E
ENDCHAR
STARTCHAR 3050
ENCODING 12368
SWIDTH 1020 0
DWIDTH 17 0
BBX 11 15 4 -1
BITMAP
0E00
0E00
0E00
1CC0
1DA0
38C0
6000
C000
6000
3800
1C00
1C00
0E00
0E00
0E00
ENDCHAR
STARTCHAR 3051
ENCODING 12369
SWIDTH 1020 0
DWIDTH 17 0
BBX 15 15 1 -1
BITMAP
0030
0030
6030
6030
C03E
CFF0
C030
C030
C030
C030
C030
D060
6060
61C0
0380
ENDCHAR
STARTCHAR 3052
ENCODING 12370
SWIDTH 1020 0
DWIDTH 17 0
BBX 16 16 1 -1
BITMAP
0006
0035
0035
6036
6030
C03E
CFF0
C030
C030
C030
C030
C030
D060
6060
61C0
0380
ENDCHAR
STARTCHAR 3053
ENCODING 12371
SWIDTH 1020 0
DWIDTH 17 0
BBX 12 12 2 0
BITMAP
3E00
07E0
0380
0700
0000
0000
0000
6000
C000
C000
6000
3FF0
ENDCHAR
STARTCHAR 3054
ENCODING 12372
SWIDTH 1020 0
DWIDTH 17 0
BBX 15 14 2 0
BITMAP
000C
000C
3E1A
07EC
0380
0700
0000
0000
0000
6000
C000
C000
6000
3FF0
ENDCHAR
STARTCHAR 3055
ENCODING 12373
SWIDTH 1020 0
DWIDTH 17 0
BBX 12 15 2 -1
BITMAP
0E00
0E00
0E00
0770
FF80
0380
00C0
00C0
3FA0
60E0
C000
C000
C000
7000
1F80
ENDCHAR
STARTCHAR 3056
ENCODING 12374
SWIDTH 1020 0
DWIDTH 17 0
BBX 13 16 2 -1
BITMAP
0030
0E68
0E68
0E30
0760
FF80
0380
00C0
00C0
3FA0
60E0
C000
C000
C000
7000
1F80
ENDCHAR
STARTCHAR 3057
ENCODING 12375
SWIDTH 1020 0
DWIDTH 17 0
BBX 11 14 4 0
BITMAP
C000
C000
C000
C000
C000
C000
C000
C000
C000
C000
C060
C0C0
6380
3E00
ENDCHAR
STARTCHAR 3058
ENCODING 12376
SWIDTH 1020 0
DWIDTH 17 0
BBX 11 14 4 0
BITMAP
C000
C000
C300
CE80
C300
C000
C000
C000
C000
C000
C060
C0C0
6380
3E00
ENDCHAR
STARTCHAR 3059
ENCODING 12377
SWIDTH 1020 0
DWIDTH 17 0
BBX 14 15 1 -1
BITMAP
01C0
01C0
01C0
FFFC
01C0
01C0
0FC0
19C0
19C0
1BC0
0F40
01C0
0380
0700
1C00
ENDCHAR
STARTCHAR 305A
ENCODING 12378
SWIDTH 1020 0
DWIDTH 17 0
BBX 16 16 1 -1
BITMAP
0006
01CD
01CD
01C6
FFFC
01C0
01C0
0FC0
19C0
19C0
1BC0
0F40
01C0
0380
0700
1C00
ENDCHAR
STARTCHAR 305B
ENCODING 12379
SWIDTH 1020 0
DWIDTH 17 0
BBX 16 14 0 0
BITMAP
0030
0030
1830
1830
1830
1BFF
FE30
1830
1830
19E0
1800
1800
0C00
07F8
ENDCHAR
STARTCHAR 305C
ENCODING 12380
SWIDTH 1020 0
DWIDTH 17 0
BBX 17 14 0 0
BITMAP
003300
003300
183680
183300
183000
1BFF00
FE3000
183000
183000
19E000
180000
180000
0C0000
07F800
ENDCHAR
STARTCHAR 305D
ENCODING 12381
SWIDTH 1020 0
DWIDTH 17 0
BBX 15 13 1 -1
BITMAP
1FE0
01C0
0380
0700
0C7E
1FC0
F380
0700
0C00
0C00
0C00
0700
03F0
ENDCHAR
STARTCHAR 305E
ENCODING 12382
SWIDTH 1020 0
DWIDTH 17 0
BBX 15 13 1 -1
BITMAP
1FEC
01DA
038C
0700
0C7E
1FC0
F380
0700
0C00
0C00
0C00
0700
03F0
ENDCHAR
STARTCHAR 305F
ENCODING 12383
SWIDTH 1020 0
DWIDTH 17 0
BBX 15 14 1 0
BITMAP
1800
1800
1800
1F80
F800
1800
19FC
3018
3000
3000
6700
6700
C380
C1FE
ENDCHAR
STARTCHAR 3060
ENCODING 12384
SWIDTH 1020 0
DWIDTH 17 0
BBX 15 14 1 0
BITMAP
180C
180C
181A
1F8C
F800
1800
19FC
3018
3000
3000
6700
6700
C380
C1FE
ENDCHAR
STARTCHAR 3061
ENCODING 12385
SWIDTH 1020 0
DWIDTH 17 0
BBX 13 15 2 -1
BITMAP
0E00
0E00
0E00
0EE0
FF80
1800
1800
3000
37E0
6E30
7018
0018
0030
00E0
0F80
ENDCHAR
STARTCHAR 3062
ENCODING 12386
SWIDTH 1020 0
DWIDTH 17 0
BBX 15 15 2 -1
BITMAP
0E0C
0E0C
0E1A
0EEC
FF80
1800
1800
3000
37E0
6E30
7018
0018
0030
00E0
0F80
ENDCHAR
STARTCHAR 3063
ENCODING 12387
SWIDTH 1020 0
DWIDTH 17 0
BBX 12 8 2 -1
BITMAP
0FC0
F860
0030
0030
0030
0060
03C0
0F00
ENDCHAR
STARTCHAR 3064
ENCODING 12388
SWIDTH 1020 0
DWIDTH 17 0
BBX 16 10 0 0
BITMAP
03F8
FE0C
0006
0003
0003
0003
0006
000C
0038
01E0
ENDCHAR
STARTCHAR 3065
ENCODING 12389
SWIDTH 1020 0
DWIDTH 17 0
BBX 17 14 0 0
BITMAP
000300
000300
000680
000300
03F800
FE0C00
000600
000300
000300
000300
000600
000C00
003800
01E000
ENDCHAR
STARTCHAR 3066
ENCODING 12390
SWIDTH 1020 0
DWIDTH 17 0
BBX 14 12 1 0
BITMAP
007C
FFC0
0380
0700
0700
0C00
0C00
0C00
0C00
0700
0380
01F0
ENDCHAR
STARTCHAR 3067
ENCODING 12391
SWIDTH 1020 0
DWIDTH 17 0
BBX 14 12 1 0
BITMAP
007C
FFC0
0398
0734
0718
0C00
0C00
0C00
0C00
0700
0380
01F0
ENDCHAR
STARTCHAR 3068
ENCODING 12392
SWIDTH 1020 0
DWIDTH 17 0
BBX 10 14 3 0
BITMAP
3000
3000
3000
3000
3000
30C0
1D80
1E00
3000
6000
C000
C000
6000
3FC0
ENDCHAR
STARTCHAR 3069
ENCODING 12393
SWIDTH 1020 0
DWIDTH 17 0
BBX 13 14 3 0
BITMAP
3000
3000
3030
3068
3030
30C0
1D80
1E00
3000
6000
C000
C000
6000
3FC0
ENDCHAR
STARTCHAR 306A
ENCODING 12394
SWIDTH 1020 0
DWIDTH 17 0
BBX 15 15 1 -1
BITMAP
1800
1800
1800
1F98
F80C
1806
3060
3060
6060
C060
0060
07E0
0C78
0C6C
07C0
ENDCHAR
STARTCHAR 306B
ENCODING 12395
SWIDTH 1020 0
DWIDTH 17 0
BBX 13 12 2 0
BITMAP
6000
67F0
C060
C000
C000
C000
C000
C000
C700
D700
63F8
6000
ENDCHAR
STARTCHAR 306C
ENCODING 12396
SWIDTH 1020 0
DWIDTH 17 0
BBX 16 14 0 0
BITMAP
0380
0380
3380
3380
37F8
3D8C
3386
6B86
6A06
CE06
C606
CCFA
79CE
00FB
ENDCHAR
STARTCHAR 306D
ENCODING 12397
SWIDTH 1020 0
DWIDTH 17 0
BBX 16 15 0 -1
BITMAP
1800
1800
1800
1800
18F8
FBCC
1A06
1C06
3806
6806
D806
18FC
19CE
18FB
1800
ENDCHAR
STARTCHAR 306E
ENCODING 12398
SWIDTH 1020 0
DWIDTH 17 0
BBX 15 11 1 0
BITMAP
07E0
1DB8
338C
638C
6386
C706
C706
CC0C
6C0C
3838
01E0
ENDCHAR
STARTCHAR 306F
ENCODING 12399
SWIDTH 1020 0
DWIDTH 17 0
BBX 15 15 1 -1
BITMAP
6030
6030
6030
6030
C7FE
C030
C030
C030
C030
C030
C030
C3F0
D73C
6736
63E0
ENDCHAR
STARTCHAR 3070
ENCODING 12400
SWIDTH 1020 0
DWIDTH 17 0
BBX 16 16 1 -1
BITMAP
0006
6035
6035
6036
6030
C7FE
C030
C030
C030
C030
C030
C030
C3F0
D73C
6736
63E0
ENDCHAR
STARTCHAR 3071
ENCODING 12401
SWIDTH 1020 0
DWIDTH 17 0
BBX 17 16 0 -1
BITMAP
000700
603580
603580
603580
603700
C7FC00
C03000
C03000
C03000
C03000
C03000
C03000
C3F000
D63C00
663600
63E000
ENDCHAR
STARTCHAR 3072
ENCODING 12402
SWIDTH 1020 0
DWIDTH 17 0
BBX 15 13 1 -1
BITMAP
1F00
F430
1838
1834
3036
3030
6030
6030
6030
6060
6060
31C0
1F80
ENDCHAR
STARTCHAR 3073
ENCODING 12403
SWIDTH 1020 0
DWIDTH 17 0
BBX 16 16 1 -1
BITMAP
0006
000D
000D
1F06
F430
1838
1834
3036
3030
6030
6030
6030
6060
6060
31C0
1F80
ENDCHAR
STARTCHAR 3074
ENCODING 12404
SWIDTH 1020 0
DWIDTH 17 0
BBX 16 16 1 -1
BITMAP
000E
001B
001B
1F1B
F436
1838
1834
3036
3030
6030
6030
6030
6060
6060
31C0
1F80
ENDCHAR
STARTCHAR 3075
ENCODING 12405
SWIDTH 1020 0
DWIDTH 17 0
BBX 17 14 0 0
BITMAP
038000
038000
01C000
00E000
00E000
01C000
038000
038000
01C000
00EC00
183600
303300
6CE180
C7C180
ENDCHAR
STARTCHAR 3076
ENCODING 12406
SWIDTH 1020 0
DWIDTH 17 0
BBX 17 14 0 0
BITMAP
038000
038000
01C000
00E000
00EC00
01DA00
038C00
038000
01C000
00EC00
183600
303300
6CE180
C7C180
ENDCHAR
STARTCHAR 3077
ENCODING 12407
SWIDTH 1020 0
DWIDTH 17 0
BBX 17 14 0 0
BITMAP
038000
038000
01C000
00EE00
00EB00
01DB00
038E00
038000
01C000
00EC00
183600
303300
6CE180
C7C180
ENDCHAR
STARTCHAR 3078
ENCODING 12408
SWIDTH 1020 0
DWIDTH 17 0
BBX 16 7 0 2
BITMAP
0E00
1B80
31C0
E0E0
0030
001C
0007
ENDCHAR
STARTCHAR 3079
ENCODING 12409
SWIDTH 1020 0
DWIDTH 17 0
BBX 16 9 0 2
BITMAP
0018
0034
0E18
1B80
31C0
E0E0
0030
001C
0007
ENDCHAR
STARTCHAR 307A
ENCODING 12410
SWIDTH 1020 0
DWIDTH 17 0
BBX 16 9 0 2
BITMAP
0038
00EC
0EEC
1BB8
31C0
E0E0
0030
001C
0007
ENDCHAR
STARTCHAR 307B
ENCODING 12411
SWIDTH 1020 0
DWIDTH 17 0
BBX 15 15 1 -1
BITMAP
6000
6000
67FC
6030
C030
C030
C7FC
C030
C030
C030
C030
C3F0
D73C
6736
63E0
ENDCHAR
STARTCHAR 307C
ENCODING 12412
SWIDTH 1020 0
DWIDTH 17 0
BBX 16 16 1 -1
BITMAP
0006
600D
600D
67FA
6030
C030
C030
C7FC
C030
C030
C030
C030
C3F0
D73C
6736
63E0
ENDCHAR
STARTCHAR 307D
ENCODING 12413
SWIDTH 1020 0
DWIDTH 17 0
BBX 16 16 1 -1
BITMAP
000E
601B
601B
67FB
6036
C030
C030
C7FC
C030
C030
C030
C030
C3F0
D73C
6736
63E0
ENDCHAR
STARTCHAR 307E
ENCODING 12414
SWIDTH 1020 0
DWIDTH 17 0
BBX 12 15 2 -1
BITMAP
0700
0700
0700
FFF0
0700
0700
0700
7FE0
0700
0700
0700
7F80
C760
C730
7E00
ENDCHAR
STARTCHAR 307F
ENCODING 12415
SWIDTH 1020 0
DWIDTH 17 0
BBX 16 13 1 -1
BITMAP
3F80
0380
0380
0398
0718
0718
1FF8
741E
CC33
D830
7060
01C0
0380
ENDCHAR
STARTCHAR 3080
ENCODING 12416
SWIDTH 1020 0
DWIDTH 17 0
BBX 15 15 1 -1
BITMAP
0C00
0C00
0C00
0FD8
FC0C
0C06
0C00
3C00
6C00
6C00
6800
380C
180C
180C
0FF8
ENDCHAR
STARTCHAR 3081
ENCODING 12417
SWIDTH 1020 0
DWIDTH 17 0
BBX 16 15 0 -1
BITMAP
00E0
00E0
18E0
18E0
1BF0
1CEC
19C6
39C6
6D83
6D83
C603
C606
6D86
381C
00F0
ENDCHAR
STARTCHAR 3082
ENCODING 12418
SWIDTH 1020 0
DWIDTH 17 0
BBX 12 15 2 -1
BITMAP
1800
1800
1800
1800
FF00
1800
1800
1860
FF30
3030
3030
3030
3030
1860
0FC0
ENDCHAR
STARTCHAR 3083
ENCODING 12419
SWIDTH 1020 0
DWIDTH 17 0
BBX 12 10 2 -2
BITMAP
0E00
67E0
3730
3830
E830
1BE0
0E00
0E00
0700
0700
ENDCHAR
STARTCHAR 3084
ENCODING 12420
SWIDTH 1020 0
DWIDTH 17 0
BBX 16 15 0 -1
BITMAP
0380
0380
01C0
30E0
30FC
1BC6
0E03
3C03
E606
061C
0380
0380
01C0
01C0
01C0
ENDCHAR
STARTCHAR 3085
ENCODING 12421
SWIDTH 1020 0
DWIDTH 17 0
BBX 12 11 2 -2
BITMAP
0700
0380
6FC0
6BA0
D3B0
D3B0
63A0
6FC0
0700
0700
0E00
ENDCHAR
STARTCHAR 3086
ENCODING 12422
SWIDTH 1020 0
DWIDTH 17 0
BBX 15 15 1 -1
BITMAP
0380
0380
01C0
61C0
63F8
CF4C
D9C6
D1C6
E1C6
CDC6
674C
63F8
01C0
0380
0700
ENDCHAR
STARTCHAR 3087
ENCODING 12423
SWIDTH 1020 0
DWIDTH 17 0
BBX 10 10 3 -1
BITMAP
0E00
0E00
0FC0
0E00
0E00
0E00
7E00
CF80
CEC0
7C00
ENDCHAR
STARTCHAR 3088
ENCODING 12424
SWIDTH 1020 0
DWIDTH 17 0
BBX 12 15 2 -1
BITMAP
0700
0700
0700
0700
07F0
0700
0700
0700
0700
0700
0700
7F80
C760
C730
7E00
ENDCHAR
STARTCHAR 3089
ENCODING 12425
SWIDTH 1020 0
DWIDTH 17 0
BBX 12 15 3 -1
BITMAP
1E00
1E00
0780
0000
6000
6000
6000
6000
DFC0
F060
C030
0030
0060
01C0
3F00
ENDCHAR
STARTCHAR 308A
ENCODING 12426
SWIDTH 1020 0
DWIDTH 17 0
BBX 10 15 3 -1
BITMAP
00C0
00C0
C0C0
C0C0
C0C0
C0C0
C0C0
D0C0
E0C0
60C0
00C0
0180
0180
0700
1E00
ENDCHAR
STARTCHAR 308B
ENCODING 12427
SWIDTH 1020 0
DWIDTH 17 0
BBX 13 13 2 -1
BITMAP
3FE0
00C0
0380
0700
0E00
1BE0
3E30
6018
C018
0F18
1BB0
18E0
0FC0
ENDCHAR
STARTCHAR 308C
ENCODING 12428
SWIDTH 1020 0
DWIDTH 17 0
BBX 16 15 0 -1
BITMAP
1800
1800
1800
1800
19F0
FD98
1A18
1C18
3818
3818
6818
D818
181B
180E
1800
ENDCHAR
STARTCHAR 308D
ENCODING 12429
SWIDTH 1020 0
DWIDTH 17 0
BBX 13 13 2 -1
BITMAP
3FE0
00C0
0380
0700
0E00
1BE0
3E30
6018
C018
0018
0030
00E0
0F80
ENDCHAR
STARTCHAR 308E
ENCODING 12430
SWIDTH 1020 0
DWIDTH 17 0
BBX 13 10 2 -2
BITMAP
1800
1800
FBE0
1B30
1E18
1818
3818
6818
D830
1860
ENDCHAR
STARTCHAR 308F
ENCODING 12431
SWIDTH 1020 0
DWIDTH 17 0
BBX 15 15 1 -1
BITMAP
1800
1800
1800
1800
FC00
1BF8
1B0C
1C06
1806
3806
6806
D80C
1818
1870
1800
ENDCHAR
STARTCHAR 3090
ENCODING 12432
SWIDTH 1020 0
DWIDTH 17 0
BBX 14 14 1 0
BITMAP
0F80
0F80
3B80
0380
0700
0700
0FE0
3C38
6C0C
CC0C
D80C
DBD8
DB68
73F0
ENDCHAR
STARTCHAR 3091
ENCODING 12433
SWIDTH 1020 0
DWIDTH 17 0
BBX 17 14 0 0
BITMAP
0FF000
0FF000
00E000
01C000
03F000
0E1800
180C00
07CC00
0CE800
07F000
1C0600
360300
63B180
C1E180
ENDCHAR
STARTCHAR 3092
ENCODING 12434
SWIDTH 1020 0
DWIDTH 17 0
BBX 13 15 2 0
BITMAP
0E00
0E00
0E00
0EC0
FF00
1800
1800
3F00
63B8
C3E0
0F80
1B80
3000
3000
1FE0
ENDCHAR
STARTCHAR 3093
ENCODING 12435
SWIDTH 1020 0
DWIDTH 17 0
BBX 14 14 2 0
BITMAP
0E00
0E00
0E00
0E00
1800
1800
1800
3000
3700
3B80
6380
638C
C398
C0F0
ENDCHAR
STARTCHAR 3094
ENCODING 12436
SWIDTH 1020 0
DWIDTH 17 0
BBX 13 15 3 -1
BITMAP
3C30
3C30
0FA8
0030
0000
3F80
E0C0
00C0
00C0
00C0
0180
0180
0700
0E00
1C00
ENDCHAR
STARTCHAR 3095
ENCODING 12437
SWIDTH 1020 0
DWIDTH 17 0
BBX 13 11 2 -2
BITMAP
1800
1800
1800
1F60
FBB0
1B98
3398
3380
6380
C700
1E00
ENDCHAR
STARTCHAR 3096
ENCODING 12438
SWIDTH 1020 0
DWIDTH 17 0
BBX 12 11 3 -2
BITMAP
00C0
60C0
60C0
CFF0
C0C0
C0C0
C0C0
C0C0
D0C0
6180
0F00
ENDCHAR
STARTCHAR 309B
ENCODING 12443
SWIDTH 1020 0
DWIDTH 17 0
BBX 4 3 0 12
BITMAP
D0
D0
D0
ENDCHAR
STARTCHAR 309C
ENCODING 12444
SWIDTH 1020 0
DWIDTH 17 0
BBX 5 4 0 8
BITMAP
70
D8
D8
70
ENDCHAR
STARTCHAR 309D
ENCODING 12445
SWIDTH 1020 0
DWIDTH 17 0
BBX 10 7 3 2
BITMAP
E000
3C00
0F00
0180
00C0
0180
0F00
ENDCHAR
STARTCHAR 309E
ENCODING 12446
SWIDTH 1020 0
DWIDTH 17 0
BBX 10 9 3 2
BITMAP
0180
0740
E180
3C00
0F00
0180
00C0
0180
0F00
ENDCHAR
STARTCHAR 309F
ENCODING 12447
SWIDTH 1020 0
DWIDTH 17 0
BBX 12 16 2 -1
BITMAP
0700
0700
0700
0E00
0FF0
0E00
1800
1800
1BC0
3E60
3030
3030
6030
6030
DE60
C7C0
ENDCHAR
STARTCHAR 30A0
ENCODING 12448
SWIDTH 1020 0
DWIDTH 17 0
BBX 8 5 4 4
BITMAP
FF
00
00
00
FF
ENDCHAR
STARTCHAR 30A1
ENCODING 12449
SWIDTH 1020 0
DWIDTH 17 0
BBX 9 8 3 -2
BITMAP
FF80
0180
1D00
1C00
1C00
1C00
3000
6000
ENDCHAR
STARTCHAR 30A2
ENCODING 12450
SWIDTH 1020 0
DWIDTH 17 0
BBX 13 11 2 0
BITMAP
FFF8
0018
0730
0760
0700
0700
0700
0E00
0E00
1800
3000
ENDCHAR
STARTCHAR 30A3
ENCODING 12451
SWIDTH 1020 0
DWIDTH 17 0
BBX 9 10 3 -2
BITMAP
0180
0180
0700
1E00
F600
0E00
0E00
0E00
0E00
0E00
ENDCHAR
STARTCHAR 30A4
ENCODING 12452
SWIDTH 1020 0
DWIDTH 17 0
BBX 11 13 2 -1
BITMAP
0060
0060
00C0
0380
0700
0F00
3B00
E700
0700
0700
0700
0700
0700
ENDCHAR
STARTCHAR 30A5
ENCODING 12453
SWIDTH 1020 0
DWIDTH 17 0
BBX 11 11 3 -1
BITMAP
0E00
0E00
0E00
FFE0
C060
C060
0060
00C0
00C0
0780
1E00
ENDCHAR
STARTCHAR 30A6
ENCODING 12454
SWIDTH 1020 0
DWIDTH 17 0
BBX 13 14 2 0
BITMAP
0700
0700
0700
0700
FFF8
C018
C018
C018
0018
0030
0030
0060
03C0
0F00
ENDCHAR
STARTCHAR 30A7
ENCODING 12455
SWIDTH 1020 0
DWIDTH 17 0
BBX 11 6 3 -1
BITMAP
7FC0
0E00
0E00
0E00
0E00
FFE0
ENDCHAR
STARTCHAR 30A8
ENCODING 12456
SWIDTH 1020 0
DWIDTH 17 0
BBX 15 9 1 1
BITMAP
3FF8
0380
0380
0380
0380
0380
0380
0380
FFFE
ENDCHAR
STARTCHAR 30A9
ENCODING 12457
SWIDTH 1020 0
DWIDTH 17 0
BBX 10 10 4 -2
BITMAP
0300
0300
FFC0
0300
0F00
1D00
3B00
E300
0300
0F00
ENDCHAR
STARTCHAR 30AA
ENCODING 12458
SWIDTH 1020 0
DWIDTH 17 0
BBX 15 14 1 0
BITMAP
0060
0060
0060
0060
FFFE
0060
01E0
03A0
0760
0C60
3860
E060
0060
03E0
ENDCHAR
STARTCHAR 30AB
ENCODING 12459
SWIDTH 1020 0
DWIDTH 17 0
BBX 14 15 1 0
BITMAP
0700
0700
0700
0700
0700
FFFC
070C
070C
0C0C
0C0C
180C
180C
3018
6018
C1F0
ENDCHAR
STARTCHAR 30AC
ENCODING 12460
SWIDTH 1020 0
DWIDTH 17 0
BBX 16 15 1 0
BITMAP
0706
070D
070D
0706
0700
FFFC
070C
070C
0C0C
0C0C
180C
180C
3018
6018
C1F0
ENDCHAR
STARTCHAR 30AD
ENCODING 12461
SWIDTH 1020 0
DWIDTH 17 0
BBX 15 15 1 -1
BITMAP
0700
0700
0700
0700
03F8
7F80
0380
0380
03FE
FF80
01C0
01C0
01C0
01C0
01C0
ENDCHAR
STARTCHAR 30AE
ENCODING 12462
SWIDTH 1020 0
DWIDTH 17 0
BBX 15 15 1 -1
BITMAP
070C
070C
071A
070C
03F8
7F80
0380
0380
03FE
FF80
01C0
01C0
01C0
01C0
01C0
ENDCHAR
STARTCHAR 30AF
ENCODING 12463
SWIDTH 1020 0
DWIDTH 17 0
BBX 11 14 3 0
BITMAP
1C00
1C00
1C00
1FE0
3060
3060
60C0
C0C0
0180
0180
0700
0E00
3C00
E000
ENDCHAR
STARTCHAR 30B0
ENCODING 12464
SWIDTH 1020 0
DWIDTH 17 0
BBX 14 15 3 0
BITMAP
0018
1C34
1C34
1C18
1FE0
3060
3060
60C0
C0C0
0180
0180
0700
0E00
3C00
E000
ENDCHAR
STARTCHAR 30B1
ENCODING 12465
SWIDTH 1020 0
DWIDTH 17 0
BBX 15 14 1 0
BITMAP
0C00
0C00
0C00
0C00
1800
1FFE
3030
6030
C030
0060
0060
01C0
0380
0F00
ENDCHAR
STARTCHAR 30B2
ENCODING 12466
SWIDTH 1020 0
DWIDTH 17 0
BBX 16 14 1 0
BITMAP
0C06
0C06
0C0D
0C06
1800
1FFE
3030
6030
C030
0060
0060
01C0
0380
0F00
ENDCHAR
STARTCHAR 30B3
ENCODING 12467
SWIDTH 1020 0
DWIDTH 17 0
BBX 12 10 2 0
BITMAP
FFF0
0030
0030
0030
0030
0030
0030
0030
FFF0
0030
ENDCHAR
STARTCHAR 30B4
ENCODING 12468
SWIDTH 1020 0
DWIDTH 17 0
BBX 15 14 2 0
BITMAP
000C
000C
001A
000C
FFF0
0030
0030
0030
0030
0030
0030
0030
FFF0
0030
ENDCHAR
STARTCHAR 30B5
ENCODING 12469
SWIDTH 1020 0
DWIDTH 17 0
BBX 15 15 1 -1
BITMAP
0030
0030
1830
1830
1830
FFFE
1830
1830
1830
1830
0030
0060
0060
01C0
0780
ENDCHAR
STARTCHAR 30B6
ENCODING 12470
SWIDTH 1020 0
DWIDTH 17 0
BBX 16 16 1 -1
BITMAP
0006
0035
0035
1836
1830
1830
FFFE
1830
1830
1830
1830
0030
0060
0060
01C0
0780
ENDCHAR
STARTCHAR 30B7
ENCODING 12471
SWIDTH 1020 0
DWIDTH 17 0
BBX 13 12 2 0
BITMAP
6000
3800
0000
0000
C000
7018
0030
0060
00C0
0380
0F00
7800
ENDCHAR
STARTCHAR 30B8
ENCODING 12472
SWIDTH 1020 0
DWIDTH 17 0
BBX 13 14 2 0
BITMAP
0030
0030
7068
1830
0000
0000
E000
3018
0030
0060
00C0
0380
0F00
7800
ENDCHAR
STARTCHAR 30B9
ENCODING 12473
SWIDTH 1020 0
DWIDTH 17 0
BBX 13 11 2 0
BITMAP
7FE0
0060
0060
00C0
00C0
0380
0740
0E60
1830
3018
E018
ENDCHAR
STARTCHAR 30BA
ENCODING 12474
SWIDTH 1020 0
DWIDTH 17 0
BBX 15 14 2 0
BITMAP
000C
000C
001A
7FEC
0060
0060
00C0
00C0
0380
0740
0E60
1830
3018
E018
ENDCHAR
STARTCHAR 30BB
ENCODING 12475
SWIDTH 1020 0
DWIDTH 17 0
BBX 14 13 1 1
BITMAP
1800
1800
1800
1800
19F8
1F9C
F830
1860
19C0
1800
1800
1800
0FF0
ENDCHAR
STARTCHAR 30BC
ENCODING 12476
SWIDTH 1020 0
DWIDTH 17 0
BBX 16 13 1 1
BITMAP
1806
1806
180D
1806
19F8
1F9C
F830
1860
19C0
1800
1800
1800
0FF0
ENDCHAR
STARTCHAR 30BD
ENCODING 12477
SWIDTH 1020 0
DWIDTH 17 0
BBX 12 12 2 0
BITMAP
C030
C030
6030
6030
3060
0060
00C0
00C0
0380
0700
0E00
1800
ENDCHAR
STARTCHAR 30BE
ENCODING 12478
SWIDTH 1020 0
DWIDTH 17 0
BBX 15 15 2 0
BITMAP
000C
001A
001A
C00C
C030
6030
6030
3060
0060
00C0
00C0
0380
0700
0E00
1800
ENDCHAR
STARTCHAR 30BF
ENCODING 12479
SWIDTH 1020 0
DWIDTH 17 0
BBX 11 14 3 0
BITMAP
1C00
1C00
1C00
1FE0
3060
3060
60C0
DCC0
0F80
0180
0740
0E00
3C00
E000
ENDCHAR
STARTCHAR 30C0
ENCODING 12480
SWIDTH 1020 0
DWIDTH 17 0
BBX 14 15 3 0
BITMAP
0018
1C34
1C34
1C18
1FE0
3060
3060
60C0
DCC0
0F80
0180
0740
0E00
3C00
E000
ENDCHAR
STARTCHAR 30C1
ENCODING 12481
SWIDTH 1020 0
DWIDTH 17 0
BBX 16 15 0 -1
BITMAP
0018
0018
01F0
3F80
01C0
01C0
01C0
FFFF
01C0
01C0
01C0
0380
0380
0600
0C00
ENDCHAR
STARTCHAR 30C2
ENCODING 12482
SWIDTH 1020 0
DWIDTH 17 0
BBX 16 15 0 -1
BITMAP
0018
0018
01F6
3F8D
01C6
01C0
01C0
FFFF
01C0
01C0
01C0
0380
0380
0600
0C00
ENDCHAR
STARTCHAR 30C3
ENCODING 12483
SWIDTH 1020 0
DWIDTH 17 0
BBX 11 8 3 -2
BITMAP
1C00
CE60
6E60
60C0
00C0
0180
0700
0E00
ENDCHAR
STARTCHAR 30C4
ENCODING 12484
SWIDTH 1020 0
DWIDTH 17 0
BBX 14 13 1 -1
BITMAP
0C00
0C00
C70C
670C
6018
0018
0030
0030
0060
01C0
0380
0700
0C00
ENDCHAR
STARTCHAR 30C5
ENCODING 12485
SWIDTH 1020 0
DWIDTH 17 0
BBX 16 16 1 -1
BITMAP
0006
000D
000D
0C06
0C00
C70C
670C
6018
0018
0030
0030
0060
01C0
0380
0700
0C00
ENDCHAR
STARTCHAR 30C6
ENCODING 12486
SWIDTH 1020 0
DWIDTH 17 0
BBX 15 12 1 0
BITMAP
3FF8
0000
0000
0000
FFFE
01C0
01C0
01C0
0380
0380
0700
1C00
ENDCHAR
STARTCHAR 30C7
ENCODING 12487
SWIDTH 1020 0
DWIDTH 17 0
BBX 16 15 1 0
BITMAP
0006
000D
000D
3FF6
0000
0000
0000
FFFE
01C0
01C0
01C0
0380
0380
0700
1C00
ENDCHAR
STARTCHAR 30C8
ENCODING 12488
SWIDTH 1020 0
DWIDTH 17 0
BBX 9 15 5 -1
BITMAP
C000
C000
C000
C000
C000
C000
FC00
C700
C180
C000
C000
C000
C000
C000
C000
ENDCHAR
STARTCHAR 30C9
ENCODING 12489
SWIDTH 1020 0
DWIDTH 17 0
BBX 10 15 5 -1
BITMAP
C000
C000
C180
C340
C180
C000
FC00
C700
C180
C000
C000
C000
C000
C000
C000
ENDCHAR
STARTCHAR 30CA
ENCODING 12490
SWIDTH 1020 0
DWIDTH 17 0
BBX 14 15 1 -1
BITMAP
0380
0380
0380
0380
0380
FFFC
0380
0380
0380
0380
0700
0700
0C00
1800
3000
ENDCHAR
STARTCHAR 30CB
ENCODING 12491
SWIDTH 1020 0
DWIDTH 17 0
BBX 15 8 1 2
BITMAP
3FF8
0000
0000
0000
0000
0000
0000
FFFE
ENDCHAR
STARTCHAR 30CC
ENCODING 12492
SWIDTH 1020 0
DWIDTH 17 0
BBX 12 11 2 0
BITMAP
7FE0
0060
0060
00C0
18C0
0E80
0700
0E80
18C0
3060
E030
ENDCHAR
STARTCHAR 30CD
ENCODING 12493
SWIDTH 1020 0
DWIDTH 17 0
BBX 15 15 1 -1
BITMAP
0380
0380
0380
0380
3FF0
0030
01E0
0380
0FB8
3B8C
E386
0380
0380
0380
0380
ENDCHAR
STARTCHAR 30CE
ENCODING 12494
SWIDTH 1020 0
DWIDTH 17 0
BBX 11 12 2 0
BITMAP
0060
0060
0060
0060
00C0
00C0
0380
0380
0700
0E00
3800
E000
ENDCHAR
STARTCHAR 30CF
ENCODING 12495
SWIDTH 1020 0
DWIDTH 17 0
BBX 16 9 0 1
BITMAP
0C00
0CE0
0C30
1818
180C
3006
3006
6003
C003
ENDCHAR
STARTCHAR 30D0
ENCODING 12496
SWIDTH 1020 0
DWIDTH 17 0
BBX 16 11 0 1
BITMAP
0006
000D
0C06
0CE0
0C30
1818
180C
3006
3006
6003
C003
ENDCHAR
STARTCHAR 30D1
ENCODING 12497
SWIDTH 1020 0
DWIDTH 17 0
BBX 16 11 0 1
BITMAP
000E
001B
0C1B
0CEE
0C30
1818
180C
3006
3006
6003
C003
ENDCHAR
STARTCHAR 30D2
ENCODING 12498
SWIDTH 1020 0
DWIDTH 17 0
BBX 11 12 3 0
BITMAP
C000
C000
C060
C1C0
CF00
FC00
C000
C000
C000
C000
C000
7FE0
ENDCHAR
STARTCHAR 30D3
ENCODING 12499
SWIDTH 1020 0
DWIDTH 17 0
BBX 12 14 3 0
BITMAP
0060
0060
C0D0
C060
C000
C0C0
CF80
FC00
C000
C000
C000
C000
C000
7FC0
ENDCHAR
STARTCHAR 30D4
ENCODING 12500
SWIDTH 1020 0
DWIDTH 17 0
BBX 12 14 3 0
BITMAP
00E0
00E0
C1B0
C1B0
C0E0
C0C0
CF80
FC00
C000
C000
C000
C000
C000
7FC0
ENDCHAR
STARTCHAR 30D5
ENCODING 12501
SWIDTH 1020 0
DWIDTH 17 0
BBX 13 11 2 0
BITMAP
FFF8
0018
0018
0018
0030
0030
0060
00C0
0380
0F00
3800
ENDCHAR
STARTCHAR 30D6
ENCODING 12502
SWIDTH 1020 0
DWIDTH 17 0
BBX 15 15 2 0
BITMAP
000C
001A
001A
000C
FFF8
0018
0018
0018
0030
0030
0060
00C0
0380
0F00
3800
ENDCHAR
STARTCHAR 30D7
ENCODING 12503
SWIDTH 1020 0
DWIDTH 17 0
BBX 15 15 2 0
BITMAP
001C
0036
0036
0036
FFFC
0018
0018
0018
0030
0030
0060
00C0
0380
0F00
3800
ENDCHAR
STARTCHAR 30D8
ENCODING 12504
SWIDTH 1020 0
DWIDTH 17 0
BBX 16 7 0 2
BITMAP
0E00
1B80
31C0
60E0
C030
001C
0007
ENDCHAR
STARTCHAR 30D9
ENCODING 12505
SWIDTH 1020 0
DWIDTH 17 0
BBX 16 8 0 2
BITMAP
0018
0E34
1B98
31C0
60E0
C030
001C
0007
ENDCHAR
STARTCHAR 30DA
ENCODING 12506
SWIDTH 1020 0
DWIDTH 17 0
BBX 16 9 0 2
BITMAP
0038
00EC
0EEC
1BB8
31C0
60E0
C030
001C
0007
ENDCHAR
STARTCHAR 30DB
ENCODING 12507
SWIDTH 1020 0
DWIDTH 17 0
BBX 15 14 1 0
BITMAP
0380
0380
0380
0380
7FFC
0380
0380
0380
3398
338C
6386
C386
0380
0F80
ENDCHAR
STARTCHAR 30DC
ENCODING 12508
SWIDTH 1020 0
DWIDTH 17 0
BBX 16 14 1 0
BITMAP
0386
0386
038D
0386
7FFC
0380
0380
0380
3398
338C
6386
C386
0380
0F80
ENDCHAR
STARTCHAR 30DD
ENCODING 12509
SWIDTH 1020 0
DWIDTH 17 0
BBX 16 15 1 0
BITMAP
000E
039B
039B
039B
038E
7FF8
0380
0380
0380
3398
338C
6386
C386
0380
0F80
ENDCHAR
STARTCHAR 30DE
ENCODING 12510
SWIDTH 1020 0
DWIDTH 17 0
BBX 14 10 1 1
BITMAP
FFFC
000C
0018
0018
0030
3860
0F40
0380
01C0
0060
ENDCHAR
STARTCHAR 30DF
ENCODING 12511
SWIDTH 1020 0
DWIDTH 17 0
BBX 10 13 3 -1
BITMAP
3E00
0780
00C0
0000
3C00
0F00
0180
0000
0000
F000
1E00
0780
00C0
ENDCHAR
STARTCHAR 30E0
ENCODING 12512
SWIDTH 1020 0
DWIDTH 17 0
BBX 14 12 1 0
BITMAP
0C00
0C00
0C00
0C00
0C00
0C00
1860
1830
1818
3078
37CC
FC0C
ENDCHAR
STARTCHAR 30E1
ENCODING 12513
SWIDTH 1020 0
DWIDTH 17 0
BBX 12 12 2 0
BITMAP
0030
0030
0030
0060
1E60
0740
03C0
03A0
0730
0E00
3800
E000
ENDCHAR
STARTCHAR 30E2
ENCODING 12514
SWIDTH 1020 0
DWIDTH 17 0
BBX 14 11 1 0
BITMAP
7FF0
0C00
0C00
0C00
FFFC
0C00
0C00
0C00
0C00
0C00
07F0
ENDCHAR
STARTCHAR 30E3
ENCODING 12515
SWIDTH 1020 0
DWIDTH 17 0
BBX 12 11 2 -2
BITMAP
3000
3000
18F0
1FB0
F860
0EC0
0E00
0E00
0700
0700
0700
ENDCHAR
STARTCHAR 30E4
ENCODING 12516
SWIDTH 1020 0
DWIDTH 17 0
BBX 15 13 1 -1
BITMAP
3000
3000
183C
1BE6
1F0C
F418
0C30
0700
0700
0700
0380
0380
0380
ENDCHAR
STARTCHAR 30E5
ENCODING 12517
SWIDTH 1020 0
DWIDTH 17 0
BBX 12 7 2 -1
BITMAP
3F80
0380
0380
0380
0700
0700
FFF0
ENDCHAR
STARTCHAR 30E6
ENCODING 12518
SWIDTH 1020 0
DWIDTH 17 0
BBX 15 9 1 1
BITMAP
3FF0
0030
0030
0030
0030
0060
0060
0060
FFFE
ENDCHAR
STARTCHAR 30E7
ENCODING 12519
SWIDTH 1020 0
DWIDTH 17 0
BBX 8 9 4 -2
BITMAP
FF
03
03
FF
03
03
03
FF
03
ENDCHAR
STARTCHAR 30E8
ENCODING 12520
SWIDTH 1020 0
DWIDTH 17 0
BBX 11 12 2 0
BITMAP
FFE0
0060
0060
0060
0060
7FE0
0060
0060
0060
0060
FFE0
0060
ENDCHAR
STARTCHAR 30E9
ENCODING 12521
SWIDTH 1020 0
DWIDTH 17 0
BBX 13 12 2 0
BITMAP
3FE0
0000
0000
0000
FFF8
0018
0030
0030
0060
00C0
0780
1E00
ENDCHAR
STARTCHAR 30EA
ENCODING 12522
SWIDTH 1020 0
DWIDTH 17 0
BBX 10 15 3 -1
BITMAP
00C0
00C0
C0C0
C0C0
C0C0
C0C0
C0C0
C0C0
C0C0
00C0
00C0
0180
0180
0700
1E00
ENDCHAR
STARTCHAR 30EB
ENCODING 12523
SWIDTH 1020 0
DWIDTH 17 0
BBX 17 12 0 0
BITMAP
00E000
00E000
0CE000
0CE000
0CE000
0CE000
0CE000
18E000
18E180
30E300
60EE00
C0F800
ENDCHAR
STARTCHAR 30EC
ENCODING 12524
SWIDTH 1020 0
DWIDTH 17 0
BBX 10 12 4 0
BITMAP
C000
C000
C000
C000
C000
C000
C000
C0C0
C180
C300
DE00
F800
ENDCHAR
STARTCHAR 30ED
ENCODING 12525
SWIDTH 1020 0
DWIDTH 17 0
BBX 12 10 2 0
BITMAP
FFF0
C030
C030
C030
C030
C030
C030
C030
FFF0
C030
ENDCHAR
STARTCHAR 30EE
ENCODING 12526
SWIDTH 1020 0
DWIDTH 17 0
BBX 10 9 3 -2
BITMAP
FFC0
C0C0
C0C0
C0C0
00C0
0180
0180
0700
1E00
ENDCHAR
STARTCHAR 30EF
ENCODING 12527
SWIDTH 1020 0
DWIDTH 17 0
BBX 13 12 2 -1
BITMAP
FFF8
C018
C018
C018
C018
0018
0018
0030
0030
0060
03C0
0F00
ENDCHAR
STARTCHAR 30F0
ENCODING 12528
SWIDTH 1020 0
DWIDTH 17 0
BBX 15 15 1 -1
BITMAP
0060
0060
0060
0060
3FFC
1860
1860
1860
1860
FFFE
0060
0060
0060
0060
0060
ENDCHAR
STARTCHAR 30F1
ENCODING 12529
SWIDTH 1020 0
DWIDTH 17 0
BBX 15 9 1 1
BITMAP
3FF8
0018
0030
03A0
0380
0380
0380
0380
FFFE
ENDCHAR
STARTCHAR 30F2
ENCODING 12530
SWIDTH 1020 0
DWIDTH 17 0
BBX 12 11 2 0
BITMAP
7FF0
0030
0030
FFF0
0030
0060
0060
00C0
0380
0F00
3800
ENDCHAR
STARTCHAR 30F3
ENCODING 12531
SWIDTH 1020 0
DWIDTH 17 0
BBX 13 11 2 0
BITMAP
E000
3000
1818
0018
0030
0030
0060
00C0
0380
0F00
7800
ENDCHAR
STARTCHAR 30F4
ENCODING 12532
SWIDTH 1020 0
DWIDTH 17 0
BBX 15 15 2 0
BITMAP
000C
071A
071A
070C
0700
FFF8
C018
C018
C018
0018
0030
0030
0060
03C0
0F00
ENDCHAR
STARTCHAR 30F5
ENCODING 12533
SWIDTH 1020 0
DWIDTH 17 0
BBX 11 11 3 -2
BITMAP
0E00
0E00
0E00
FFE0
0E60
1C60
1C60
3060
60C0
C0C0
0780
ENDCHAR
STARTCHAR 30F6
ENCODING 12534
SWIDTH 1020 0
DWIDTH 17 0
BBX 12 11 3 -2
BITMAP
3000
3000
3000
7FF0
6180
C180
0180
0700
0700
0E00
3C00
ENDCHAR
STARTCHAR 30F7
ENCODING 12535
SWIDTH 1020 0
DWIDTH 17 0
BBX 15 16 2 -1
BITMAP
000C
001A
001A
000C
FFF8
C018
C018
C018
C018
0018
0018
0030
0030
0060
03C0
0F00
ENDCHAR
STARTCHAR 30F8
ENCODING 12536
SWIDTH 1020 0
DWIDTH 17 0
BBX 16 15 1 -1
BITMAP
0066
0066
006D
0066
3FFC
1860
1860
1860
1860
FFFE
0060
0060
0060
0060
0060
ENDCHAR
STARTCHAR 30F9
ENCODING 12537
SWIDTH 1020 0
DWIDTH 17 0
BBX 16 13 1 1
BITMAP
0006
0006
000D
0006
3FF8
0018
0030
03A0
0380
0380
0380
0380
FFFE
ENDCHAR
STARTCHAR 30FA
ENCODING 12538
SWIDTH 1020 0
DWIDTH 17 0
BBX 15 15 2 0
BITMAP
000C
001A
001A
000C
7FF0
0030
0030
FFF0
0030
0060
0060
00C0
0380
0F00
3800
ENDCHAR
STARTCHAR 30FB
ENCODING 12539
SWIDTH 1020 0
DWIDTH 17 0
BBX 4 2 6 5
BITMAP
F0
F0
ENDCHAR
STARTCHAR 30FC
ENCODING 12540
SWIDTH 1020 0
DWIDTH 17 0
BBX 15 2 1 5
BITMAP
C000
7FFE
ENDCHAR
STARTCHAR 30FD
ENCODING 12541
SWIDTH 1020 0
DWIDTH 17 0
BBX 9 6 4 3
BITMAP
E000
3C00
0E00
0300
0180
0180
ENDCHAR
STARTCHAR 30FE
ENCODING 12542
SWIDTH 1020 0
DWIDTH 17 0
BBX 10 8 4 3
BITMAP
0180
0340
E180
3C00
0E00
0300
0180
0180
ENDCHAR
STARTCHAR 30FF
ENCODING 12543
SWIDTH 1020 0
DWIDTH 17 0
BBX 12 13 2 -1
BITMAP
FFF0
0030
0030
0030
0030
0030
0030
0030
0030
0030
0030
0030
0030
ENDCHAR
STARTCHAR 31F0
ENCODING 12784
SWIDTH 1020 0
DWIDTH 17 0
BBX 9 11 4 -2
BITMAP
3800
3800
3F80
6180
C180
0180
0300
0300
0E00
3C00
E000
ENDCHAR
STARTCHAR 31F1
ENCODING 12785
SWIDTH 1020 0
DWIDTH 17 0
BBX 12 10 2 -2
BITMAP
7000
1800
0000
E030
3030
0060
00C0
0380
0F00
7800
ENDCHAR
STARTCHAR 31F2
ENCODING 12786
SWIDTH 1020 0
DWIDTH 17 0
BBX 12 10 2 -2
BITMAP
7FC0
00C0
00C0
0380
0380
0780
0EC0
1860
3030
E030
ENDCHAR
STARTCHAR 31F3
ENCODING 12787
SWIDTH 1020 0
DWIDTH 17 0
BBX 7 11 6 -2
BITMAP
E0
E0
E0
E0
EC
E6
E0
E0
E0
E0
E0
ENDCHAR
STARTCHAR 31F4
ENCODING 12788
SWIDTH 1020 0
DWIDTH 17 0
BBX 11 10 3 -2
BITMAP
7FC0
00C0
00C0
30C0
1D80
0E80
0780
0EC0
3C60
E000
ENDCHAR
STARTCHAR 31F5
ENCODING 12789
SWIDTH 1020 0
DWIDTH 17 0
BBX 13 8 2 -1
BITMAP
1800
1B80
18C0
3060
3030
6030
6018
C018
ENDCHAR
STARTCHAR 31F6
ENCODING 12790
SWIDTH 1020 0
DWIDTH 17 0
BBX 9 10 4 -2
BITMAP
C000
C000
C180
CF00
FC00
C000
C000
C000
C000
7F80
ENDCHAR
STARTCHAR 31F7
ENCODING 12791
SWIDTH 1020 0
DWIDTH 17 0
BBX 11 9 3 -2
BITMAP
FFE0
0060
0060
0060
00C0
00C0
0180
0F00
3C00
ENDCHAR
STARTCHAR 31F8
ENCODING 12792
SWIDTH 1020 0
DWIDTH 17 0
BBX 12 6 2 0
BITMAP
1E00
3700
6380
C0C0
0060
0030
ENDCHAR
STARTCHAR 31F9
ENCODING 12793
SWIDTH 1020 0
DWIDTH 17 0
BBX 13 11 2 -2
BITMAP
0700
0700
0700
7FF0
0700
0700
3760
3730
6718
C718
0F00
ENDCHAR
STARTCHAR 31FA
ENCODING 12794
SWIDTH 1020 0
DWIDTH 17 0
BBX 12 9 2 -2
BITMAP
0E00
0E00
0E00
0E00
1B80
18C0
1860
37D0
FE30
ENDCHAR
STARTCHAR 31FB
ENCODING 12795
SWIDTH 1020 0
DWIDTH 17 0
BBX 11 10 3 -2
BITMAP
7FC0
0000
0000
FFE0
0060
0060
00C0
0180
0700
1E00
ENDCHAR
STARTCHAR 31FC
ENCODING 12796
SWIDTH 1020 0
DWIDTH 17 0
BBX 8 11 4 -2
BITMAP
03
C3
C3
C3
C3
C3
C3
0E
0E
1C
38
ENDCHAR
STARTCHAR 31FD
ENCODING 12797
SWIDTH 1020 0
DWIDTH 17 0
BBX 13 9 2 -1
BITMAP
0380
1B80
1B80
1B80
1B80
3398
33B0
63A0
C3C0
ENDCHAR
STARTCHAR 31FE
ENCODING 12798
SWIDTH 1020 0
DWIDTH 17 0
BBX 10 10 4 -2
BITMAP
C000
C000
C000
C000
C000
C0C0
C180
C300
DE00
F800
ENDCHAR
STARTCHAR 31FF
ENCODING 12799
SWIDTH 1020 0
DWIDTH 17 0
BBX 11 9 3 -2
BITMAP
FFE0
C060
C060
C060
C060
C060
C060
FFE0
C060
ENDCHAR
STARTCHAR 3231
ENCODING 12849
SWIDTH 1020 0
DWIDTH 17 0
BBX 17 16 0 -1
BITMAP
343600
6DD300
6DD300
6DD300
DEFD80
CDB180
CDB180
DC3180
DFFE80
DC3180
D4F980
D4F980
CDD580
6DB700
6E3300
343600
ENDCHAR
STARTCHAR 3232
ENCODING 12850
SWIDTH 1020 0
DWIDTH 17 0
BBX 17 16 0 -1
BITMAP
31C600
61C300
61C300
6FFD00
C38180
C7FD80
C60D80
CE0D80
DBFD80
D60D80
C60D80
C7FD80
C60D80
660D00
663D00
300600
ENDCHAR
STARTCHAR 3239
ENCODING 12857
SWIDTH 1020 0
DWIDTH 17 0
BBX 17 16 0 -1
BITMAP
36E600
66EB00
66EB00
66ED00
CCED80
CCE180
DCFE80
D5E180
CCE180
CCE180
CC3180
CC3180
CC3180
6C3500
6C1B00
341A00
ENDCHAR
STARTCHAR 3251
ENCODING 12881
SWIDTH 1020 0
DWIDTH 17 0
BBX 17 16 0 -1
BITMAP
07F000
1C1C00
1C1C00
300600
679B00
6DDB00
C1D980
C1D980
C39980
C61980
CC1980
6C1B00
6FDB00
300600
1C1C00
07F000
ENDCHAR
STARTCHAR 3252
ENCODING 12882
SWIDTH 1020 0
DWIDTH 17 0
BBX 17 16 0 -1
BITMAP
07F000
1C1C00
1C1C00
300600
6E3B00
6BAD00
C38D80
C38D80
C61980
CC3180
D8E180
68E300
6FBD00
300600
1C1C00
07F000
ENDCHAR
STARTCHAR 3253
ENCODING 12883
SWIDTH 1020 0
DWIDTH 17 0
BBX 17 16 0 -1
BITMAP
07F000
1C1C00
1C1C00
300600
6E3B00
6BAD00
C38D80
C38D80
C63980
CC0D80
D8ED80
68ED00
6FBB00
300600
1C1C00
07F000
ENDCHAR
STARTCHAR 3254
ENCODING 12884
SWIDTH 1020 0
DWIDTH 17 0
BBX 17 16 0 -1
BITMAP
07F000
1C1C00
1C1C00
300600
6E0D00
6B9D00
C3B580
C3B580
C6ED80
CCFE80
D80D80
680D00
6F8D00
300600
1C1C00
07F000
ENDCHAR
STARTCHAR 3255
ENCODING 12885
SWIDTH 1020 0
DWIDTH 17 0
BBX 17 16 0 -1
BITMAP
07F000
1C1C00
1C1C00
300600
6EFD00
6BA300
C3A180
C3A180
C63980
CC0D80
D80D80
68ED00
6FBB00
300600
1C1C00
07F000
ENDCHAR
STARTCHAR 3256
ENCODING 12886
SWIDTH 1020 0
DWIDTH 17 0
BBX 17 16 0 -1
BITMAP
07F000
1C1C00
1C1C00
300600
6E3B00
6BAD00
C3A180
C3A180
C6F980
CCED80
D8ED80
68ED00
6FBB00
300600
1C1C00
07F000
ENDCHAR
STARTCHAR 3257
ENCODING 12887
SWIDTH 1020 0
DWIDTH 17 0
BBX 17 16 0 -1
BITMAP
07F000
1C1C00
1C1C00
300600
6EFD00
6B8D00
C38D80
C38D80
C60D80
CC1980
D81980
681B00
6F9B00
300600
1C1C00
07F000
ENDCHAR
STARTCHAR 3258
ENCODING 12888
SWIDTH 1020 0
DWIDTH 17 0
BBX 17 16 0 -1
BITMAP
07F000
1C1C00
1C1C00
300600
6E3B00
6BAD00
C3AD80
C3AD80
C63980
CCED80
D8ED80
68ED00
6FBB00
300600
1C1C00
07F000
ENDCHAR
STARTCHAR 3259
ENCODING 12889
SWIDTH 1020 0
DWIDTH 17 0
BBX 17 16 0 -1
BITMAP
07F000
1C1C00
1C1C00
300600
6E3B00
6BAD00
C3AD80
C3AD80
C63D80
CC1980
D81980
681B00
6F9B00
300600
1C1C00
07F000
ENDCHAR
STARTCHAR 325A
ENCODING 12890
SWIDTH 1020 0
DWIDTH 17 0
BBX 17 16 0 -1
BITMAP
07F000
1C1C00
1C1C00
300600
6E3B00
6BAD00
C3AD80
C3AD80
CEED80
C3AD80
DBAD80
6BAD00
6E3B00
300600
1C1C00
07F000
ENDCHAR
STARTCHAR 325B
ENCODING 12891
SWIDTH 1020 0
DWIDTH 17 0
BBX 17 16 0 -1
BITMAP
07F000
1C1C00
1C1C00
300600
6E1B00
6BBB00
C39980
C39980
CE1980
C39980
DB9980
6B9B00
6E1B00
300600
1C1C00
07F000
ENDCHAR
STARTCHAR 325C
ENCODING 12892
SWIDTH 1020 0
DWIDTH 17 0
BBX 17 16 0 -1
BITMAP
07F000
1C1C00
1C1C00
300600
6E3B00
6BAD00
C38D80
C38D80
CE1980
C3B180
DBA180
6BA300
6EFD00
300600
1C1C00
07F000
ENDCHAR
STARTCHAR 325D
ENCODING 12893
SWIDTH 1020 0
DWIDTH 17 0
BBX 17 16 0 -1
BITMAP
07F000
1C1C00
1C1C00
300600
6E3B00
6BAD00
C38D80
C38D80
CE3980
C38D80
DBAD80
6BAD00
6E3B00
300600
1C1C00
07F000
ENDCHAR
STARTCHAR 325E
ENCODING 12894
SWIDTH 1020 0
DWIDTH 17 0
BBX 17 16 0 -1
BITMAP
07F000
1C1C00
1C1C00
300600
6E0D00
6B9D00
C3B580
C3B580
CEED80
C3BE80
DB8D80
6B8D00
6E0D00
300600
1C1C00
07F000
ENDCHAR
STARTCHAR 325F
ENCODING 12895
SWIDTH 1020 0
DWIDTH 17 0
BBX 17 16 0 -1
BITMAP
07F000
1C1C00
1C1C00
300600
6EFD00
6BA300
C3A180
C3B980
CE0D80
C38D80
DB8D80
6BAD00
6E3B00
300600
1C1C00
07F000
ENDCHAR
STARTCHAR 32A4
ENCODING 12964
SWIDTH 1020 0
DWIDTH 17 0
BBX 17 16 0 -1
BITMAP
07F000
1C1C00
1C1C00
31C600
61C300
61C300
C1C180
C1F980
C1C180
C1C180
C1C180
61C300
6FFD00
300600
1C1C00
07F000
ENDCHAR
STARTCHAR 32A5
ENCODING 12965
SWIDTH 1020 0
DWIDTH 17 0
BBX 17 16 0 -1
BITMAP
07F000
1C1C00
1C1C00
31C600
61C300
6FFD00
D9CD80
D9CD80
D9CD80
DFFD80
C1C180
61C300
61C300
31C600
1C1C00
07F000
ENDCHAR
STARTCHAR 32A6
ENCODING 12966
SWIDTH 1020 0
DWIDTH 17 0
BBX 17 16 0 -1
BITMAP
07F000
1C1C00
1C1C00
300600
6FFD00
61C300
C1C180
C1F180
C1D980
C1C180
C1C180
61C300
61C300
300600
1C1C00
07F000
ENDCHAR
STARTCHAR 32A7
ENCODING 12967
SWIDTH 1020 0
DWIDTH 17 0
BBX 17 16 0 -1
BITMAP
07F000
1C1C00
1C1C00
31C600
61C300
6FFD00
C38180
C60180
CDF980
D8E180
C0E180
60E300
67FD00
300600
1C1C00
07F000
ENDCHAR
STARTCHAR 32A8
ENCODING 12968
SWIDTH 1020 0
DWIDTH 17 0
BBX 17 16 0 -1
BITMAP
07F000
1C1C00
1C1C00
338600
638300
6FFD00
C60180
C60180
CFF980
DA1980
C61980
661B00
67FB00
300600
1C1C00
07F000
ENDCHAR
STARTCHAR 32B1
ENCODING 12977
SWIDTH 1020 0
DWIDTH 17 0
BBX 17 16 0 -1
BITMAP
07F000
1C1C00
1C1C00
300600
6E3B00
6BA300
C3A180
C3A180
CEF980
C3AD80
DBAD80
6BAD00
6E3B00
300600
1C1C00
07F000
ENDCHAR
STARTCHAR 32B2
ENCODING 12978
SWIDTH 1020 0
DWIDTH 17 0
BBX 17 16 0 -1
BITMAP
07F000
1C1C00
1C1C00
300600
6EFD00
6B8D00
C38D80
C38D80
CE0D80
C39980
DB9980
6B9B00
6E1B00
300600
1C1C00
07F000
ENDCHAR
STARTCHAR 32B3
ENCODING 12979
SWIDTH 1020 0
DWIDTH 17 0
BBX 17 16 0 -1
BITMAP
07F000
1C1C00
1C1C00
300600
6E3B00
6BAD00
C3AD80
C3AD80
CE3980
C3AD80
DBAD80
6BAD00
6E3B00
300600
1C1C00
07F000
ENDCHAR
STARTCHAR 32B4
ENCODING 12980
SWIDTH 1020 0
DWIDTH 17 0
BBX 17 16 0 -1
BITMAP
07F000
1C1C00
1C1C00
300600
6E3B00
6BAD00
C3AD80
C3AD80
CE3D80
C39980
DB9980
6B9B00
6E1B00
300600
1C1C00
07F000
ENDCHAR
STARTCHAR 32B5
ENCODING 12981
SWIDTH 1020 0
DWIDTH 17 0
BBX 17 16 0 -1
BITMAP
07F000
1C1C00
1C1C00
300600
63BB00
67AD00
CDAD80
CDAD80
DBAD80
DFED80
C3AD80
63AD00
63BB00
300600
1C1C00
07F000
ENDCHAR
STARTCHAR 32B6
ENCODING 12982
SWIDTH 1020 0
DWIDTH 17 0
BBX 17 16 0 -1
BITMAP
07F000
1C1C00
1C1C00
300600
639B00
67BB00
CD9980
CD9980
DB9980
DFD980
C39980
639B00
639B00
300600
1C1C00
07F000
ENDCHAR
STARTCHAR 32B7
ENCODING 12983
SWIDTH 1020 0
DWIDTH 17 0
BBX 17 16 0 -1
BITMAP
07F000
1C1C00
1C1C00
300600
63BB00
67AD00
CD8D80
CD8D80
DB9980
DFD180
C3B180
63A300
63BD00
300600
1C1C00
07F000
ENDCHAR
STARTCHAR 32B8
ENCODING 12984
SWIDTH 1020 0
DWIDTH 17 0
BBX 17 16 0 -1
BITMAP
07F000
1C1C00
1C1C00
300600
63BB00
67AD00
CD8D80
CD8D80
DBB980
DFCD80
C3AD80
63AD00
63BB00
300600
1C1C00
07F000
ENDCHAR
STARTCHAR 32B9
ENCODING 12985
SWIDTH 1020 0
DWIDTH 17 0
BBX 17 16 0 -1
BITMAP
07F000
1C1C00
1C1C00
300600
660D00
6E1D00
DA3580
DA3580
D6ED80
DFBE80
C60D80
660D00
660D00
300600
1C1C00
07F000
ENDCHAR
STARTCHAR 32BA
ENCODING 12986
SWIDTH 1020 0
DWIDTH 17 0
BBX 17 16 0 -1
BITMAP
07F000
1C1C00
1C1C00
300600
63BD00
67A300
CDA180
CDB980
DB8D80
DFCD80
C3AD80
63AD00
63BB00
300600
1C1C00
07F000
ENDCHAR
STARTCHAR 32BB
ENCODING 12987
SWIDTH 1020 0
DWIDTH 17 0
BBX 17 16 0 -1
BITMAP
07F000
1C1C00
1C1C00
300600
63BB00
67AD00
CDA180
CDA180
DBB980
DFED80
C3AD80
63AD00
63BB00
300600
1C1C00
07F000
ENDCHAR
STARTCHAR 32BC
ENCODING 12988
SWIDTH 1020 0
DWIDTH 17 0
BBX 17 16 0 -1
BITMAP
07F000
1C1C00
1C1C00
300600
63BD00
678D00
CD8D80
CD8D80
DB9980
DFD980
C39980
639B00
639B00
300600
1C1C00
07F000
ENDCHAR
STARTCHAR 32BD
ENCODING 12989
SWIDTH 1020 0
DWIDTH 17 0
BBX 17 16 0 -1
BITMAP
07F000
1C1C00
1C1C00
300600
63BB00
67AD00
CDAD80
CDAD80
DBB980
DFED80
C3AD80
63AD00
63BB00
300600
1C1C00
07F000
ENDCHAR
STARTCHAR 32BE
ENCODING 12990
SWIDTH 1020 0
DWIDTH 17 0
BBX 17 16 0 -1
BITMAP
07F000
1C1C00
1C1C00
300600
63BB00
67AD00
CDAD80
CDAD80
DBB980
DFD980
C39980
639B00
639B00
300600
1C1C00
07F000
ENDCHAR
STARTCHAR 32BF
ENCODING 12991
SWIDTH 1020 0
DWIDTH 17 0
BBX 17 16 0 -1
BITMAP
07F000
1C1C00
1C1C00
300600
6FBB00
68ED00
D8ED80
DEED80
C3AD80
C3AD80
DBAD80
6BAD00
6E3B00
300600
1C1C00
07F000
ENDCHAR
STARTCHAR 32D0
ENCODING 13008
SWIDTH 1020 0
DWIDTH 17 0
BBX 17 16 0 -1
BITMAP
07F000
1C1C00
1C1C00
300600
6FFD00
600D00
C1D980
C1D180
C1C180
C1C180
C38180
638300
660300
300600
1C1C00
07F000
ENDCHAR
STARTCHAR 32D1
ENCODING 13009
SWIDTH 1020 0
DWIDTH 17 0
BBX 17 16 0 -1
BITMAP
07F000
1C1C00
1C1C00
300600
603300
603300
C0E180
C3C180
CEC180
C1C180
C1C180
61C300
61C300
300600
1C1C00
07F000
ENDCHAR
STARTCHAR 32D2
ENCODING 13010
SWIDTH 1020 0
DWIDTH 17 0
BBX 17 16 0 -1
BITMAP
07F000
1C1C00
1C1C00
300600
61C300
61C300
CFF980
CC1980
CC1980
C01980
C03180
60E300
63C300
300600
1C1C00
07F000
ENDCHAR
STARTCHAR 32D3
ENCODING 13011
SWIDTH 1020 0
DWIDTH 17 0
BBX 17 16 0 -1
BITMAP
07F000
1C1C00
1C1C00
300600
600300
600300
C7F180
C1C180
C1C180
C1C180
C1C180
6FFD00
600300
300600
1C1C00
07F000
ENDCHAR
STARTCHAR 32D4
ENCODING 13012
SWIDTH 1020 0
DWIDTH 17 0
BBX 17 16 0 -1
BITMAP
07F000
1C1C00
1C1C00
300600
603300
603300
CFFD80
C0F180
C1D180
C3B180
C63180
6C3300
60F300
300600
1C1C00
07F000
ENDCHAR
STARTCHAR 32D5
ENCODING 13013
SWIDTH 1020 0
DWIDTH 17 0
BBX 17 16 0 -1
BITMAP
07F000
1C1C00
1C1C00
300600
61C300
61C300
CFF980
C1D980
C1D980
C39980
C39980
661B00
6CF300
300600
1C1C00
07F000
ENDCHAR
STARTCHAR 32D6
ENCODING 13014
SWIDTH 1020 0
DWIDTH 17 0
BBX 17 16 0 -1
BITMAP
07F000
1C1C00
1C1C00
300600
61C300
61F300
C7C180
C1C180
C1DD80
CFE180
C0E180
60E300
60E300
300600
1C1C00
07F000
ENDCHAR
STARTCHAR 32D7
ENCODING 13015
SWIDTH 1020 0
DWIDTH 17 0
BBX 17 16 0 -1
BITMAP
07F000
1C1C00
1C1C00
338600
638300
63FB00
C61980
C61980
CC1980
C03180
C03180
60E300
61C300
378600
1C1C00
07F000
ENDCHAR
STARTCHAR 32D8
ENCODING 13016
SWIDTH 1020 0
DWIDTH 17 0
BBX 17 16 0 -1
BITMAP
07F000
1C1C00
1C1C00
338600
638300
638300
C7FD80
C63180
CC3180
C03180
C03180
60E300
63C300
300600
1C1C00
07F000
ENDCHAR
STARTCHAR 32D9
ENCODING 13017
SWIDTH 1020 0
DWIDTH 17 0
BBX 17 16 0 -1
BITMAP
07F000
1C1C00
1C1C00
300600
600300
67FB00
C01980
C01980
C01980
C01980
C01980
67FB00
600300
300600
1C1C00
07F000
ENDCHAR
STARTCHAR 32DA
ENCODING 13018
SWIDTH 1020 0
DWIDTH 17 0
BBX 17 16 0 -1
BITMAP
07F000
1C1C00
1C1C00
300600
663300
663300
DFFD80
C63180
C63180
C03180
C03180
60E300
61C300
300600
1C1C00
07F000
ENDCHAR
STARTCHAR 32DB
ENCODING 13019
SWIDTH 1020 0
DWIDTH 17 0
BBX 17 16 0 -1
BITMAP
07F000
1C1C00
1C1C00
300600
660300
638300
C00180
CC0D80
C61980
C03180
C0E180
61C300
678300
300600
1C1C00
07F000
ENDCHAR
STARTCHAR 32DC
ENCODING 13020
SWIDTH 1020 0
DWIDTH 17 0
BBX 17 16 0 -1
BITMAP
07F000
1C1C00
1C1C00
300600
600300
67F300
C03180
C03180
C0E180
C1C180
C3A180
663300
6C1B00
300600
1C1C00
07F000
ENDCHAR
STARTCHAR 32DD
ENCODING 13021
SWIDTH 1020 0
DWIDTH 17 0
BBX 17 16 0 -1
BITMAP
07F000
1C1C00
1C1C00
300600
660300
660300
C6F980
DF9980
C63180
C60180
C60180
660300
63F300
300600
1C1C00
07F000
ENDCHAR
STARTCHAR 32DE
ENCODING 13022
SWIDTH 1020 0
DWIDTH 17 0
BBX 17 16 0 -1
BITMAP
07F000
1C1C00
1C1C00
300600
600300
6C0300
C60D80
C60D80
C01980
C01980
C03180
60E300
63C300
300600
1C1C00
07F000
ENDCHAR
STARTCHAR 32DF
ENCODING 13023
SWIDTH 1020 0
DWIDTH 17 0
BBX 17 16 0 -1
BITMAP
07F000
1C1C00
1C1C00
31C600
61C300
61FB00
C39980
C79980
CDD180
C0F180
C0E180
61C300
678300
300600
1C1C00
07F000
ENDCHAR
STARTCHAR 32E0
ENCODING 13024
SWIDTH 1020 0
DWIDTH 17 0
BBX 17 16 0 -1
BITMAP
07F000
1C1C00
1C1C00
300600
60F300
67C300
C0E180
C0E180
DFFD80
C0E180
C0E180
61C300
678300
300600
1C1C00
07F000
ENDCHAR
STARTCHAR 32E1
ENCODING 13025
SWIDTH 1020 0
DWIDTH 17 0
BBX 17 16 0 -1
BITMAP
07F000
1C1C00
1C1C00
300600
638300
6DC300
C6CD80
C60D80
C01980
C01980
C03180
60E300
63C300
300600
1C1C00
07F000
ENDCHAR
STARTCHAR 32E2
ENCODING 13026
SWIDTH 1020 0
DWIDTH 17 0
BBX 17 16 0 -1
BITMAP
07F000
1C1C00
1C1C00
300600
6FFB00
600300
C00180
DFFD80
C0E180
C0E180
C0E180
61C300
678300
300600
1C1C00
07F000
ENDCHAR
STARTCHAR 32E3
ENCODING 13027
SWIDTH 1020 0
DWIDTH 17 0
BBX 17 16 0 -1
BITMAP
07F000
1C1C00
1C1C00
300600
638300
638300
C38180
C3C180
C3B180
C38180
C38180
638300
638300
300600
1C1C00
07F000
ENDCHAR
STARTCHAR 32E5
ENCODING 13029
SWIDTH 1020 0
DWIDTH 17 0
BBX 17 16 0 -1
BITMAP
07F000
1C1C00
1C1C00
300600
600300
600300
C7F180
C00180
C00180
C00180
C00180
6FFD00
600300
300600
1C1C00
07F000
ENDCHAR
STARTCHAR 32E9
ENCODING 13033
SWIDTH 1020 0
DWIDTH 17 0
BBX 17 16 0 -1
BITMAP
07F000
1C1C00
1C1C00
300600
600300
638300
C3B180
C61980
C61980
CC0D80
D80D80
600300
600300
300600
1C1C00
07F000
ENDCHAR
STARTCHAR 32EC
ENCODING 13036
SWIDTH 1020 0
DWIDTH 17 0
BBX 17 16 0 -1
BITMAP
07F000
1C1C00
1C1C00
300600
600300
600300
C00180
C78180
CDE180
D83D80
C00180
600300
600300
300600
1C1C00
07F000
ENDCHAR
STARTCHAR 32ED
ENCODING 13037
SWIDTH 1020 0
DWIDTH 17 0
BBX 17 16 0 -1
BITMAP
07F000
1C1C00
1C1C00
300600
61C300
61C300
DFFD80
C1C180
CDD980
CDD980
D9CD80
61C300
63C300
300600
1C1C00
07F000
ENDCHAR
STARTCHAR 32FA
ENCODING 13050
SWIDTH 1020 0
DWIDTH 17 0
BBX 17 16 0 -1
BITMAP
07F000
1C1C00
1C1C00
300600
600300
6FFB00
CC1980
CC1980
CC1980
CC1980
CFF980
6C1B00
600300
300600
1C1C00
07F000
ENDCHAR
STARTCHAR 3303
ENCODING 13059
SWIDTH 1020 0
DWIDTH 17 0
BBX 16 15 0 -1
BITMAP
FF80
FF80
0380
1A00
18FF
1800
3000
3000
0000
0600
3600
3600
36E0
66C0
C780
ENDCHAR
STARTCHAR 330D
ENCODING 13069
SWIDTH 1020 0
DWIDTH 17 0
BBX 16 16 0 -1
BITMAP
3000
3000
3000
FEFF
36E3
36E3
36E3
66E3
CEFF
0000
6600
6600
66FF
0600
0C00
3800
ENDCHAR
STARTCHAR 3314
ENCODING 13076
SWIDTH 1020 0
DWIDTH 17 0
BBX 16 15 0 -1
BITMAP
1800
1800
1800
1F80
F800
0C00
0FC0
7C00
06FF
06E3
06E3
00E3
00E3
00FF
00E3
ENDCHAR
STARTCHAR 3318
ENCODING 13080
SWIDTH 1020 0
DWIDTH 17 0
BBX 15 16 1 -1
BITMAP
0D80
675C
675C
7C00
6C7E
CC06
0C06
180C
7038
0000
3000
3000
3400
3700
6F80
FB80
ENDCHAR
STARTCHAR 3322
ENCODING 13090
SWIDTH 1020 0
DWIDTH 17 0
BBX 16 16 0 -1
BITMAP
3000
3030
3030
3F98
F383
3606
300C
1FB8
0000
0780
1E00
0600
7FE0
0600
0600
0C00
ENDCHAR
STARTCHAR 3323
ENCODING 13091
SWIDTH 1020 0
DWIDTH 17 0
BBX 17 16 0 -1
BITMAP
300000
30F000
30F000
3F9980
F60300
300600
300C00
1FB800
300000
300000
300000
3C0000
360000
300000
300000
300000
ENDCHAR
STARTCHAR 3326
ENCODING 13094
SWIDTH 1020 0
DWIDTH 17 0
BBX 14 15 2 0
BITMAP
0E00
DB00
DB00
CE00
C000
F000
D800
C000
C000
C760
0760
0760
076C
0E68
1870
ENDCHAR
STARTCHAR 3327
ENCODING 13095
SWIDTH 1020 0
DWIDTH 17 0
BBX 14 15 2 -1
BITMAP
C000
C000
C000
C000
F000
D800
C000
C000
C380
00C0
000C
0018
0030
0060
03C0
ENDCHAR
STARTCHAR 332B
ENCODING 13099
SWIDTH 1020 0
DWIDTH 17 0
BBX 17 16 0 -1
BITMAP
01E000
03B000
03B000
35B000
36E000
663F80
638000
C38000
000000
600600
6D8600
F5C700
6C1A80
683600
60E600
3DC600
ENDCHAR
STARTCHAR 3336
ENCODING 13110
SWIDTH 1020 0
DWIDTH 17 0
BBX 17 16 0 -1
BITMAP
001800
301F00
301F00
681B00
CC3300
078300
000600
001C00
600000
7C0600
6C1A00
EC1A00
35EA00
181A80
303700
E03600
ENDCHAR
STARTCHAR 333B
ENCODING 13115
SWIDTH 1020 0
DWIDTH 17 0
BBX 16 16 0 -1
BITMAP
03C0
06E0
06E0
3AE0
6DC0
C63F
0380
0000
01C0
33A0
19C0
6000
3380
0600
0C00
3800
ENDCHAR
STARTCHAR 3349
ENCODING 13129
SWIDTH 1020 0
DWIDTH 17 0
BBX 15 15 1 -1
BITMAP
7000
7000
1C00
0700
7000
1C00
0766
F066
1C66
0766
0066
0006
0006
000C
0038
ENDCHAR
STARTCHAR 334A
ENCODING 13130
SWIDTH 1020 0
DWIDTH 17 0
BBX 17 16 0 -1
BITMAP
783300
0E3300
0E3300
383300
0C3300
000300
780600
0E1C00
0C0000
1A0600
6C1A00
681A00
6BEA00
CC1A80
CC3700
C03600
ENDCHAR
STARTCHAR 334D
ENCODING 13133
SWIDTH 1020 0
DWIDTH 17 0
BBX 15 15 1 -1
BITMAP
0700
0700
6700
3400
19FE
3400
E700
0000
6030
61D0
71D0
69D0
61D6
63B4
6738
ENDCHAR
STARTCHAR 3351
ENCODING 13137
SWIDTH 1020 0
DWIDTH 17 0
BBX 15 15 1 -1
BITMAP
CC00
CC00
CDC0
CDAC
CDCC
0C18
1830
7060
6000
61D0
79D0
6DD0
61D6
63B4
6738
ENDCHAR
STARTCHAR 3357
ENCODING 13143
SWIDTH 1020 0
DWIDTH 17 0
BBX 15 15 1 -1
BITMAP
FF00
FF00
C760
C756
0766
0C0C
1818
6030
6000
6000
7800
6C00
6000
6000
6000
ENDCHAR
STARTCHAR 337B
ENCODING 13179
SWIDTH 1020 0
DWIDTH 17 0
BBX 17 16 0 -1
BITMAP
000E00
7F8D00
7F8D00
180C00
6AFF80
6ACC00
6ACD80
3ACD80
19F580
FFD580
19D500
19D500
19D600
1BB680
1BAD00
1A3B00
ENDCHAR
STARTCHAR 337C
ENCODING 13180
SWIDTH 1020 0
DWIDTH 17 0
BBX 17 16 0 -1
BITMAP
001800
1FD780
1FD780
F6F680
D6D680
D6D680
D5FE80
D5D680
F9DA80
D3D680
D0F680
D7D680
D5D680
F5D680
0DD780
0FD000
ENDCHAR
STARTCHAR 337D
ENCODING 13181
SWIDTH 1020 0
DWIDTH 17 0
BBX 17 16 0 -1
BITMAP
180000
19FF80
19FF80
180C00
180C00
FF8C00
18EC00
18EC00
18EF00
18EC00
34EC00
34EC00
34EC00
66EC00
66EC00
C7FF80
ENDCHAR
STARTCHAR 337E
ENCODING 13182
SWIDTH 1020 0
DWIDTH 17 0
BBX 17 16 0 -1
BITMAP
00EC00
0FB400
0FB400
F58C00
D58D00
D5DB00
D7AB80
F5BD80
D58180
D58000
D7BF80
D5B980
F5A980
1BA980
1BA980
37DF80
ENDCHAR
STARTCHAR 338E
ENCODING 13198
SWIDTH 1020 0
DWIDTH 17 0
BBX 17 10 0 -2
BITMAP
DA1E80
EDB380
DBA180
DBA180
DBA180
DBB380
DB9E80
DBA180
003300
001E00
ENDCHAR
STARTCHAR 338F
ENCODING 13199
SWIDTH 1020 0
DWIDTH 17 0
BBX 16 17 1 -2
BITMAP
C000
C000
C000
C000
C000
C000
C000
C73D
CC67
D9C3
F1C3
D9C3
CC67
C73D
C743
0066
003C
ENDCHAR
STARTCHAR 339C
ENCODING 13212
SWIDTH 1020 0
DWIDTH 17 0
BBX 17 8 0 0
BITMAP
DAED00
EDB680
DBAD80
DBAD80
DBAD80
DBAD80
DBAD80
DBAD80
ENDCHAR
STARTCHAR 339D
ENCODING 13213
SWIDTH 1020 0
DWIDTH 17 0
BBX 16 8 0 0
BITMAP
3DDA
66ED
C1DB
C1DB
C1DB
C1DB
66DB
3DDB
ENDCHAR
STARTCHAR 339E
ENCODING 13214
SWIDTH 1020 0
DWIDTH 17 0
BBX 16 14 0 0
BITMAP
C000
C000
C000
C000
C000
C000
C6DA
CDED
D9DB
F1DB
D9DB
CDDB
C6DB
C6DB
ENDCHAR
STARTCHAR 33A1
ENCODING 13217
SWIDTH 1020 0
DWIDTH 17 0
BBX 15 15 2 0
BITMAP
001C
0036
0036
000C
0018
003E
0000
DEF0
E798
C718
C718
C718
C718
C718
C718
ENDCHAR
STARTCHAR 33C4
ENCODING 13252
SWIDTH 1020 0
DWIDTH 17 0
BBX 17 8 0 0
BITMAP
3E1F00
63B180
C0E000
C0E000
C0E000
C0E000
63B180
3E1F00
ENDCHAR
STARTCHAR 33CB
ENCODING 13259
SWIDTH 1020 0
DWIDTH 17 0
BBX 15 14 1 0
BITMAP
C3F8
C3F8
C38C
C386
C386
C386
C38C
FFF8
C380
C380
C380
C380
C380
C380
ENDCHAR
STARTCHAR 33CD
ENCODING 13261
SWIDTH 1020 0
DWIDTH 17 0
BBX 17 14 0 0
BITMAP
CCE600
CCE600
CCE600
D8EC00
D8EC00
D0E800
D0E800
F0F800
D0E800
D0E800
D8EC00
D8EC00
DBAD80
CDA680
ENDCHAR
STARTCHAR 3402
ENCODING 13314
SWIDTH 1020 0
DWIDTH 17 0
BBX 17 16 0 -1
BITMAP
0C0000
0C3F00
0C3F00
FFE000
0C0000
0C0300
07FF00
000000
303000
33D380
363600
F9F800
303000
31D180
31D180
1FDF80
ENDCHAR
STARTCHAR 3406
ENCODING 13318
SWIDTH 1020 0
DWIDTH 17 0
BBX 13 16 1 -1
BITMAP
0078
1FC0
1FC0
1800
1FF8
1818
1FF8
1818
1FF8
1800
1FF8
1818
3018
3018
6018
C070
ENDCHAR
STARTCHAR 342C
ENCODING 13356
SWIDTH 1020 0
DWIDTH 17 0
BBX 17 16 0 -1
BITMAP
038000
038000
038000
FFFF80
063000
061800
0DF400
7F8600
000000
19CC00
19CC00
19CC00
19CC00
19CD80
31CD80
E1C780
ENDCHAR
STARTCHAR 342E
ENCODING 13358
SWIDTH 1020 0
DWIDTH 17 0
BBX 17 16 0 -1
BITMAP
01C000
01C000
01C000
FFFF80
0C1800
380E00
E63380
3FFE00
063000
3FFE00
063000
FFFF80
06E300
FC3A00
0FCE00
7C0380
ENDCHAR
STARTCHAR 3468
ENCODING 13416
SWIDTH 1020 0
DWIDTH 17 0
BBX 17 16 0 -1
BITMAP
180000
1BFE00
1BFE00
1B8600
338600
338600
73FE00
D1C000
33FF00
363000
303000
37FF80
30E800
31CC00
338600
360380
ENDCHAR
STARTCHAR 346A
ENCODING 13418
SWIDTH 1020 0
DWIDTH 17 0
BBX 17 16 0 -1
BITMAP
183000
183000
183000
1FFF80
338600
31CC00
70F800
D3CE00
378780
33FE00
338600
338600
33FE00
338600
360600
340600
ENDCHAR
STARTCHAR 3492
ENCODING 13458
SWIDTH 1020 0
DWIDTH 17 0
BBX 17 16 0 -1
BITMAP
18E800
1AEB00
1AEB00
1BAA00
37FF80
338600
71CC00
D7FF00
303000
33FE00
303000
37FF80
31D400
33B600
363380
303000
ENDCHAR
STARTCHAR 34B5
ENCODING 13493
SWIDTH 1020 0
DWIDTH 17 0
BBX 16 16 0 -1
BITMAP
0380
0380
0380
0600
3FFC
300C
300C
3FFC
300C
300C
300C
3FFC
0600
0C30
381C
E007
ENDCHAR
STARTCHAR 34BC
ENCODING 13500
SWIDTH 1020 0
DWIDTH 17 0
BBX 17 16 0 -1
BITMAP
0C1800
0C1800
0C1800
FFFF80
0C1800
0FF800
01C000
7FFF00
61C300
6DDB00
6DDB00
6DDB00
6AD500
71E700
61C300
61CF00
ENDCHAR
STARTCHAR 34C1
ENCODING 13505
SWIDTH 1020 0
DWIDTH 17 0
BBX 16 8 1 2
BITMAP
FFFE
CC66
CC66
0C60
1860
1863
3063
E03F
ENDCHAR
STARTCHAR 34C7
ENCODING 13511
SWIDTH 1020 0
DWIDTH 17 0
BBX 17 16 0 -1
BITMAP
001E00
63F000
63F000
303000
183000
003000
0FFF80
003000
003000
18E800
18E800
30E800
31CC00
61CC00
638600
CE0380
ENDCHAR
STARTCHAR 34DB
ENCODING 13531
SWIDTH 1020 0
DWIDTH 17 0
BBX 16 15 0 -1
BITMAP
07FF
07FF
00E3
FCE3
30E3
30E3
30E3
31C3
31C3
31C3
3D83
E383
0606
0C06
183C
ENDCHAR
STARTCHAR 351F
ENCODING 13599
SWIDTH 1020 0
DWIDTH 17 0
BBX 17 16 0 -1
BITMAP
683000
683000
683000
7EFE00
D83600
DED600
18F600
18E680
1FB680
F1D380
038000
7FFF00
038300
060300
1C0300
F01E00
ENDCHAR
STARTCHAR 355D
ENCODING 13661
SWIDTH 1020 0
DWIDTH 17 0
BBX 17 16 0 -1
BITMAP
01C000
01C000
01C000
FFFF80
01C000
1FFC00
180C00
180C00
1FFC00
000000
3FFE00
0C0C00
061800
03F000
1E3C00
F00780
ENDCHAR
STARTCHAR 355E
ENCODING 13662
SWIDTH 1020 0
DWIDTH 17 0
BBX 17 15 0 -1
BITMAP
7FFF00
7FFF00
61D300
61D300
7FD300
663300
663300
6FDA00
6ADA00
6ACC00
6ACC00
6ADA00
DBDA00
C63300
06E180
ENDCHAR
STARTCHAR 3563
ENCODING 13667
SWIDTH 1020 0
DWIDTH 17 0
BBX 17 16 0 -1
BITMAP
03F000
0C3000
0C3000
0C3000
0C1800
181800
300C00
600600
C00380
3FFC00
300C00
300C00
300C00
300C00
300C00
3FFC00
ENDCHAR
STARTCHAR 356E
ENCODING 13678
SWIDTH 1020 0
DWIDTH 17 0
BBX 17 16 0 -1
BITMAP
01D800
01D800
01D800
FB8C00
DA0600
DD8D80
DB8C00
DB8C00
D9D800
D9D800
D8F000
D8E000
F9D000
039800
060E00
0C0380
ENDCHAR
STARTCHAR 35A6
ENCODING 13734
SWIDTH 1020 0
DWIDTH 17 0
BBX 17 16 0 -1
BITMAP
003000
003000
003000
FFFF80
D83000
DBFF00
DA3300
DBFF00
DA3300
DA3300
DBFF00
D9D400
FBB600
063300
0C3180
003000
ENDCHAR
STARTCHAR 35A8
ENCODING 13736
SWIDTH 1020 0
DWIDTH 17 0
BBX 17 16 0 -1
BITMAP
01C000
01FE00
01FE00
F9C600
DB8C00
DBFC00
D80C00
DFFF80
D83000
DBB300
D9DA00
D8F800
F9D400
03B600
0E3380
01F000
ENDCHAR
STARTCHAR 35C5
ENCODING 13765
SWIDTH 1020 0
DWIDTH 17 0
BBX 17 16 0 -1
BITMAP
038000
039F80
039F80
FB9980
DB9980
DFF980
DB9F80
DB9980
DB9980
DBE980
DAEF80
DAE980
FAE980
06E980
07F180
00E780
ENDCHAR
STARTCHAR 35DA
ENCODING 13786
SWIDTH 1020 0
DWIDTH 17 0
BBX 17 15 0 -1
BITMAP
0FFF80
0FFF80
F9D800
D9D800
DBFF00
DADB00
DADB00
DBFF00
D83000
DFFF80
D9D400
FBB600
063300
0C3180
003000
ENDCHAR
STARTCHAR 35F4
ENCODING 13812
SWIDTH 1020 0
DWIDTH 17 0
BBX 17 15 0 -1
BITMAP
07EF80
07EF80
FAE980
DBEF80
DAE980
DBEF80
DA0180
DAFD80
DAED80
DAED80
DAFD80
FAED80
06ED80
06FD80
060380
ENDCHAR
STARTCHAR 3605
ENCODING 13829
SWIDTH 1020 0
DWIDTH 17 0
BBX 17 16 0 -1
BITMAP
06E000
06EF80
06EF80
F5D000
D9D000
D79800
D6F780
D4E300
DCE300
D5FD00
D4E300
D5AD00
F5AD00
0DEB00
0CFD00
0DC700
ENDCHAR
STARTCHAR 364A
ENCODING 13898
SWIDTH 1020 0
DWIDTH 17 0
BBX 17 16 0 -1
BITMAP
300000
33FF00
33FF00
338000
33FE00
FD8000
33FE00
338000
338000
37FF80
33B300
3DB300
E39A00
038C00
03F600
0F8380
ENDCHAR
STARTCHAR 3691
ENCODING 13969
SWIDTH 1020 0
DWIDTH 17 0
BBX 17 15 0 -1
BITMAP
3FFE00
3FFE00
000600
FFFF80
000600
000600
3FFE00
01C000
01C000
FFFF80
01C000
03A000
063000
1C1C00
F00780
ENDCHAR
STARTCHAR 3696
ENCODING 13974
SWIDTH 1020 0
DWIDTH 17 0
BBX 17 16 0 -1
BITMAP
01C000
038000
038000
1FFC00
180C00
180C00
1FFC00
180C00
180C00
1FFC00
01C000
FFFF80
03A000
063000
1C1C00
F00780
ENDCHAR
STARTCHAR 3699
ENCODING 13977
SWIDTH 1020 0
DWIDTH 17 0
BBX 17 16 0 -1
BITMAP
180000
180000
180000
FFBF00
1BB300
33B300
33B300
63B300
CFBF00
01C000
FFFF80
03A000
063000
0C1800
380E00
E00380
ENDCHAR
STARTCHAR 36CF
ENCODING 14031
SWIDTH 1020 0
DWIDTH 17 0
BBX 17 16 0 -1
BITMAP
181A00
181B00
181B00
181B00
FEFF80
361800
36DB00
36EB00
66EA00
6C1800
6C3C00
F8EC00
1DDA00
339B00
601980
C0F800
ENDCHAR
STARTCHAR 3761
ENCODING 14177
SWIDTH 1020 0
DWIDTH 17 0
BBX 17 16 0 -1
BITMAP
01C000
01C000
01C000
7FFF00
600300
000000
7FC000
33BF00
3F8300
33B300
3FB300
339A00
338C00
3F9A00
F3B380
038000
ENDCHAR
STARTCHAR 3762
ENCODING 14178
SWIDTH 1020 0
DWIDTH 17 0
BBX 15 16 1 -1
BITMAP
0380
0380
0380
FFFE
C006
DFFA
0380
3FF8
3398
3FF8
0380
7FFC
63AC
63F4
6FB4
601C
ENDCHAR
STARTCHAR 376B
ENCODING 14187
SWIDTH 1020 0
DWIDTH 17 0
BBX 16 16 1 -1
BITMAP
0380
FFFE
FFFE
C006
01C0
F9FE
DBD8
D870
D3DC
D77B
DBB0
DBFC
DB30
D3FC
C030
C7FE
ENDCHAR
STARTCHAR 376C
ENCODING 14188
SWIDTH 1020 0
DWIDTH 17 0
BBX 17 16 0 -1
BITMAP
181800
181800
181800
FF9800
C3FF00
DB9800
7E1800
181800
7E1800
1BFF80
FE1800
183400
7E3400
66E600
66C300
7F8180
ENDCHAR
STARTCHAR 3775
ENCODING 14197
SWIDTH 1020 0
DWIDTH 17 0
BBX 17 15 0 -1
BITMAP
1FFC00
1FFC00
180C00
1FFC00
180C00
180C00
1FFC00
000000
7FFF00
001800
FFFF80
061800
039800
039800
00F800
ENDCHAR
STARTCHAR 378D
ENCODING 14221
SWIDTH 1020 0
DWIDTH 17 0
BBX 16 15 0 -1
BITMAP
7FFE
7FFE
6006
6006
7FFE
6380
6380
6FF8
6398
6398
6B98
6E18
C79B
CDDB
380F
ENDCHAR
STARTCHAR 37C1
ENCODING 14273
SWIDTH 1020 0
DWIDTH 17 0
BBX 17 16 0 -1
BITMAP
300000
33FF80
33FF80
338000
338000
D5BF00
D59800
D59800
D59800
D5FF80
D59800
D59800
FE1800
061800
0C1800
001800
ENDCHAR
STARTCHAR 37E2
ENCODING 14306
SWIDTH 1020 0
DWIDTH 17 0
BBX 17 16 0 -1
BITMAP
01C000
31C600
31C600
31C600
3FFE00
01C000
7FFF00
063000
1C1C00
FFFF80
000600
1FE600
18E600
18E600
1FE600
001E00
ENDCHAR
STARTCHAR 37E8
ENCODING 14312
SWIDTH 1020 0
DWIDTH 17 0
BBX 17 16 0 -1
BITMAP
301800
339980
339980
339980
33FF80
D40000
D5FF80
D41800
D43000
D5FF80
D5AD80
D5AD80
FDAD80
03AD80
03AD80
03AD80
ENDCHAR
STARTCHAR 37F4
ENCODING 14324
SWIDTH 1020 0
DWIDTH 17 0
BBX 17 16 0 -1
BITMAP
303000
30E000
30E000
33FF00
33B300
D5B300
D5FF00
D5B300
D5B300
D5FF00
D4EA00
D4EA80
FDDF80
01D800
039980
060F80
ENDCHAR
STARTCHAR 37FD
ENCODING 14333
SWIDTH 1020 0
DWIDTH 17 0
BBX 17 16 0 -1
BITMAP
300000
37FF80
37FF80
30EC00
33FF00
D5AD00
D5AD00
D5FF00
D40000
D5FF00
D40000
D7FF80
FC1800
01DA00
079B80
003800
ENDCHAR
STARTCHAR 3800
ENCODING 14336
SWIDTH 1020 0
DWIDTH 17 0
BBX 17 16 0 -1
BITMAP
060000
1FFC00
1FFC00
180C00
1FFC00
180C00
1FFC00
180000
1FFF80
180000
1FFF00
6DDB00
C6EF00
01C000
61C300
7FFF00
ENDCHAR
STARTCHAR 382F
ENCODING 14383
SWIDTH 1020 0
DWIDTH 17 0
BBX 13 15 2 -1
BITMAP
FFF0
FFF0
C030
C030
C030
C030
FFF0
C000
C000
FFF8
C018
C018
C018
C018
FFF8
ENDCHAR
STARTCHAR 3836
ENCODING 14390
SWIDTH 1020 0
DWIDTH 17 0
BBX 17 16 0 -1
BITMAP
301800
301800
301800
303000
FDFE00
D5C600
D5C600
D5C600
D5C600
D5C600
D5C600
DDC600
31C600
338680
338680
360380
ENDCHAR
STARTCHAR 3840
ENCODING 14400
SWIDTH 1020 0
DWIDTH 17 0
BBX 16 16 1 -1
BITMAP
0380
1BB0
1BB0
339C
E387
0380
7FFE
6386
6DA6
6DA6
6BB6
6BB6
739A
6386
6386
601E
ENDCHAR
STARTCHAR 385C
ENCODING 14428
SWIDTH 1020 0
DWIDTH 17 0
BBX 17 16 0 -1
BITMAP
338000
33EF00
33EF00
37B300
FED700
D5AA00
D5CC00
D5FE00
D60380
D40000
D7FF00
DC3000
33B600
363300
343180
30F000
ENDCHAR
STARTCHAR 3861
ENCODING 14433
SWIDTH 1020 0
DWIDTH 17 0
BBX 17 16 0 -1
BITMAP
300000
37FF80
37FF80
340000
FDF300
D40300
D5F780
D5B300
D5B500
D5F500
D40D00
DDB500
35B300
35D300
39FB00
37C700
ENDCHAR
STARTCHAR 38FA
ENCODING 14586
SWIDTH 1020 0
DWIDTH 17 0
BBX 17 12 0 0
BITMAP
038000
038000
038000
038C00
338600
33A300
33B180
639980
638C00
C38000
038000
0F8000
ENDCHAR
STARTCHAR 3917
ENCODING 14615
SWIDTH 1020 0
DWIDTH 17 0
BBX 17 16 0 -1
BITMAP
01C000
01C000
01C000
7FFF00
01C000
3FFE00
03A000
FFFF80
0C1800
39CE00
E1C380
19C600
19D300
31D980
61CC00
07C000
ENDCHAR
STARTCHAR 391A
ENCODING 14618
SWIDTH 1020 0
DWIDTH 17 0
BBX 17 16 0 -1
BITMAP
31C000
31DF00
31DF00
338000
338000
D60000
DAC000
D5DF80
D38600
D38600
378600
338600
338600
338600
338600
339E00
ENDCHAR
STARTCHAR 396F
ENCODING 14703
SWIDTH 1020 0
DWIDTH 17 0
BBX 17 16 0 -1
BITMAP
000E00
1FF800
1FF800
19CC00
338600
6FFA00
00E000
7FFF00
000600
FFFF80
000600
3FFE00
01C000
34E600
6C0D00
C7FD80
ENDCHAR
STARTCHAR 3A6E
ENCODING 14958
SWIDTH 1020 0
DWIDTH 17 0
BBX 17 16 0 -1
BITMAP
31D000
37BB00
37BB00
363300
37BB00
FAEB00
36EB00
37FF80
338600
3AFD00
F43180
33FE00
303000
37FF00
303000
71F000
ENDCHAR
STARTCHAR 3A73
ENCODING 14963
SWIDTH 1020 0
DWIDTH 17 0
BBX 17 16 0 -1
BITMAP
36EB00
36DA00
36DA00
37EF80
36DA00
FBEF00
36DA00
37EF00
36DA00
3BEF80
F00000
37FF00
338600
31FC00
31EC00
778780
ENDCHAR
STARTCHAR 3AD6
ENCODING 15062
SWIDTH 1020 0
DWIDTH 17 0
BBX 17 16 0 -1
BITMAP
01C000
01C000
01C000
01FE00
01C000
01C000
01C000
FFFF80
000000
1FFC00
180C00
180C00
1FFC00
180C00
180C00
1FFC00
ENDCHAR
STARTCHAR 3AD7
ENCODING 15063
SWIDTH 1020 0
DWIDTH 17 0
BBX 17 15 0 -1
BITMAP
3FFE00
3FFE00
300600
3FFE00
300600
3FFE00
000000
3FFE00
003800
01E000
FFFF80
01C000
01C000
01C000
07C000
ENDCHAR
STARTCHAR 3AEA
ENCODING 15082
SWIDTH 1020 0
DWIDTH 17 0
BBX 17 16 0 -1
BITMAP
01C000
01C000
01C000
7FFF00
01C000
3FFE00
03A000
FFFF80
063000
0C1800
3DFE00
EDC780
0DFE00
0DC600
0DC600
0DFE00
ENDCHAR
STARTCHAR 3B0E
ENCODING 15118
SWIDTH 1020 0
DWIDTH 17 0
BBX 17 15 0 -1
BITMAP
3FFE00
3FFE00
300600
3FFE00
300600
3FFE00
181800
33B300
1A1A00
0C0C00
1B9B00
7DFD80
300600
663300
C39980
ENDCHAR
STARTCHAR 3B1A
ENCODING 15130
SWIDTH 1020 0
DWIDTH 17 0
BBX 17 16 0 -1
BITMAP
038C00
038C00
038C00
FFF400
DB8F80
DAED00
DFDB00
D83500
FBED00
DAED00
DBE600
DAE600
DBE600
FAED00
06ED00
06E980
ENDCHAR
STARTCHAR 3B1C
ENCODING 15132
SWIDTH 1020 0
DWIDTH 17 0
BBX 17 15 0 -1
BITMAP
FFBF80
FFBF80
180C00
361B00
FDBE80
1B8D80
7E3F00
180C00
FFBF80
000000
1FFE00
180600
1FFE00
180600
1FFE00
ENDCHAR
STARTCHAR 3B22
ENCODING 15138
SWIDTH 1020 0
DWIDTH 17 0
BBX 17 16 0 -1
BITMAP
01CC00
00E800
00E800
FBFF00
D83000
DBFE00
D83000
DFFF80
F80600
DBD300
DBB000
DFFF80
DB9B00
FBDA00
0DAD80
03BB80
ENDCHAR
STARTCHAR 3B6D
ENCODING 15213
SWIDTH 1020 0
DWIDTH 17 0
BBX 17 16 0 -1
BITMAP
300180
37F180
37F180
363580
FE3580
363580
37F580
7B8D80
758D80
75F580
D3B580
D3B580
33B180
363180
363180
35E780
ENDCHAR
STARTCHAR 3B77
ENCODING 15223
SWIDTH 1020 0
DWIDTH 17 0
BBX 17 16 0 -1
BITMAP
180000
19FF00
19FF00
19DB00
FEDB00
19FF00
19DB00
3DDB00
3AFF00
381800
6BFF80
683180
D83180
18E180
19C180
1B8F00
ENDCHAR
STARTCHAR 3B87
ENCODING 15239
SWIDTH 1020 0
DWIDTH 17 0
BBX 17 16 0 -1
BITMAP
301E00
33F000
33F000
303000
FC3000
37FF80
30EC00
71C600
7B8300
763180
D03000
D3B500
33B580
363680
363600
30F000
ENDCHAR
STARTCHAR 3B88
ENCODING 15240
SWIDTH 1020 0
DWIDTH 17 0
BBX 17 16 0 -1
BITMAP
303000
303000
303000
37FF00
FCE800
31CC00
338600
76FD00
780000
740000
D7FF00
D03000
33B400
363600
3C3380
31F000
ENDCHAR
STARTCHAR 3B8D
ENCODING 15245
SWIDTH 1020 0
DWIDTH 17 0
BBX 17 16 0 -1
BITMAP
061800
FFFF80
FFFF80
000000
3FB600
3BB600
37B600
3BB600
378600
338E00
01C000
FFFF80
06D000
1DDC00
F1C780
01C000
ENDCHAR
STARTCHAR 3BA4
ENCODING 15268
SWIDTH 1020 0
DWIDTH 17 0
BBX 17 16 0 -1
BITMAP
01C000
01C000
01C000
7FFF00
6C1B00
39CE00
07B000
1C1C00
F7FB80
0C1800
0FF800
01C000
FFFF80
06D000
1DDC00
F1C780
ENDCHAR
STARTCHAR 3BB6
ENCODING 15286
SWIDTH 1020 0
DWIDTH 17 0
BBX 17 16 0 -1
BITMAP
363000
33B780
33B780
33AD80
FFFD80
31CD80
31CF80
7AD580
76D580
76D580
D6D780
D7F580
31CD80
31CD80
338D80
361B80
ENDCHAR
STARTCHAR 3BC3
ENCODING 15299
SWIDTH 1020 0
DWIDTH 17 0
BBX 17 16 0 -1
BITMAP
303000
303000
303000
37FF80
F9D400
33B600
363380
70E800
7BCE00
763380
D3B600
D1D400
30F800
33D600
363380
30F000
ENDCHAR
STARTCHAR 3BCD
ENCODING 15309
SWIDTH 1020 0
DWIDTH 17 0
BBX 17 16 0 -1
BITMAP
31D800
36DF80
36DF80
36D980
FEF580
36DB00
37CE00
71FB00
79C300
77DF80
D6C300
D6DB00
36CD00
36CD00
35C300
35C700
ENDCHAR
STARTCHAR 3BF0
ENCODING 15344
SWIDTH 1020 0
DWIDTH 17 0
BBX 17 16 0 -1
BITMAP
33FF00
33AB00
33AB00
33FF00
FC3000
37FF80
303000
79FF00
75C300
76FF00
D6C300
D6FF00
36C300
36FF00
360000
37FF80
ENDCHAR
STARTCHAR 3C0F
ENCODING 15375
SWIDTH 1020 0
DWIDTH 17 0
BBX 17 16 0 -1
BITMAP
338C00
33F780
33F780
36EA00
FC3300
37FF00
300000
79FC00
75CC00
75FC00
D00000
D7FF00
360300
36FD00
36CD00
36FF00
ENDCHAR
STARTCHAR 3C26
ENCODING 15398
SWIDTH 1020 0
DWIDTH 17 0
BBX 17 16 0 -1
BITMAP
0C1800
0C1800
0C1800
0C1800
7FDF80
0C3180
0CED80
0C0D00
FFCC00
180C00
180C00
1A0C00
1B9A00
339A00
3ED300
F0E180
ENDCHAR
STARTCHAR 3CC3
ENCODING 15555
SWIDTH 1020 0
DWIDTH 17 0
BBX 17 16 0 -1
BITMAP
60E000
30E000
30E000
1BFC00
00EC00
C1CC00
61CD80
338D80
0E0780
003000
183000
1BFF00
303000
303000
603000
C03000
ENDCHAR
STARTCHAR 3CD2
ENCODING 15570
SWIDTH 1020 0
DWIDTH 17 0
BBX 16 16 0 -1
BITMAP
60E0
30E0
30E0
18E0
0FFF
C1D8
61D8
338C
03A6
06E3
18E0
18E0
31CC
31CC
63BA
CFE3
ENDCHAR
STARTCHAR 3D11
ENCODING 15633
SWIDTH 1020 0
DWIDTH 17 0
BBX 17 16 0 -1
BITMAP
603000
303000
303000
1FFF80
0DC300
CCE300
6CE600
37FF80
0C1800
0DDB00
1DDB00
1DDB00
35FF00
341800
683000
C1E000
ENDCHAR
STARTCHAR 3D1E
ENCODING 15646
SWIDTH 1020 0
DWIDTH 17 0
BBX 16 16 0 -1
BITMAP
601E
37F0
37F0
1800
06E3
C3B3
63B6
3000
06FF
06E3
1AE3
1AFF
36E3
36E3
66E3
C6FF
ENDCHAR
STARTCHAR 3D64
ENCODING 15716
SWIDTH 1020 0
DWIDTH 17 0
BBX 17 16 0 -1
BITMAP
600000
37EF80
37EF80
1BA680
0EED80
C3A680
6EED80
303000
07FF00
03B600
1BB600
1AD500
34E980
31CC00
638600
CE0380
ENDCHAR
STARTCHAR 3D9A
ENCODING 15770
SWIDTH 1020 0
DWIDTH 17 0
BBX 17 16 0 -1
BITMAP
600000
3FFF80
3FFF80
039800
1FFF00
DB9B00
6FFF00
06C000
1FEF00
06DB00
37EF00
35AB00
6FEF00
639B00
DFEB00
C3B700
ENDCHAR
STARTCHAR 3DC0
ENCODING 15808
SWIDTH 1020 0
DWIDTH 17 0
BBX 17 16 0 -1
BITMAP
181800
6BAB00
6BAB00
6AEA00
181800
343400
66E600
000000
FFF800
001800
0C1800
0C1800
7FEC00
0C0D80
0C0680
0C0300
ENDCHAR
STARTCHAR 3DD4
ENCODING 15828
SWIDTH 1020 0
DWIDTH 17 0
BBX 16 16 0 -1
BITMAP
181E
1BF0
1BF0
1800
1BB3
6ADB
6ADA
D800
DBBF
1BB3
1BB3
35BF
35B3
67B3
63B3
C3BF
ENDCHAR
STARTCHAR 3E05
ENCODING 15877
SWIDTH 1020 0
DWIDTH 17 0
BBX 17 16 0 -1
BITMAP
31CC00
31CC00
31CC00
33F780
35AA00
D63300
D5C000
D7F780
D63580
37F580
363580
3BF580
360D80
6FED80
663580
C3F400
ENDCHAR
STARTCHAR 3E3F
ENCODING 15935
SWIDTH 1020 0
DWIDTH 17 0
BBX 17 16 0 -1
BITMAP
181800
681800
681800
6BFF80
681800
FC1800
D9FF00
180000
1BFF80
1D8180
3BAD80
E8EC00
18EC00
18ED80
19CD80
1B8780
ENDCHAR
STARTCHAR 3E60
ENCODING 15968
SWIDTH 1020 0
DWIDTH 17 0
BBX 17 16 0 -1
BITMAP
0C3000
CC3600
CC3600
683C00
37F000
303000
6BB600
DBB600
1BB600
3BB600
6BB600
DBFE00
183000
183180
303180
E01F80
ENDCHAR
STARTCHAR 3E66
ENCODING 15974
SWIDTH 1020 0
DWIDTH 17 0
BBX 16 16 0 -1
BITMAP
0C00
CDFF
CDFF
68E3
30E3
30E3
69C3
D9C3
1B8E
3800
69FF
D9C3
19C3
19C3
31C3
E1FF
ENDCHAR
STARTCHAR 3E68
ENCODING 15976
SWIDTH 1020 0
DWIDTH 17 0
BBX 16 16 0 -1
BITMAP
0C30
CC30
CC30
6830
3030
37FF
6A33
DA33
1A33
3A33
6BFF
DA33
1A33
1A33
3633
E7FF
ENDCHAR
STARTCHAR 3E83
ENCODING 16003
SWIDTH 1020 0
DWIDTH 17 0
BBX 17 16 0 -1
BITMAP
0DCC00
CDCC00
CDCC00
6BFF80
31CC00
31CC00
6B8000
DBFF00
1A0300
3AFB00
6DDB00
D9DB00
19DB00
19FB00
300300
E01E00
ENDCHAR
STARTCHAR 3E94
ENCODING 16020
SWIDTH 1020 0
DWIDTH 17 0
BBX 17 16 0 -1
BITMAP
0C1C00
CDF600
CDF600
6BB300
361B00
33FE00
6B8600
DBFF00
1B8300
3B8300
6BFF80
DA0180
1A1A80
1DAD80
33B180
E60700
ENDCHAR
STARTCHAR 3F57
ENCODING 16215
SWIDTH 1020 0
DWIDTH 17 0
BBX 17 16 0 -1
BITMAP
003000
003000
003000
FC3000
D43000
D43000
D43000
FC3000
D43000
D4E800
D4E800
D4E800
FDCC00
01CC00
038600
0E0380
ENDCHAR
STARTCHAR 3F72
ENCODING 16242
SWIDTH 1020 0
DWIDTH 17 0
BBX 16 16 0 -1
BITMAP
00E0
00E0
00E0
3FFF
D000
7000
37FF
31C0
31C0
73FE
D386
3606
6006
600C
C00C
00F8
ENDCHAR
STARTCHAR 3F75
ENCODING 16245
SWIDTH 1020 0
DWIDTH 17 0
BBX 16 16 0 -1
BITMAP
01C0
01C0
01C0
3FFF
D000
70E0
30E0
30E0
30E0
77FE
D0E0
30E0
60E0
60E0
C0E0
1FFF
ENDCHAR
STARTCHAR 3F77
ENCODING 16247
SWIDTH 1020 0
DWIDTH 17 0
BBX 17 16 0 -1
BITMAP
00E000
00E000
00E000
3FFF00
D00000
70E000
30E300
3FA300
33B600
73B400
D3A800
36E800
66EC00
6CE600
D8E380
03E000
ENDCHAR
STARTCHAR 3FAE
ENCODING 16302
SWIDTH 1020 0
DWIDTH 17 0
BBX 17 16 0 -1
BITMAP
01C000
01C000
01C000
3FFF00
D1C000
77FE00
360600
37FE00
360600
77FE00
D00000
37FF00
60E000
67FE00
C0E000
1FFF80
ENDCHAR
STARTCHAR 3FC9
ENCODING 16329
SWIDTH 1020 0
DWIDTH 17 0
BBX 17 16 0 -1
BITMAP
01C000
01C000
01C000
3FFF00
D0E000
77FE00
36E600
37FE00
30E000
7FFF80
D60600
37FE00
660600
67FE00
C38C00
0E0780
ENDCHAR
STARTCHAR 3FD7
ENCODING 16343
SWIDTH 1020 0
DWIDTH 17 0
BBX 17 16 0 -1
BITMAP
00E000
3FFF00
3FFF00
300000
D1EF80
778600
339F80
3FF980
37DF80
75A980
DBBF80
36D980
66D980
66DF80
CDED00
19D980
ENDCHAR
STARTCHAR 4039
ENCODING 16441
SWIDTH 1020 0
DWIDTH 17 0
BBX 17 16 0 -1
BITMAP
003000
F83000
F83000
DFFF80
D83000
DBB600
FBB600
DBB600
DAD500
DAD500
FC3180
D8E800
D8E800
D9CC00
FB8600
0E0380
ENDCHAR
STARTCHAR 4058
ENCODING 16472
SWIDTH 1020 0
DWIDTH 17 0
BBX 17 16 0 -1
BITMAP
003000
F8FE00
F8FE00
D9E600
DBB400
D9D800
F8F000
DBE000
D9FF00
DBB000
F83000
DBFF80
D83000
DA3300
FA3300
07FF00
ENDCHAR
STARTCHAR 4093
ENCODING 16531
SWIDTH 1020 0
DWIDTH 17 0
BBX 17 16 0 -1
BITMAP
300000
31FE00
31FE00
3DC600
69FE00
D9C600
19C600
19FE00
FEC600
19C600
19FE00
34EC00
36EC00
66ED80
C1CD80
038780
ENDCHAR
STARTCHAR 4105
ENCODING 16645
SWIDTH 1020 0
DWIDTH 17 0
BBX 17 16 0 -1
BITMAP
19CC00
0DCC00
0DCC00
0DD800
3FFE00
03A000
03A000
FFFF80
0C1800
1BF400
300600
EFFD80
01C000
1DDC00
71C700
07C000
ENDCHAR
STARTCHAR 4148
ENCODING 16712
SWIDTH 1020 0
DWIDTH 17 0
BBX 17 16 0 -1
BITMAP
19CC00
0DCC00
0DCC00
0DD800
3FFE00
03A000
03A000
FFFF80
063000
1CEC00
F7C780
01C000
3FFF00
06D000
1DDC00
71C700
ENDCHAR
STARTCHAR 414F
ENCODING 16719
SWIDTH 1020 0
DWIDTH 17 0
BBX 17 16 0 -1
BITMAP
1C0000
F3FF00
F3FF00
338300
33FF00
FD8000
338F00
33B800
7B9800
759F00
D5F800
D39F00
33F800
339980
361980
300F80
ENDCHAR
STARTCHAR 4163
ENCODING 16739
SWIDTH 1020 0
DWIDTH 17 0
BBX 17 16 0 -1
BITMAP
1C3000
F0E000
F0E000
33FE00
338600
FDFE00
338600
338600
73FE00
780000
D7FF00
D43000
33FE00
303000
303000
37FF80
ENDCHAR
STARTCHAR 41B4
ENCODING 16820
SWIDTH 1020 0
DWIDTH 17 0
BBX 17 16 0 -1
BITMAP
01C000
7FFF00
7FFF00
6C3300
FB9F80
07F000
1CE000
FFFC00
31CC00
3FFE00
31C600
3FFE00
31C600
3FFE80
01C180
00FF80
ENDCHAR
STARTCHAR 41BF
ENCODING 16831
SWIDTH 1020 0
DWIDTH 17 0
BBX 17 16 0 -1
BITMAP
01C000
7FFF00
7FFF00
663300
FC3F80
003000
6DFF00
6DC300
6DFF00
7DC300
0DFF00
FDC300
35FF80
34EA00
6DDB00
CD9980
ENDCHAR
STARTCHAR 41E6
ENCODING 16870
SWIDTH 1020 0
DWIDTH 17 0
BBX 17 16 0 -1
BITMAP
303000
303000
303000
3FBF80
6DCC00
C6C600
01C000
1FFC00
19CC00
19CC00
19CC00
7FFF00
03A000
063000
1C1C00
F00780
ENDCHAR
STARTCHAR 41EE
ENCODING 16878
SWIDTH 1020 0
DWIDTH 17 0
BBX 17 16 0 -1
BITMAP
303000
303000
303000
3FBF80
6DCC00
C60600
0C0E00
0DF800
181800
181800
3BFF80
681800
D81800
181800
181800
19FF00
ENDCHAR
STARTCHAR 41F3
ENCODING 16883
SWIDTH 1020 0
DWIDTH 17 0
BBX 17 16 0 -1
BITMAP
303000
303000
303000
3FBF80
6DCC00
C63600
01D800
3FFF00
01C000
1FFE00
01C000
7FFF00
00E800
003180
03ED80
7E0700
ENDCHAR
STARTCHAR 4207
ENCODING 16903
SWIDTH 1020 0
DWIDTH 17 0
BBX 17 16 0 -1
BITMAP
303000
303000
303000
3FBF80
6DCC00
C6C600
01FE00
01C000
1FFC00
180C00
1FFC00
180C00
1FFC00
01C000
7FFF00
01C000
ENDCHAR
STARTCHAR 420E
ENCODING 16910
SWIDTH 1020 0
DWIDTH 17 0
BBX 17 16 0 -1
BITMAP
303000
7FBF80
7FBF80
CDCC00
19CC00
FFFF80
19CC00
19FC00
180000
1FFF00
01C000
FFFF80
06D000
1DDC00
F1C780
01C000
ENDCHAR
STARTCHAR 4264
ENCODING 16996
SWIDTH 1020 0
DWIDTH 17 0
BBX 17 16 0 -1
BITMAP
303000
303000
303000
7FDF80
6CEA00
DB9800
6A3F80
FFB300
6AEB00
DBDB00
181A00
FFCE00
360C00
761A00
1C3300
F7A180
ENDCHAR
STARTCHAR 42C6
ENCODING 17094
SWIDTH 1020 0
DWIDTH 17 0
BBX 17 16 0 -1
BITMAP
180000
31FF80
31FF80
660000
340000
18FF80
36E180
6EE180
FBA180
1BBF80
68E000
6AE000
DBA000
D9C000
19C000
1B8000
ENDCHAR
STARTCHAR 42D6
ENCODING 17110
SWIDTH 1020 0
DWIDTH 17 0
BBX 17 16 0 -1
BITMAP
181800
301800
301800
66FF00
341B00
19FF80
361B00
6EFF00
FB9800
1BFF00
681800
6C1800
DBFF80
DA1800
181800
181800
ENDCHAR
STARTCHAR 42DD
ENCODING 17117
SWIDTH 1020 0
DWIDTH 17 0
BBX 17 16 0 -1
BITMAP
183180
33B180
33B180
66D980
35DB00
19C300
360600
6E3000
FBFF80
1BA600
68E600
6DC600
DAF400
DA1800
183600
1BE380
ENDCHAR
STARTCHAR 4302
ENCODING 17154
SWIDTH 1020 0
DWIDTH 17 0
BBX 17 16 0 -1
BITMAP
180000
33FF00
33FF00
678300
358300
1BFF00
338000
6FBF80
FB9800
1BB700
6BBD80
6D8C00
DAFF00
DA0C00
1A0C00
19FF80
ENDCHAR
STARTCHAR 432B
ENCODING 17195
SWIDTH 1020 0
DWIDTH 17 0
BBX 17 16 0 -1
BITMAP
180C00
33F400
33F400
67AF80
35F800
1BB000
33F700
6FA000
FBFF00
19C300
69FF00
6DC300
DAFF00
DA3400
18ED80
1BC780
ENDCHAR
STARTCHAR 4343
ENCODING 17219
SWIDTH 1020 0
DWIDTH 17 0
BBX 17 16 0 -1
BITMAP
01C000
07FC00
07FC00
3DCC00
06E800
03B000
07C000
3C0000
1FFE00
31C000
61C000
FFFF80
01C000
31C600
31C600
3FFE00
ENDCHAR
STARTCHAR 43EE
ENCODING 17390
SWIDTH 1020 0
DWIDTH 17 0
BBX 17 16 0 -1
BITMAP
003000
7C3000
7C3000
6DFF00
6C3300
6CE300
7CE300
6DC300
6D9E00
6C0000
7DC380
6CE600
6C0000
6C3400
CDE600
DF8380
ENDCHAR
STARTCHAR 43F0
ENCODING 17392
SWIDTH 1020 0
DWIDTH 17 0
BBX 17 15 0 -1
BITMAP
7DFF00
7DFF00
6C3300
6DB300
6DD300
7CE300
6DD300
6DB300
6C0E00
7C3000
6C1800
6CEB00
6DA180
CDA680
DE3E00
ENDCHAR
STARTCHAR 4408
ENCODING 17416
SWIDTH 1020 0
DWIDTH 17 0
BBX 17 16 0 -1
BITMAP
001800
7C1800
7C1800
6FFF80
6C1800
6CFF00
7DA300
6DBF00
6DA300
6DA300
7DBF00
6DA300
6DA300
6DBF00
CD8000
DDFF80
ENDCHAR
STARTCHAR 4417
ENCODING 17431
SWIDTH 1020 0
DWIDTH 17 0
BBX 17 16 0 -1
BITMAP
00E000
7CE300
7CE300
6FFF00
6CE600
6CE600
7CEC00
6FFF80
6C3400
6DFE00
7F8600
6D8600
6DFE00
6D8600
CD8600
DDFE00
ENDCHAR
STARTCHAR 441C
ENCODING 17436
SWIDTH 1020 0
DWIDTH 17 0
BBX 17 16 0 -1
BITMAP
01C700
7DFC00
7DFC00
6DC180
6CFF80
6C0000
7DBF00
6DA300
6DBF00
6DA300
7DBF00
6DA300
6DFF80
6C1800
CCF600
DDC380
ENDCHAR
STARTCHAR 4422
ENCODING 17442
SWIDTH 1020 0
DWIDTH 17 0
BBX 16 16 0 -1
BITMAP
01C0
7DFF
7DFF
6DB3
6ED5
6DD5
7DFD
6CE3
6DCE
6DFF
7DB3
6ED5
6DD5
6DFD
CCE3
DDCE
ENDCHAR
STARTCHAR 4453
ENCODING 17491
SWIDTH 1020 0
DWIDTH 17 0
BBX 17 16 0 -1
BITMAP
0C1800
0C1800
0C1800
7FFF00
0C1800
0FF800
0C1800
FFFF80
C00180
DFFE80
0C0C00
3FFA00
01C000
1FFC00
01C000
FFFF80
ENDCHAR
STARTCHAR 445B
ENCODING 17499
SWIDTH 1020 0
DWIDTH 17 0
BBX 17 16 0 -1
BITMAP
1E0E00
F9FC00
F9FC00
19CC00
19CC00
19CC00
FEFF80
19CC00
19CC00
19CC00
7ECC00
66F400
67C600
660680
67FA80
7E0300
ENDCHAR
STARTCHAR 4476
ENCODING 17526
SWIDTH 1020 0
DWIDTH 17 0
BBX 17 16 0 -1
BITMAP
181800
301800
301800
7EFF80
661800
6AFF00
6A1800
66FF80
FF8000
66FF00
6ADB00
6ADB00
6AFF00
6AC300
C6C300
CEC700
ENDCHAR
STARTCHAR 447A
ENCODING 17530
SWIDTH 1020 0
DWIDTH 17 0
BBX 17 16 0 -1
BITMAP
180000
31FF00
31FF00
7EC300
66DD00
6AF300
6AD300
66FD00
FFD500
66D500
6AFD00
6AD300
6AD500
6ADD00
C6F680
CF8180
ENDCHAR
STARTCHAR 4491
ENCODING 17553
SWIDTH 1020 0
DWIDTH 17 0
BBX 17 5 0 5
BITMAP
300C00
180C00
0C1800
0C3000
FFFF80
ENDCHAR
STARTCHAR 44B3
ENCODING 17587
SWIDTH 1020 0
DWIDTH 17 0
BBX 17 16 0 -1
BITMAP
0C1800
0C1800
0C1800
FFFF80
0C1800
000000
3FFC00
061800
0C3F00
180300
700E00
01C000
FFFF80
06D000
1DDC00
F1C780
ENDCHAR
STARTCHAR 44BE
ENCODING 17598
SWIDTH 1020 0
DWIDTH 17 0
BBX 17 16 0 -1
BITMAP
0C1800
0C1800
0C1800
FFFF80
0C1800
0C1800
01C000
01C000
FFFF80
03A000
06E300
1C3600
F43400
0C1800
0FCE00
7C0380
ENDCHAR
STARTCHAR 44D4
ENCODING 17620
SWIDTH 1020 0
DWIDTH 17 0
BBX 17 16 0 -1
BITMAP
0C1800
0C1800
0C1800
FFFF80
0C1800
01C600
1FFC00
01D800
7FFF00
0E0000
FBFE00
003800
7FFF80
00E000
00E000
03E000
ENDCHAR
STARTCHAR 4508
ENCODING 17672
SWIDTH 1020 0
DWIDTH 17 0
BBX 17 16 0 -1
BITMAP
0C1800
0C1800
0C1800
FFFF80
0C1800
3FFE00
01C000
FFFF80
180C00
1FFC00
180C00
1FFC00
180C00
1FFC00
0C1800
780F00
ENDCHAR
STARTCHAR 450D
ENCODING 17677
SWIDTH 1020 0
DWIDTH 17 0
BBX 17 16 0 -1
BITMAP
0C1800
0C1800
0C1800
FFFF80
0C1800
3FFF00
30E000
3FFE00
30E000
3FFE00
30E000
3FFF80
000180
6DD980
C6ED80
C6E700
ENDCHAR
STARTCHAR 4525
ENCODING 17701
SWIDTH 1020 0
DWIDTH 17 0
BBX 17 16 0 -1
BITMAP
0C1800
FFFF80
FFFF80
0DD800
3FFE00
01C600
FFFF80
01C600
3FFE00
0DD800
36D600
37FE00
33E600
66D600
6DDE00
C1C600
ENDCHAR
STARTCHAR 4543
ENCODING 17731
SWIDTH 1020 0
DWIDTH 17 0
BBX 17 16 0 -1
BITMAP
0C1800
FFFF80
FFFF80
0C1800
00F600
7FC380
66FE00
6CE000
68FE00
6CE000
66FE00
66E000
67FF80
6CE600
61DD00
63F180
ENDCHAR
STARTCHAR 459D
ENCODING 17821
SWIDTH 1020 0
DWIDTH 17 0
BBX 17 16 0 -1
BITMAP
001E00
01F000
01F000
7FC000
01C000
01C000
3FFE00
31C600
31C600
31C600
3FFE00
01CC00
01C600
01DF00
03F180
FE0180
ENDCHAR
STARTCHAR 45B8
ENCODING 17848
SWIDTH 1020 0
DWIDTH 17 0
BBX 17 16 0 -1
BITMAP
7FB600
183300
183300
FFFF80
183600
1F9A00
F81C00
18F600
7BC380
01C000
3FFE00
31C600
3FFE00
01C300
01DF80
FFF180
ENDCHAR
STARTCHAR 45E5
ENCODING 17893
SWIDTH 1020 0
DWIDTH 17 0
BBX 17 16 0 -1
BITMAP
31D300
31D300
31D300
33B300
FDAA80
D6EA80
D5C000
D5CC00
D58C00
FDAC00
37AF00
35AC00
35AC00
3DAC00
E7BC00
03CF80
ENDCHAR
STARTCHAR 45EA
ENCODING 17898
SWIDTH 1020 0
DWIDTH 17 0
BBX 17 16 0 -1
BITMAP
00E000
3FFF80
3FFF80
339800
3FFF80
339800
63F800
6DB600
D9DB00
19DB00
3FFE00
31C600
3FFE00
01CC00
01FF00
FF8180
ENDCHAR
STARTCHAR 460F
ENCODING 17935
SWIDTH 1020 0
DWIDTH 17 0
BBX 17 16 0 -1
BITMAP
0C0000
0C1F80
0C1F80
181980
7FD980
6ADB00
6ADB00
6ADA00
6ADB00
6ADB00
6AD980
6AD980
6BE980
7E1B00
E01800
001800
ENDCHAR
STARTCHAR 4641
ENCODING 17985
SWIDTH 1020 0
DWIDTH 17 0
BBX 17 16 0 -1
BITMAP
31D800
31CC00
31CC00
31FE00
FFC000
0CEC00
0CFB00
1BCE00
181800
3ACC00
75FE00
D7C000
30EC00
303180
31ED80
378700
ENDCHAR
STARTCHAR 4665
ENCODING 18021
SWIDTH 1020 0
DWIDTH 17 0
BBX 17 16 0 -1
BITMAP
300000
33FE00
33FE00
303000
FDFF00
0DB300
0DDD00
183000
18E800
3ACE00
75BD80
D60000
35FE00
303600
303600
303000
ENDCHAR
STARTCHAR 46A1
ENCODING 18081
SWIDTH 1020 0
DWIDTH 17 0
BBX 17 16 0 -1
BITMAP
300000
3EFF00
3EFF00
36DB00
6DDB00
FEFF00
6ADB00
6ADB00
7EDB00
6AFF00
6A1800
7E0C00
66D500
66D300
C7B680
CE1E00
ENDCHAR
STARTCHAR 46AF
ENCODING 18095
SWIDTH 1020 0
DWIDTH 17 0
BBX 16 16 0 -1
BITMAP
0003
7E03
7E03
0033
FFB3
0033
7E33
0033
7E33
0033
0033
7E33
6633
6603
6603
7E0F
ENDCHAR
STARTCHAR 470C
ENCODING 18188
SWIDTH 1020 0
DWIDTH 17 0
BBX 17 16 0 -1
BITMAP
300C00
33EC00
33EC00
601800
EBFA00
300C00
35ED00
6C1B00
F7ED80
300C00
380D00
D7ED00
D6F580
D6ED80
36EC00
37EC00
ENDCHAR
STARTCHAR 4764
ENCODING 18276
SWIDTH 1020 0
DWIDTH 17 0
BBX 17 16 0 -1
BITMAP
0C1800
381800
381800
EDFF80
363400
0DD500
38E600
EDFF00
1DA680
36FE00
EEE600
1AFE00
361800
E6EA00
0DDB80
383800
ENDCHAR
ENDFONT
